<svg width="246" height="247" viewBox="0 0 246 247" fill="none" xmlns="http://www.w3.org/2000/svg">
<rect width="173.271" height="173.271" transform="matrix(-0.705514 0.708696 -0.705514 -0.708696 245.349 123.772)" fill="#232323"/>
<mask id="mask0_55_23393" style="mask-type:alpha" maskUnits="userSpaceOnUse" x="0" y="0" width="246" height="247">
<rect width="173.271" height="173.271" transform="matrix(-0.705514 0.708696 -0.705514 -0.708696 245.349 123.772)" fill="#232323"/>
</mask>
<g mask="url(#mask0_55_23393)">
<circle cx="162.338" cy="217.32" r="2.43474" transform="rotate(-75 162.338 217.32)" fill="white"/>
<circle cx="83.3423" cy="30.8813" r="2.43474" transform="rotate(105 83.3423 30.8813)" fill="white"/>
<circle cx="90.4051" cy="197.536" r="2.43474" transform="rotate(90 90.4051 197.536)" fill="white"/>
<circle cx="155.276" cy="50.6654" r="2.43474" transform="rotate(-90 155.276 50.6654)" fill="white"/>
<circle cx="210.649" cy="180.483" r="2.43474" transform="rotate(-75 210.649 180.483)" fill="white"/>
<circle cx="35.0317" cy="67.7192" r="2.43474" transform="rotate(105 35.0317 67.7192)" fill="white"/>
<circle cx="53.2742" cy="245.623" r="2.43474" transform="rotate(90 53.2742 245.623)" fill="white"/>
<circle cx="192.406" cy="2.57942" r="2.43474" transform="rotate(-90 192.406 2.57942)" fill="white"/>
<circle cx="139.84" cy="190.958" r="2.43474" transform="rotate(-75 139.84 190.958)" fill="white"/>
<circle cx="105.84" cy="57.2446" r="2.43474" transform="rotate(105 105.84 57.2446)" fill="white"/>
<circle cx="118.96" cy="217.178" r="2.43474" transform="rotate(90 118.96 217.178)" fill="white"/>
<circle cx="126.721" cy="31.0238" r="2.43474" transform="rotate(-90 126.721 31.0238)" fill="white"/>
<circle cx="201.84" cy="146.958" r="2.43474" transform="rotate(-75 201.84 146.958)" fill="white"/>
<circle cx="43.8403" cy="101.245" r="2.43474" transform="rotate(105 43.8403 101.245)" fill="white"/>
<circle cx="17.8403" cy="126.957" r="2.43474" transform="rotate(105 17.8403 126.957)" fill="white"/>
<circle cx="215.84" cy="76.9575" r="2.43474" transform="rotate(105 215.84 76.9575)" fill="white"/>
<circle cx="-0.478686" cy="153.936" r="2.43474" transform="rotate(90 -0.478686 153.936)" fill="white"/>
<circle cx="246.159" cy="94.2659" r="2.43474" transform="rotate(-90 246.159 94.2659)" fill="white"/>
<circle cx="69.6366" cy="125.831" r="2.43474" transform="rotate(90 69.6366 125.831)" fill="white"/>
<circle cx="176.044" cy="122.37" r="2.43474" transform="rotate(-90 176.044 122.37)" fill="white"/>
<circle cx="105.792" cy="140.99" r="2.43474" transform="rotate(90 105.792 140.99)" fill="white"/>
<circle cx="139.889" cy="107.212" r="2.43474" transform="rotate(-90 139.889 107.212)" fill="white"/>
<circle cx="51.8387" cy="163.729" r="2.43474" transform="rotate(90 51.8387 163.729)" fill="white"/>
<circle cx="193.842" cy="84.473" r="2.43474" transform="rotate(-90 193.842 84.473)" fill="white"/>
<circle cx="167.056" cy="173.843" r="2.43474" transform="rotate(-75 167.056 173.843)" fill="white"/>
<circle cx="78.6245" cy="74.3583" r="2.43474" transform="rotate(105 78.6245 74.3583)" fill="white"/>
<circle cx="97.1004" cy="240.753" r="2.43474" transform="rotate(90 97.1004 240.753)" fill="white"/>
<circle cx="148.58" cy="7.44856" r="2.43474" transform="rotate(-90 148.58 7.44856)" fill="white"/>
<circle cx="158.84" cy="132.958" r="2.43474" transform="rotate(-75 158.84 132.958)" fill="white"/>
<circle cx="86.8403" cy="115.245" r="2.43474" transform="rotate(105 86.8403 115.245)" fill="white"/>
<circle cx="102.84" cy="199.487" r="2.43474" transform="rotate(-75 102.84 199.487)" fill="white"/>
<circle cx="142.84" cy="48.7143" r="2.43474" transform="rotate(105 142.84 48.7143)" fill="white"/>
<circle cx="152.491" cy="199.362" r="2.43474" transform="rotate(90 152.491 199.362)" fill="white"/>
<circle cx="93.1896" cy="48.8392" r="2.43474" transform="rotate(-90 93.1896 48.8392)" fill="white"/>
<circle cx="185.203" cy="196.665" r="1.52171" transform="rotate(-75 185.203 196.665)" fill="white"/>
<circle cx="60.4781" cy="51.5369" r="1.52171" transform="rotate(105 60.4781 51.5369)" fill="white"/>
<circle cx="73.6658" cy="223.406" r="1.52171" transform="rotate(90 73.6658 223.406)" fill="white"/>
<circle cx="172.015" cy="24.7962" r="1.52171" transform="rotate(-90 172.015 24.7962)" fill="white"/>
<circle cx="226.657" cy="154.839" r="1.52171" transform="rotate(-75 226.657 154.839)" fill="white"/>
<circle cx="19.024" cy="93.3626" r="1.52171" transform="rotate(105 19.024 93.3626)" fill="white"/>
<circle cx="243.722" cy="143.84" r="1.52171" transform="rotate(-75 243.722 143.84)" fill="white"/>
<circle cx="1.95856" cy="104.363" r="1.52171" transform="rotate(105 1.95856 104.363)" fill="white"/>
<circle cx="230.539" cy="187.388" r="1.52171" transform="rotate(-75 230.539 187.388)" fill="white"/>
<circle cx="15.1421" cy="60.8143" r="1.52171" transform="rotate(105 15.1421 60.8143)" fill="white"/>
<circle cx="32.2752" cy="244.101" r="1.52171" transform="rotate(90 32.2752 244.101)" fill="white"/>
<circle cx="213.406" cy="4.10085" r="1.52171" transform="rotate(-90 213.406 4.10085)" fill="white"/>
<circle cx="4.88454" cy="239.232" r="1.52171" transform="rotate(90 4.88454 239.232)" fill="white"/>
<circle cx="240.796" cy="8.96999" r="1.52171" transform="rotate(-90 240.796 8.96999)" fill="white"/>
<circle cx="176.722" cy="137.84" r="1.52171" transform="rotate(-75 176.722 137.84)" fill="white"/>
<circle cx="68.9586" cy="110.363" r="1.52171" transform="rotate(105 68.9586 110.363)" fill="white"/>
<circle cx="168.722" cy="143.84" r="1.52171" transform="rotate(-75 168.722 143.84)" fill="white"/>
<circle cx="76.9586" cy="104.363" r="1.52171" transform="rotate(105 76.9586 104.363)" fill="white"/>
<circle cx="209.722" cy="191.84" r="1.52171" transform="rotate(-75 209.722 191.84)" fill="white"/>
<circle cx="35.9586" cy="56.3626" r="1.52171" transform="rotate(105 35.9586 56.3626)" fill="white"/>
<circle cx="51.2302" cy="234.413" r="1.52171" transform="rotate(90 51.2302 234.413)" fill="white"/>
<circle cx="194.45" cy="13.7888" r="1.52171" transform="rotate(-90 194.45 13.7888)" fill="white"/>
<circle cx="159.722" cy="177.84" r="1.52171" transform="rotate(-75 159.722 177.84)" fill="white"/>
<circle cx="85.9586" cy="70.3626" r="1.52171" transform="rotate(105 85.9586 70.3626)" fill="white"/>
<circle cx="103.15" cy="234.995" r="1.52171" transform="rotate(90 103.15 234.995)" fill="white"/>
<circle cx="142.531" cy="13.2068" r="1.52171" transform="rotate(-90 142.531 13.2068)" fill="white"/>
<circle cx="63.3181" cy="155.842" r="1.52171" transform="rotate(90 63.3181 155.842)" fill="white"/>
<circle cx="182.363" cy="92.3596" r="1.52171" transform="rotate(-90 182.363 92.3596)" fill="white"/>
<circle cx="188.848" cy="164.243" r="1.52171" transform="rotate(-75 188.848 164.243)" fill="white"/>
<circle cx="56.8326" cy="83.9588" r="1.52171" transform="rotate(105 56.8326 83.9588)" fill="white"/>
<circle cx="130.047" cy="219.066" r="1.52171" transform="rotate(-75 130.047 219.066)" fill="white"/>
<circle cx="115.633" cy="29.1366" r="1.52171" transform="rotate(105 115.633 29.1366)" fill="white"/>
<circle cx="121.143" cy="187.493" r="1.52171" transform="rotate(90 121.143 187.493)" fill="white"/>
<circle cx="124.537" cy="60.7088" r="1.52171" transform="rotate(-90 124.537 60.7088)" fill="white"/>
<circle cx="159.722" cy="241.84" r="1.52171" transform="rotate(-75 159.722 241.84)" fill="white"/>
<circle cx="85.9586" cy="6.36263" r="1.52171" transform="rotate(105 85.9586 6.36263)" fill="white"/>
<circle cx="86.5857" cy="173.176" r="1.52171" transform="rotate(90 86.5857 173.176)" fill="white"/>
<circle cx="159.095" cy="75.0261" r="1.52171" transform="rotate(-90 159.095 75.0261)" fill="white"/>
<circle cx="33.3801" cy="121.497" r="1.52171" transform="rotate(-90 33.3801 121.497)" fill="white"/>
<circle cx="240.38" cy="119.497" r="1.52171" transform="rotate(-90 240.38 119.497)" fill="white"/>
<circle cx="34.698" cy="145.668" r="1.52171" transform="rotate(90 34.698 145.668)" fill="white"/>
<circle cx="210.983" cy="102.534" r="1.52171" transform="rotate(-90 210.983 102.534)" fill="white"/>
<circle cx="5.85915" cy="161.678" r="1.52171" transform="rotate(90 5.85915 161.678)" fill="white"/>
<circle cx="239.822" cy="86.5242" r="1.52171" transform="rotate(-90 239.822 86.5242)" fill="white"/>
<circle cx="182.722" cy="222.84" r="1.52171" transform="rotate(-75 182.722 222.84)" fill="white"/>
<circle cx="62.9586" cy="25.3626" r="1.52171" transform="rotate(105 62.9586 25.3626)" fill="white"/>
<circle cx="69.2869" cy="197.481" r="1.52171" transform="rotate(90 69.2869 197.481)" fill="white"/>
<circle cx="176.394" cy="50.7205" r="1.52171" transform="rotate(-90 176.394 50.7205)" fill="white"/>
<circle cx="132.722" cy="153.84" r="1.52171" transform="rotate(-75 132.722 153.84)" fill="white"/>
<circle cx="112.959" cy="94.3626" r="1.52171" transform="rotate(105 112.959 94.3626)" fill="white"/>
<circle cx="225.444" cy="218.16" r="1.52171" transform="rotate(-75 225.444 218.16)" fill="white"/>
<circle cx="20.2369" cy="30.0413" r="1.52171" transform="rotate(105 20.2369 30.0413)" fill="white"/>
<circle cx="29.2322" cy="213.058" r="1.52171" transform="rotate(90 29.2322 213.058)" fill="white"/>
<circle cx="216.448" cy="35.1438" r="1.52171" transform="rotate(-90 216.448 35.1438)" fill="white"/>
<circle cx="180.722" cy="233.84" r="1.52171" transform="rotate(-75 180.722 233.84)" fill="white"/>
<circle cx="64.9586" cy="14.3626" r="1.52171" transform="rotate(105 64.9586 14.3626)" fill="white"/>
<circle cx="68.3718" cy="186.339" r="1.52171" transform="rotate(90 68.3718 186.339)" fill="white"/>
<circle cx="177.309" cy="61.8635" r="1.52171" transform="rotate(-90 177.309 61.8635)" fill="white"/>
</g>
</svg>
