<svg width="394" height="92" viewBox="0 0 394 92" fill="none" xmlns="http://www.w3.org/2000/svg">
<path d="M1.55333 91.0605C1.3734 81.8839 6.51949 63.5308 28.5433 63.5308C50.5671 63.5308 55.3533 81.1642 54.9935 89.9809" stroke="#00B7FF" stroke-width="3"/>
<path d="M46.8961 71.6279C46.7162 62.4513 51.8623 44.0981 73.8861 44.0981C95.9099 44.0981 100.696 61.7316 100.336 70.5483" stroke="#00B7FF" stroke-width="3"/>
<path d="M144.06 48.9565C143.88 39.7799 149.026 21.4268 171.05 21.4268C193.074 21.4268 197.86 39.0602 197.5 47.8769" stroke="#00B7FF" stroke-width="3"/>
<path d="M225.03 62.9912C224.85 53.8146 229.996 35.4614 252.02 35.4614C274.044 35.4614 278.83 53.0949 278.47 61.9116" stroke="#00B7FF" stroke-width="3"/>
<path d="M311.398 29.5234C311.218 20.3468 316.364 1.99365 338.388 1.99365C360.412 1.99365 365.198 19.6271 364.838 28.4438" stroke="#00B7FF" stroke-width="3"/>
<path d="M338.388 57.5933C338.208 48.4167 343.354 30.0635 365.378 30.0635C387.402 30.0635 392.188 47.6969 391.828 56.5137" stroke="#00B7FF" stroke-width="3"/>
</svg>
