<svg width="421" height="91" viewBox="0 0 421 91" fill="none" xmlns="http://www.w3.org/2000/svg">
<path d="M1.64122 29.8867C1.46129 20.7101 6.60738 2.35693 28.6312 2.35693C50.655 2.35693 55.4412 19.9904 55.0814 28.8071" stroke="#00B7FF" stroke-width="3"/>
<path d="M67.4967 76.3096C67.3168 67.133 72.4628 48.7798 94.4867 48.7798C116.51 48.7798 121.297 66.4132 120.937 75.23" stroke="#00B7FF" stroke-width="3"/>
<path d="M197.048 66.5933C196.869 57.4167 202.015 39.0635 224.038 39.0635C246.062 39.0635 250.848 56.6969 250.489 65.5137" stroke="#00B7FF" stroke-width="3"/>
<path d="M365.465 66.5933C365.286 57.4167 370.432 39.0635 392.455 39.0635C414.479 39.0635 419.265 56.6969 418.906 65.5137" stroke="#00B7FF" stroke-width="3"/>
<path d="M326.6 90.3447C326.42 81.1681 331.566 62.8149 353.59 62.8149C375.614 62.8149 380.4 80.4484 380.04 89.2651" stroke="#00B7FF" stroke-width="3"/>
</svg>
