<svg width="199" height="291" viewBox="0 0 199 291" fill="none" xmlns="http://www.w3.org/2000/svg">
<path fill-rule="evenodd" clip-rule="evenodd" d="M59.235 50.4667C53.5111 58.9346 43.821 64.5015 32.8306 64.5015C15.2413 64.5015 0.982422 50.2426 0.982422 32.6533C0.982422 15.0641 15.2413 0.805176 32.8306 0.805176C43.821 0.805176 53.5111 6.3721 59.235 14.84L182.049 14.84C191.162 14.84 198.549 22.2273 198.549 31.34V33.9667C198.549 43.0794 191.162 50.4667 182.049 50.4667L124.541 50.4667L124.541 290.392H110.617L110.617 50.4667L59.235 50.4667Z" fill="#232323"/>
<mask id="mask0_55_23387" style="mask-type:alpha" maskUnits="userSpaceOnUse" x="0" y="0" width="199" height="291">
<path fill-rule="evenodd" clip-rule="evenodd" d="M59.235 50.4667C53.5111 58.9346 43.821 64.5015 32.8306 64.5015C15.2413 64.5015 0.982422 50.2426 0.982422 32.6533C0.982422 15.0641 15.2413 0.805176 32.8306 0.805176C43.821 0.805176 53.5111 6.3721 59.235 14.84L182.049 14.84C191.162 14.84 198.549 22.2273 198.549 31.34V33.9667C198.549 43.0794 191.162 50.4667 182.049 50.4667L124.541 50.4667L124.541 290.392H110.617L110.617 50.4667L59.235 50.4667Z" fill="#232323"/>
</mask>
<g mask="url(#mask0_55_23387)">
<circle cx="57.2099" cy="185.097" r="2.43474" transform="rotate(15 57.2099 185.097)" fill="white"/>
<circle cx="76.994" cy="113.163" r="2.43474" transform="rotate(180 76.994 113.163)" fill="white"/>
<circle cx="94.0478" cy="233.407" r="2.43474" transform="rotate(15 94.0478 233.407)" fill="white"/>
<circle cx="28.908" cy="76.0325" r="2.43474" transform="rotate(180 28.908 76.0325)" fill="white"/>
<circle cx="0.902173" cy="16.0462" r="2.43474" transform="rotate(180 0.902173 16.0462)" fill="white"/>
<circle cx="83.5732" cy="162.599" r="2.43474" transform="rotate(15 83.5732 162.599)" fill="white"/>
<circle cx="57.3524" cy="141.718" r="2.43474" transform="rotate(180 57.3524 141.718)" fill="white"/>
<circle cx="127.573" cy="224.599" r="2.43474" transform="rotate(15 127.573 224.599)" fill="white"/>
<circle cx="173.286" cy="66.5986" r="2.43474" transform="rotate(-165 173.286 66.5986)" fill="white"/>
<circle cx="-1.19548" cy="93.2181" r="2.43474" transform="rotate(180 -1.19548 93.2181)" fill="white"/>
<circle cx="133.573" cy="283.599" r="2.43474" transform="rotate(15 133.573 283.599)" fill="white"/>
<circle cx="167.286" cy="7.59863" r="2.43474" transform="rotate(-165 167.286 7.59863)" fill="white"/>
<circle cx="147.572" cy="40.5986" r="2.43474" transform="rotate(-165 147.572 40.5986)" fill="white"/>
<circle cx="197.572" cy="238.599" r="2.43474" transform="rotate(-165 197.572 238.599)" fill="white"/>
<circle cx="16.5732" cy="292.599" r="2.43474" transform="rotate(15 16.5732 292.599)" fill="white"/>
<circle cx="88.4227" cy="-1.19402" r="2.43474" transform="rotate(180 88.4227 -1.19402)" fill="white"/>
<circle cx="120.595" cy="22.2796" r="2.43474" transform="rotate(180 120.595 22.2796)" fill="white"/>
<circle cx="180.265" cy="268.918" r="2.43474" fill="white"/>
<circle cx="148.699" cy="92.3949" r="2.43474" transform="rotate(180 148.699 92.3949)" fill="white"/>
<circle cx="152.159" cy="198.802" r="2.43474" fill="white"/>
<circle cx="53.5732" cy="290.599" r="2.43474" transform="rotate(15 53.5732 290.599)" fill="white"/>
<circle cx="53.201" cy="10.3148" r="2.43474" transform="rotate(180 53.201 10.3148)" fill="white"/>
<circle cx="6.57318" cy="155.599" r="2.43474" transform="rotate(15 6.57318 155.599)" fill="white"/>
<circle cx="133.54" cy="128.55" r="2.43474" transform="rotate(180 133.54 128.55)" fill="white"/>
<circle cx="167.319" cy="162.647" r="2.43474" fill="white"/>
<circle cx="106.076" cy="273.179" r="2.43474" transform="rotate(15 106.076 273.179)" fill="white"/>
<circle cx="194.782" cy="18.0186" r="2.43474" transform="rotate(-165 194.782 18.0186)" fill="white"/>
<circle cx="6.99495" cy="40.7298" r="2.43474" transform="rotate(180 6.99495 40.7298)" fill="white"/>
<circle cx="14.5732" cy="213.599" r="2.43474" transform="rotate(15 14.5732 213.599)" fill="white"/>
<circle cx="110.802" cy="74.597" r="2.43474" transform="rotate(180 110.802 74.597)" fill="white"/>
<circle cx="190.058" cy="216.6" r="2.43474" fill="white"/>
<circle cx="100.686" cy="189.814" r="2.43474" transform="rotate(15 100.686 189.814)" fill="white"/>
<circle cx="200.172" cy="101.383" r="2.43474" transform="rotate(-165 200.172 101.383)" fill="white"/>
<circle cx="33.7772" cy="119.859" r="2.43474" transform="rotate(180 33.7772 119.859)" fill="white"/>
<circle cx="141.573" cy="181.599" r="2.43474" transform="rotate(15 141.573 181.599)" fill="white"/>
<circle cx="159.286" cy="109.599" r="2.43474" transform="rotate(-165 159.286 109.599)" fill="white"/>
<circle cx="75.0429" cy="125.599" r="2.43474" transform="rotate(15 75.0429 125.599)" fill="white"/>
<circle cx="75.1678" cy="175.249" r="2.43474" transform="rotate(180 75.1678 175.249)" fill="white"/>
<circle cx="77.8651" cy="207.961" r="1.52171" transform="rotate(15 77.8651 207.961)" fill="white"/>
<circle cx="51.1248" cy="96.4241" r="1.52171" transform="rotate(180 51.1248 96.4241)" fill="white"/>
<circle cx="119.691" cy="249.415" r="1.52171" transform="rotate(15 119.691 249.415)" fill="white"/>
<circle cx="181.168" cy="41.7823" r="1.52171" transform="rotate(-165 181.168 41.7823)" fill="white"/>
<circle cx="-0.00511125" cy="67.2073" r="1.52171" transform="rotate(180 -0.00511125 67.2073)" fill="white"/>
<circle cx="127.691" cy="274.48" r="1.52171" transform="rotate(15 127.691 274.48)" fill="white"/>
<circle cx="173.168" cy="16.7169" r="1.52171" transform="rotate(-165 173.168 16.7169)" fill="white"/>
<circle cx="130.691" cy="266.48" r="1.52171" transform="rotate(15 130.691 266.48)" fill="white"/>
<circle cx="170.168" cy="24.7169" r="1.52171" transform="rotate(-165 170.168 24.7169)" fill="white"/>
<circle cx="156.691" cy="13.4805" r="1.52171" transform="rotate(-165 156.691 13.4805)" fill="white"/>
<circle cx="110.691" cy="288.48" r="1.52171" transform="rotate(15 110.691 288.48)" fill="white"/>
<circle cx="190.168" cy="2.71686" r="1.52171" transform="rotate(-165 190.168 2.71686)" fill="white"/>
<circle cx="87.1424" cy="253.297" r="1.52171" transform="rotate(15 87.1424 253.297)" fill="white"/>
<circle cx="30.4295" cy="55.0335" r="1.52171" transform="rotate(180 30.4295 55.0335)" fill="white"/>
<circle cx="75.3504" cy="278.494" r="1.52171" transform="rotate(15 75.3504 278.494)" fill="white"/>
<circle cx="35.2986" cy="27.6428" r="1.52171" transform="rotate(180 35.2986 27.6428)" fill="white"/>
<circle cx="14.6033" cy="-0.357162" r="1.52171" transform="rotate(180 14.6033 -0.357162)" fill="white"/>
<circle cx="136.691" cy="199.48" r="1.52171" transform="rotate(15 136.691 199.48)" fill="white"/>
<circle cx="164.168" cy="91.7169" r="1.52171" transform="rotate(-165 164.168 91.7169)" fill="white"/>
<circle cx="130.691" cy="191.48" r="1.52171" transform="rotate(15 130.691 191.48)" fill="white"/>
<circle cx="170.168" cy="99.7169" r="1.52171" transform="rotate(-165 170.168 99.7169)" fill="white"/>
<circle cx="4.36403" cy="126.015" r="1.52171" transform="rotate(180 4.36403 126.015)" fill="white"/>
<circle cx="82.6912" cy="232.48" r="1.52171" transform="rotate(15 82.6912 232.48)" fill="white"/>
<circle cx="40.117" cy="73.9885" r="1.52171" transform="rotate(180 40.117 73.9885)" fill="white"/>
<circle cx="96.6912" cy="182.48" r="1.52171" transform="rotate(15 96.6912 182.48)" fill="white"/>
<circle cx="39.5349" cy="125.908" r="1.52171" transform="rotate(180 39.5349 125.908)" fill="white"/>
<circle cx="9.92562" cy="200.469" r="1.52171" transform="rotate(15 9.92562 200.469)" fill="white"/>
<circle cx="118.688" cy="86.0764" r="1.52171" transform="rotate(180 118.688 86.0764)" fill="white"/>
<circle cx="182.17" cy="205.121" r="1.52171" fill="white"/>
<circle cx="110.287" cy="211.606" r="1.52171" transform="rotate(15 110.287 211.606)" fill="white"/>
<circle cx="190.571" cy="79.5909" r="1.52171" transform="rotate(-165 190.571 79.5909)" fill="white"/>
<circle cx="18.864" cy="101.294" r="1.52171" transform="rotate(180 18.864 101.294)" fill="white"/>
<circle cx="55.4647" cy="152.806" r="1.52171" transform="rotate(15 55.4647 152.806)" fill="white"/>
<circle cx="87.0369" cy="143.902" r="1.52171" transform="rotate(180 87.0369 143.902)" fill="white"/>
<circle cx="32.6912" cy="182.48" r="1.52171" transform="rotate(15 32.6912 182.48)" fill="white"/>
<circle cx="101.354" cy="109.344" r="1.52171" transform="rotate(180 101.354 109.344)" fill="white"/>
<circle cx="199.504" cy="181.853" r="1.52171" fill="white"/>
<circle cx="29.6912" cy="273.48" r="1.52171" transform="rotate(15 29.6912 273.48)" fill="white"/>
<circle cx="80.7" cy="20.6682" r="1.52171" transform="rotate(180 80.7 20.6682)" fill="white"/>
<circle cx="0.691248" cy="282.48" r="1.52171" transform="rotate(15 0.691248 282.48)" fill="white"/>
<circle cx="106.382" cy="4.46901" r="1.52171" transform="rotate(180 106.382 4.46901)" fill="white"/>
<circle cx="194.477" cy="286.728" r="1.52171" fill="white"/>
<circle cx="153.033" cy="56.1384" r="1.52171" fill="white"/>
<circle cx="155.033" cy="263.138" r="1.52171" fill="white"/>
<circle cx="128.862" cy="57.4563" r="1.52171" transform="rotate(180 128.862 57.4563)" fill="white"/>
<circle cx="171.996" cy="233.741" r="1.52171" fill="white"/>
<circle cx="0.691248" cy="257.48" r="1.52171" transform="rotate(15 0.691248 257.48)" fill="white"/>
<circle cx="112.852" cy="28.6174" r="1.52171" transform="rotate(180 112.852 28.6174)" fill="white"/>
<circle cx="188.006" cy="262.58" r="1.52171" fill="white"/>
<circle cx="59.9988" cy="1.36842" r="1.52171" transform="rotate(180 59.9988 1.36842)" fill="white"/>
<circle cx="51.6912" cy="205.48" r="1.52171" transform="rotate(15 51.6912 205.48)" fill="white"/>
<circle cx="77.0486" cy="92.0452" r="1.52171" transform="rotate(180 77.0486 92.0452)" fill="white"/>
<circle cx="120.691" cy="155.48" r="1.52171" transform="rotate(15 120.691 155.48)" fill="white"/>
<circle cx="180.168" cy="135.717" r="1.52171" transform="rotate(-165 180.168 135.717)" fill="white"/>
<circle cx="23.3406" cy="158.2" r="1.52171" transform="rotate(180 23.3406 158.2)" fill="white"/>
<circle cx="56.37" cy="248.202" r="1.52171" transform="rotate(15 56.37 248.202)" fill="white"/>
<circle cx="61.4724" cy="51.9905" r="1.52171" transform="rotate(180 61.4724 51.9905)" fill="white"/>
<circle cx="40.6912" cy="203.48" r="1.52171" transform="rotate(15 40.6912 203.48)" fill="white"/>
<circle cx="88.1922" cy="91.1301" r="1.52171" transform="rotate(180 88.1922 91.1301)" fill="white"/>
</g>
</svg>
