<svg width="199" height="286" viewBox="0 0 199 286" fill="none" xmlns="http://www.w3.org/2000/svg">
<mask id="path-1-inside-1_55_23193" fill="white">
<path fill-rule="evenodd" clip-rule="evenodd" d="M59.2135 50.1591C53.4896 58.627 43.7995 64.1939 32.8091 64.1939C15.2198 64.1939 0.960937 49.935 0.960937 32.3457C0.960937 14.7565 15.2198 0.497559 32.8091 0.497559C43.7995 0.497559 53.4896 6.06448 59.2135 14.5323L182.028 14.5323C191.14 14.5323 198.528 21.9197 198.528 31.0323V33.6591C198.528 42.7718 191.14 50.1591 182.028 50.1591L125.115 50.1591L125.115 285.953H110L110 50.1591L59.2135 50.1591Z"/>
</mask>
<path d="M59.2135 50.1591V47.1591H57.6203L56.7281 48.4791L59.2135 50.1591ZM59.2135 14.5323L56.7281 16.2124L57.6203 17.5323H59.2135V14.5323ZM125.115 50.1591V47.1591H122.115L122.115 50.1591L125.115 50.1591ZM125.115 285.953V288.953H128.115L128.115 285.953L125.115 285.953ZM110 285.953L107 285.953L107 288.953H110V285.953ZM110 50.1591L113 50.1591L113 47.1591L110 47.1591V50.1591ZM56.7281 48.4791C51.5383 56.1568 42.7614 61.1939 32.8091 61.1939V67.1939C44.8375 67.1939 55.4409 61.0972 61.699 51.8392L56.7281 48.4791ZM32.8091 61.1939C16.8767 61.1939 3.96094 48.2781 3.96094 32.3457H-2.03906C-2.03906 51.5918 13.563 67.1939 32.8091 67.1939V61.1939ZM3.96094 32.3457C3.96094 16.4133 16.8767 3.49756 32.8091 3.49756V-2.50244C13.563 -2.50244 -2.03906 13.0996 -2.03906 32.3457H3.96094ZM32.8091 3.49756C42.7614 3.49756 51.5383 8.53468 56.7281 16.2124L61.699 12.8523C55.4409 3.59429 44.8375 -2.50244 32.8091 -2.50244V3.49756ZM182.028 11.5323L59.2135 11.5323V17.5323L182.028 17.5323V11.5323ZM201.528 31.0323C201.528 20.2628 192.797 11.5323 182.028 11.5323V17.5323C189.484 17.5323 195.528 23.5765 195.528 31.0323H201.528ZM201.528 33.6591V31.0323H195.528V33.6591L201.528 33.6591ZM182.028 53.1591C192.797 53.1591 201.528 44.4287 201.528 33.6591L195.528 33.6591C195.528 41.115 189.484 47.1591 182.028 47.1591V53.1591ZM125.115 53.1591L182.028 53.1591V47.1591L125.115 47.1591V53.1591ZM128.115 285.953L128.115 50.1591L122.115 50.1591L122.115 285.953L128.115 285.953ZM110 288.953H125.115V282.953H110V288.953ZM107 50.1591L107 285.953L113 285.953L113 50.1591L107 50.1591ZM59.2135 53.1591L110 53.1591V47.1591L59.2135 47.1591V53.1591Z" fill="#00B7FF" mask="url(#path-1-inside-1_55_23193)"/>
</svg>
