<svg width="1151" height="297" viewBox="0 0 1151 297" fill="none" xmlns="http://www.w3.org/2000/svg">
<mask id="path-1-inside-1_55_23175" fill="white">
<path fill-rule="evenodd" clip-rule="evenodd" d="M1150.61 148.252C1150.61 66.4798 893.231 0.189941 575.744 0.189941C258.257 0.189941 0.882812 66.4798 0.882812 148.252L0.882812 296.315L575.48 296.315C575.568 296.315 575.656 296.315 575.744 296.315C575.832 296.315 575.92 296.315 576.008 296.315L1150.61 296.315V148.252Z"/>
</mask>
<path d="M0.882812 296.315H-2.11719L-2.11719 299.315H0.882812L0.882812 296.315ZM576.008 296.315V299.315V296.315ZM1150.61 296.315V299.315H1153.61V296.315H1150.61ZM575.744 3.18994C734.311 3.18994 877.763 19.7469 981.484 46.4616C1033.37 59.8248 1075.14 75.6872 1103.87 93.1821C1132.78 110.784 1147.61 129.481 1147.61 148.252L1153.61 148.252C1153.61 126.138 1136.26 105.883 1106.99 88.0575C1077.54 70.1245 1035.13 54.0821 982.981 40.6512C878.643 13.7778 734.665 -2.81006 575.744 -2.81006V3.18994ZM3.88281 148.252C3.88281 129.481 18.7124 110.784 47.6186 93.1821C76.3484 75.6872 118.121 59.8248 170.004 46.4616C273.725 19.7469 417.177 3.18994 575.744 3.18994V-2.81006C416.824 -2.81006 272.845 13.7778 168.508 40.6512C116.361 54.0821 73.9473 70.1245 44.498 88.0575C15.225 105.883 -2.11719 126.138 -2.11719 148.252H3.88281ZM3.88281 296.315L3.88281 148.252H-2.11719L-2.11719 296.315H3.88281ZM575.48 293.315L0.882812 293.315L0.882812 299.315L575.48 299.315V293.315ZM575.744 293.315C575.744 293.315 575.744 293.315 575.744 293.315C575.744 293.315 575.743 293.315 575.743 293.315C575.743 293.315 575.743 293.315 575.743 293.315C575.742 293.315 575.742 293.315 575.742 293.315C575.742 293.315 575.742 293.315 575.742 293.315C575.741 293.315 575.741 293.315 575.741 293.315C575.741 293.315 575.741 293.315 575.741 293.315C575.74 293.315 575.74 293.315 575.74 293.315C575.74 293.315 575.74 293.315 575.74 293.315C575.739 293.315 575.739 293.315 575.739 293.315C575.739 293.315 575.739 293.315 575.739 293.315C575.738 293.315 575.738 293.315 575.738 293.315C575.738 293.315 575.738 293.315 575.738 293.315C575.737 293.315 575.737 293.315 575.737 293.315C575.737 293.315 575.737 293.315 575.736 293.315C575.736 293.315 575.736 293.315 575.736 293.315C575.736 293.315 575.736 293.315 575.735 293.315C575.735 293.315 575.735 293.315 575.735 293.315C575.735 293.315 575.735 293.315 575.734 293.315C575.734 293.315 575.734 293.315 575.734 293.315C575.734 293.315 575.734 293.315 575.733 293.315C575.733 293.315 575.733 293.315 575.733 293.315C575.733 293.315 575.733 293.315 575.732 293.315C575.732 293.315 575.732 293.315 575.732 293.315C575.732 293.315 575.731 293.315 575.731 293.315C575.731 293.315 575.731 293.315 575.731 293.315C575.731 293.315 575.73 293.315 575.73 293.315C575.73 293.315 575.73 293.315 575.73 293.315C575.73 293.315 575.729 293.315 575.729 293.315C575.729 293.315 575.729 293.315 575.729 293.315C575.729 293.315 575.728 293.315 575.728 293.315C575.728 293.315 575.728 293.315 575.728 293.315C575.728 293.315 575.727 293.315 575.727 293.315C575.727 293.315 575.727 293.315 575.727 293.315C575.727 293.315 575.726 293.315 575.726 293.315C575.726 293.315 575.726 293.315 575.726 293.315C575.725 293.315 575.725 293.315 575.725 293.315C575.725 293.315 575.725 293.315 575.725 293.315C575.724 293.315 575.724 293.315 575.724 293.315C575.724 293.315 575.724 293.315 575.724 293.315C575.723 293.315 575.723 293.315 575.723 293.315C575.723 293.315 575.723 293.315 575.723 293.315C575.722 293.315 575.722 293.315 575.722 293.315C575.722 293.315 575.722 293.315 575.722 293.315C575.721 293.315 575.721 293.315 575.721 293.315C575.721 293.315 575.721 293.315 575.72 293.315C575.72 293.315 575.72 293.315 575.72 293.315C575.72 293.315 575.72 293.315 575.719 293.315C575.719 293.315 575.719 293.315 575.719 293.315C575.719 293.315 575.719 293.315 575.718 293.315C575.718 293.315 575.718 293.315 575.718 293.315C575.718 293.315 575.718 293.315 575.717 293.315C575.717 293.315 575.717 293.315 575.717 293.315C575.717 293.315 575.717 293.315 575.716 293.315C575.716 293.315 575.716 293.315 575.716 293.315C575.716 293.315 575.716 293.315 575.715 293.315C575.715 293.315 575.715 293.315 575.715 293.315C575.715 293.315 575.714 293.315 575.714 293.315C575.714 293.315 575.714 293.315 575.714 293.315C575.714 293.315 575.713 293.315 575.713 293.315C575.713 293.315 575.713 293.315 575.713 293.315C575.713 293.315 575.712 293.315 575.712 293.315C575.712 293.315 575.712 293.315 575.712 293.315C575.712 293.315 575.711 293.315 575.711 293.315C575.711 293.315 575.711 293.315 575.711 293.315C575.711 293.315 575.71 293.315 575.71 293.315C575.71 293.315 575.71 293.315 575.71 293.315C575.71 293.315 575.709 293.315 575.709 293.315C575.709 293.315 575.709 293.315 575.709 293.315C575.708 293.315 575.708 293.315 575.708 293.315C575.708 293.315 575.708 293.315 575.708 293.315C575.707 293.315 575.707 293.315 575.707 293.315C575.707 293.315 575.707 293.315 575.707 293.315C575.706 293.315 575.706 293.315 575.706 293.315C575.706 293.315 575.706 293.315 575.706 293.315C575.705 293.315 575.705 293.315 575.705 293.315C575.705 293.315 575.705 293.315 575.705 293.315C575.704 293.315 575.704 293.315 575.704 293.315C575.704 293.315 575.704 293.315 575.703 293.315C575.703 293.315 575.703 293.315 575.703 293.315C575.703 293.315 575.703 293.315 575.702 293.315C575.702 293.315 575.702 293.315 575.702 293.315C575.702 293.315 575.702 293.315 575.701 293.315C575.701 293.315 575.701 293.315 575.701 293.315C575.701 293.315 575.701 293.315 575.7 293.315C575.7 293.315 575.7 293.315 575.7 293.315C575.7 293.315 575.7 293.315 575.699 293.315C575.699 293.315 575.699 293.315 575.699 293.315C575.699 293.315 575.699 293.315 575.698 293.315C575.698 293.315 575.698 293.315 575.698 293.315C575.698 293.315 575.697 293.315 575.697 293.315C575.697 293.315 575.697 293.315 575.697 293.315C575.697 293.315 575.696 293.315 575.696 293.315C575.696 293.315 575.696 293.315 575.696 293.315C575.696 293.315 575.695 293.315 575.695 293.315C575.695 293.315 575.695 293.315 575.695 293.315C575.695 293.315 575.694 293.315 575.694 293.315C575.694 293.315 575.694 293.315 575.694 293.315C575.694 293.315 575.693 293.315 575.693 293.315C575.693 293.315 575.693 293.315 575.693 293.315C575.692 293.315 575.692 293.315 575.692 293.315C575.692 293.315 575.692 293.315 575.692 293.315C575.691 293.315 575.691 293.315 575.691 293.315C575.691 293.315 575.691 293.315 575.691 293.315C575.69 293.315 575.69 293.315 575.69 293.315C575.69 293.315 575.69 293.315 575.69 293.315C575.689 293.315 575.689 293.315 575.689 293.315C575.689 293.315 575.689 293.315 575.689 293.315C575.688 293.315 575.688 293.315 575.688 293.315C575.688 293.315 575.688 293.315 575.688 293.315C575.687 293.315 575.687 293.315 575.687 293.315C575.687 293.315 575.687 293.315 575.686 293.315C575.686 293.315 575.686 293.315 575.686 293.315C575.686 293.315 575.686 293.315 575.685 293.315C575.685 293.315 575.685 293.315 575.685 293.315C575.685 293.315 575.685 293.315 575.684 293.315C575.684 293.315 575.684 293.315 575.684 293.315C575.684 293.315 575.684 293.315 575.683 293.315C575.683 293.315 575.683 293.315 575.683 293.315C575.683 293.315 575.683 293.315 575.682 293.315C575.682 293.315 575.682 293.315 575.682 293.315C575.682 293.315 575.682 293.315 575.681 293.315C575.681 293.315 575.681 293.315 575.681 293.315C575.681 293.315 575.68 293.315 575.68 293.315C575.68 293.315 575.68 293.315 575.68 293.315C575.68 293.315 575.679 293.315 575.679 293.315C575.679 293.315 575.679 293.315 575.679 293.315C575.679 293.315 575.678 293.315 575.678 293.315C575.678 293.315 575.678 293.315 575.678 293.315C575.678 293.315 575.677 293.315 575.677 293.315C575.677 293.315 575.677 293.315 575.677 293.315C575.677 293.315 575.676 293.315 575.676 293.315C575.676 293.315 575.676 293.315 575.676 293.315C575.675 293.315 575.675 293.315 575.675 293.315C575.675 293.315 575.675 293.315 575.675 293.315C575.674 293.315 575.674 293.315 575.674 293.315C575.674 293.315 575.674 293.315 575.674 293.315C575.673 293.315 575.673 293.315 575.673 293.315C575.673 293.315 575.673 293.315 575.673 293.315C575.672 293.315 575.672 293.315 575.672 293.315C575.672 293.315 575.672 293.315 575.672 293.315C575.671 293.315 575.671 293.315 575.671 293.315C575.671 293.315 575.671 293.315 575.671 293.315C575.67 293.315 575.67 293.315 575.67 293.315C575.67 293.315 575.67 293.315 575.669 293.315C575.669 293.315 575.669 293.315 575.669 293.315C575.669 293.315 575.669 293.315 575.668 293.315C575.668 293.315 575.668 293.315 575.668 293.315C575.668 293.315 575.668 293.315 575.667 293.315C575.667 293.315 575.667 293.315 575.667 293.315C575.667 293.315 575.667 293.315 575.666 293.315C575.666 293.315 575.666 293.315 575.666 293.315C575.666 293.315 575.666 293.315 575.665 293.315C575.665 293.315 575.665 293.315 575.665 293.315C575.665 293.315 575.664 293.315 575.664 293.315C575.664 293.315 575.664 293.315 575.664 293.315C575.664 293.315 575.663 293.315 575.663 293.315C575.663 293.315 575.663 293.315 575.663 293.315C575.663 293.315 575.662 293.315 575.662 293.315C575.662 293.315 575.662 293.315 575.662 293.315C575.662 293.315 575.661 293.315 575.661 293.315C575.661 293.315 575.661 293.315 575.661 293.315C575.661 293.315 575.66 293.315 575.66 293.315C575.66 293.315 575.66 293.315 575.66 293.315C575.66 293.315 575.659 293.315 575.659 293.315C575.659 293.315 575.659 293.315 575.659 293.315C575.658 293.315 575.658 293.315 575.658 293.315C575.658 293.315 575.658 293.315 575.658 293.315C575.657 293.315 575.657 293.315 575.657 293.315C575.657 293.315 575.657 293.315 575.657 293.315C575.656 293.315 575.656 293.315 575.656 293.315C575.656 293.315 575.656 293.315 575.656 293.315C575.655 293.315 575.655 293.315 575.655 293.315C575.655 293.315 575.655 293.315 575.655 293.315C575.654 293.315 575.654 293.315 575.654 293.315C575.654 293.315 575.654 293.315 575.654 293.315C575.653 293.315 575.653 293.315 575.653 293.315C575.653 293.315 575.653 293.315 575.652 293.315C575.652 293.315 575.652 293.315 575.652 293.315C575.652 293.315 575.652 293.315 575.651 293.315C575.651 293.315 575.651 293.315 575.651 293.315C575.651 293.315 575.651 293.315 575.65 293.315C575.65 293.315 575.65 293.315 575.65 293.315C575.65 293.315 575.65 293.315 575.649 293.315C575.649 293.315 575.649 293.315 575.649 293.315C575.649 293.315 575.649 293.315 575.648 293.315C575.648 293.315 575.648 293.315 575.648 293.315C575.648 293.315 575.647 293.315 575.647 293.315C575.647 293.315 575.647 293.315 575.647 293.315C575.647 293.315 575.646 293.315 575.646 293.315C575.646 293.315 575.646 293.315 575.646 293.315C575.646 293.315 575.645 293.315 575.645 293.315C575.645 293.315 575.645 293.315 575.645 293.315C575.645 293.315 575.644 293.315 575.644 293.315C575.644 293.315 575.644 293.315 575.644 293.315C575.644 293.315 575.643 293.315 575.643 293.315C575.643 293.315 575.643 293.315 575.643 293.315C575.643 293.315 575.642 293.315 575.642 293.315C575.642 293.315 575.642 293.315 575.642 293.315C575.641 293.315 575.641 293.315 575.641 293.315C575.641 293.315 575.641 293.315 575.641 293.315C575.64 293.315 575.64 293.315 575.64 293.315C575.64 293.315 575.64 293.315 575.64 293.315C575.639 293.315 575.639 293.315 575.639 293.315C575.639 293.315 575.639 293.315 575.639 293.315C575.638 293.315 575.638 293.315 575.638 293.315C575.638 293.315 575.638 293.315 575.638 293.315C575.637 293.315 575.637 293.315 575.637 293.315C575.637 293.315 575.637 293.315 575.636 293.315C575.636 293.315 575.636 293.315 575.636 293.315C575.636 293.315 575.636 293.315 575.635 293.315C575.635 293.315 575.635 293.315 575.635 293.315C575.635 293.315 575.635 293.315 575.634 293.315C575.634 293.315 575.634 293.315 575.634 293.315C575.634 293.315 575.634 293.315 575.633 293.315C575.633 293.315 575.633 293.315 575.633 293.315C575.633 293.315 575.633 293.315 575.632 293.315C575.632 293.315 575.632 293.315 575.632 293.315C575.632 293.315 575.632 293.315 575.631 293.315C575.631 293.315 575.631 293.315 575.631 293.315C575.631 293.315 575.63 293.315 575.63 293.315C575.63 293.315 575.63 293.315 575.63 293.315C575.63 293.315 575.629 293.315 575.629 293.315C575.629 293.315 575.629 293.315 575.629 293.315C575.629 293.315 575.628 293.315 575.628 293.315C575.628 293.315 575.628 293.315 575.628 293.315C575.628 293.315 575.627 293.315 575.627 293.315C575.627 293.315 575.627 293.315 575.627 293.315C575.627 293.315 575.626 293.315 575.626 293.315C575.626 293.315 575.626 293.315 575.626 293.315C575.626 293.315 575.625 293.315 575.625 293.315C575.625 293.315 575.625 293.315 575.625 293.315C575.624 293.315 575.624 293.315 575.624 293.315C575.624 293.315 575.624 293.315 575.624 293.315C575.623 293.315 575.623 293.315 575.623 293.315C575.623 293.315 575.623 293.315 575.623 293.315C575.622 293.315 575.622 293.315 575.622 293.315C575.622 293.315 575.622 293.315 575.622 293.315C575.621 293.315 575.621 293.315 575.621 293.315C575.621 293.315 575.621 293.315 575.621 293.315C575.62 293.315 575.62 293.315 575.62 293.315C575.62 293.315 575.62 293.315 575.619 293.315C575.619 293.315 575.619 293.315 575.619 293.315C575.619 293.315 575.619 293.315 575.618 293.315C575.618 293.315 575.618 293.315 575.618 293.315C575.618 293.315 575.618 293.315 575.617 293.315C575.617 293.315 575.617 293.315 575.617 293.315C575.617 293.315 575.617 293.315 575.616 293.315C575.616 293.315 575.616 293.315 575.616 293.315C575.616 293.315 575.616 293.315 575.615 293.315C575.615 293.315 575.615 293.315 575.615 293.315C575.615 293.315 575.615 293.315 575.614 293.315C575.614 293.315 575.614 293.315 575.614 293.315C575.614 293.315 575.613 293.315 575.613 293.315C575.613 293.315 575.613 293.315 575.613 293.315C575.613 293.315 575.612 293.315 575.612 293.315C575.612 293.315 575.612 293.315 575.612 293.315C575.612 293.315 575.611 293.315 575.611 293.315C575.611 293.315 575.611 293.315 575.611 293.315C575.611 293.315 575.61 293.315 575.61 293.315C575.61 293.315 575.61 293.315 575.61 293.315C575.61 293.315 575.609 293.315 575.609 293.315C575.609 293.315 575.609 293.315 575.609 293.315C575.609 293.315 575.608 293.315 575.608 293.315C575.608 293.315 575.608 293.315 575.608 293.315C575.607 293.315 575.607 293.315 575.607 293.315C575.607 293.315 575.607 293.315 575.607 293.315C575.606 293.315 575.606 293.315 575.606 293.315C575.606 293.315 575.606 293.315 575.606 293.315C575.605 293.315 575.605 293.315 575.605 293.315C575.605 293.315 575.605 293.315 575.605 293.315C575.604 293.315 575.604 293.315 575.604 293.315C575.604 293.315 575.604 293.315 575.604 293.315C575.603 293.315 575.603 293.315 575.603 293.315C575.603 293.315 575.603 293.315 575.602 293.315C575.602 293.315 575.602 293.315 575.602 293.315C575.602 293.315 575.602 293.315 575.601 293.315C575.601 293.315 575.601 293.315 575.601 293.315C575.601 293.315 575.601 293.315 575.6 293.315C575.6 293.315 575.6 293.315 575.6 293.315C575.6 293.315 575.6 293.315 575.599 293.315C575.599 293.315 575.599 293.315 575.599 293.315C575.599 293.315 575.599 293.315 575.598 293.315C575.598 293.315 575.598 293.315 575.598 293.315C575.598 293.315 575.598 293.315 575.597 293.315C575.597 293.315 575.597 293.315 575.597 293.315C575.597 293.315 575.596 293.315 575.596 293.315C575.596 293.315 575.596 293.315 575.596 293.315C575.596 293.315 575.595 293.315 575.595 293.315C575.595 293.315 575.595 293.315 575.595 293.315C575.595 293.315 575.594 293.315 575.594 293.315C575.594 293.315 575.594 293.315 575.594 293.315C575.594 293.315 575.593 293.315 575.593 293.315C575.593 293.315 575.593 293.315 575.593 293.315C575.593 293.315 575.592 293.315 575.592 293.315C575.592 293.315 575.592 293.315 575.592 293.315C575.592 293.315 575.591 293.315 575.591 293.315C575.591 293.315 575.591 293.315 575.591 293.315C575.59 293.315 575.59 293.315 575.59 293.315C575.59 293.315 575.59 293.315 575.59 293.315C575.589 293.315 575.589 293.315 575.589 293.315C575.589 293.315 575.589 293.315 575.589 293.315C575.588 293.315 575.588 293.315 575.588 293.315C575.588 293.315 575.588 293.315 575.588 293.315C575.587 293.315 575.587 293.315 575.587 293.315C575.587 293.315 575.587 293.315 575.587 293.315C575.586 293.315 575.586 293.315 575.586 293.315C575.586 293.315 575.586 293.315 575.585 293.315C575.585 293.315 575.585 293.315 575.585 293.315C575.585 293.315 575.585 293.315 575.584 293.315C575.584 293.315 575.584 293.315 575.584 293.315C575.584 293.315 575.584 293.315 575.583 293.315C575.583 293.315 575.583 293.315 575.583 293.315C575.583 293.315 575.583 293.315 575.582 293.315C575.582 293.315 575.582 293.315 575.582 293.315C575.582 293.315 575.582 293.315 575.581 293.315C575.581 293.315 575.581 293.315 575.581 293.315C575.581 293.315 575.581 293.315 575.58 293.315C575.58 293.315 575.58 293.315 575.58 293.315C575.58 293.315 575.579 293.315 575.579 293.315C575.579 293.315 575.579 293.315 575.579 293.315C575.579 293.315 575.578 293.315 575.578 293.315C575.578 293.315 575.578 293.315 575.578 293.315C575.578 293.315 575.577 293.315 575.577 293.315C575.577 293.315 575.577 293.315 575.577 293.315C575.577 293.315 575.576 293.315 575.576 293.315C575.576 293.315 575.576 293.315 575.576 293.315C575.576 293.315 575.575 293.315 575.575 293.315C575.575 293.315 575.575 293.315 575.575 293.315C575.574 293.315 575.574 293.315 575.574 293.315C575.574 293.315 575.574 293.315 575.574 293.315C575.573 293.315 575.573 293.315 575.573 293.315C575.573 293.315 575.573 293.315 575.573 293.315C575.572 293.315 575.572 293.315 575.572 293.315C575.572 293.315 575.572 293.315 575.572 293.315C575.571 293.315 575.571 293.315 575.571 293.315C575.571 293.315 575.571 293.315 575.571 293.315C575.57 293.315 575.57 293.315 575.57 293.315C575.57 293.315 575.57 293.315 575.57 293.315C575.569 293.315 575.569 293.315 575.569 293.315C575.569 293.315 575.569 293.315 575.568 293.315C575.568 293.315 575.568 293.315 575.568 293.315C575.568 293.315 575.568 293.315 575.567 293.315C575.567 293.315 575.567 293.315 575.567 293.315C575.567 293.315 575.567 293.315 575.566 293.315C575.566 293.315 575.566 293.315 575.566 293.315C575.566 293.315 575.566 293.315 575.565 293.315C575.565 293.315 575.565 293.315 575.565 293.315C575.565 293.315 575.565 293.315 575.564 293.315C575.564 293.315 575.564 293.315 575.564 293.315C575.564 293.315 575.564 293.315 575.563 293.315C575.563 293.315 575.563 293.315 575.563 293.315C575.563 293.315 575.562 293.315 575.562 293.315C575.562 293.315 575.562 293.315 575.562 293.315C575.562 293.315 575.561 293.315 575.561 293.315C575.561 293.315 575.561 293.315 575.561 293.315C575.561 293.315 575.56 293.315 575.56 293.315C575.56 293.315 575.56 293.315 575.56 293.315C575.56 293.315 575.559 293.315 575.559 293.315C575.559 293.315 575.559 293.315 575.559 293.315C575.559 293.315 575.558 293.315 575.558 293.315C575.558 293.315 575.558 293.315 575.558 293.315C575.557 293.315 575.557 293.315 575.557 293.315C575.557 293.315 575.557 293.315 575.557 293.315C575.556 293.315 575.556 293.315 575.556 293.315C575.556 293.315 575.556 293.315 575.556 293.315C575.555 293.315 575.555 293.315 575.555 293.315C575.555 293.315 575.555 293.315 575.555 293.315C575.554 293.315 575.554 293.315 575.554 293.315C575.554 293.315 575.554 293.315 575.554 293.315C575.553 293.315 575.553 293.315 575.553 293.315C575.553 293.315 575.553 293.315 575.553 293.315C575.552 293.315 575.552 293.315 575.552 293.315C575.552 293.315 575.552 293.315 575.551 293.315C575.551 293.315 575.551 293.315 575.551 293.315C575.551 293.315 575.551 293.315 575.55 293.315C575.55 293.315 575.55 293.315 575.55 293.315C575.55 293.315 575.55 293.315 575.549 293.315C575.549 293.315 575.549 293.315 575.549 293.315C575.549 293.315 575.549 293.315 575.548 293.315C575.548 293.315 575.548 293.315 575.548 293.315C575.548 293.315 575.548 293.315 575.547 293.315C575.547 293.315 575.547 293.315 575.547 293.315C575.547 293.315 575.547 293.315 575.546 293.315C575.546 293.315 575.546 293.315 575.546 293.315C575.546 293.315 575.545 293.315 575.545 293.315C575.545 293.315 575.545 293.315 575.545 293.315C575.545 293.315 575.544 293.315 575.544 293.315C575.544 293.315 575.544 293.315 575.544 293.315C575.544 293.315 575.543 293.315 575.543 293.315C575.543 293.315 575.543 293.315 575.543 293.315C575.543 293.315 575.542 293.315 575.542 293.315C575.542 293.315 575.542 293.315 575.542 293.315C575.542 293.315 575.541 293.315 575.541 293.315C575.541 293.315 575.541 293.315 575.541 293.315C575.54 293.315 575.54 293.315 575.54 293.315C575.54 293.315 575.54 293.315 575.54 293.315C575.539 293.315 575.539 293.315 575.539 293.315C575.539 293.315 575.539 293.315 575.539 293.315C575.538 293.315 575.538 293.315 575.538 293.315C575.538 293.315 575.538 293.315 575.538 293.315C575.537 293.315 575.537 293.315 575.537 293.315C575.537 293.315 575.537 293.315 575.537 293.315C575.536 293.315 575.536 293.315 575.536 293.315C575.536 293.315 575.536 293.315 575.536 293.315C575.535 293.315 575.535 293.315 575.535 293.315C575.535 293.315 575.535 293.315 575.534 293.315C575.534 293.315 575.534 293.315 575.534 293.315C575.534 293.315 575.534 293.315 575.533 293.315C575.533 293.315 575.533 293.315 575.533 293.315C575.533 293.315 575.533 293.315 575.532 293.315C575.532 293.315 575.532 293.315 575.532 293.315C575.532 293.315 575.532 293.315 575.531 293.315C575.531 293.315 575.531 293.315 575.531 293.315C575.531 293.315 575.531 293.315 575.53 293.315C575.53 293.315 575.53 293.315 575.53 293.315C575.53 293.315 575.53 293.315 575.529 293.315C575.529 293.315 575.529 293.315 575.529 293.315C575.529 293.315 575.528 293.315 575.528 293.315C575.528 293.315 575.528 293.315 575.528 293.315C575.528 293.315 575.527 293.315 575.527 293.315C575.527 293.315 575.527 293.315 575.527 293.315C575.527 293.315 575.526 293.315 575.526 293.315C575.526 293.315 575.526 293.315 575.526 293.315C575.526 293.315 575.525 293.315 575.525 293.315C575.525 293.315 575.525 293.315 575.525 293.315C575.525 293.315 575.524 293.315 575.524 293.315C575.524 293.315 575.524 293.315 575.524 293.315C575.523 293.315 575.523 293.315 575.523 293.315C575.523 293.315 575.523 293.315 575.523 293.315C575.522 293.315 575.522 293.315 575.522 293.315C575.522 293.315 575.522 293.315 575.522 293.315C575.521 293.315 575.521 293.315 575.521 293.315C575.521 293.315 575.521 293.315 575.521 293.315C575.52 293.315 575.52 293.315 575.52 293.315C575.52 293.315 575.52 293.315 575.52 293.315C575.519 293.315 575.519 293.315 575.519 293.315C575.519 293.315 575.519 293.315 575.519 293.315C575.518 293.315 575.518 293.315 575.518 293.315C575.518 293.315 575.518 293.315 575.517 293.315C575.517 293.315 575.517 293.315 575.517 293.315C575.517 293.315 575.517 293.315 575.516 293.315C575.516 293.315 575.516 293.315 575.516 293.315C575.516 293.315 575.516 293.315 575.515 293.315C575.515 293.315 575.515 293.315 575.515 293.315C575.515 293.315 575.515 293.315 575.514 293.315C575.514 293.315 575.514 293.315 575.514 293.315C575.514 293.315 575.514 293.315 575.513 293.315C575.513 293.315 575.513 293.315 575.513 293.315C575.513 293.315 575.513 293.315 575.512 293.315C575.512 293.315 575.512 293.315 575.512 293.315C575.512 293.315 575.511 293.315 575.511 293.315C575.511 293.315 575.511 293.315 575.511 293.315C575.511 293.315 575.51 293.315 575.51 293.315C575.51 293.315 575.51 293.315 575.51 293.315C575.51 293.315 575.509 293.315 575.509 293.315C575.509 293.315 575.509 293.315 575.509 293.315C575.509 293.315 575.508 293.315 575.508 293.315C575.508 293.315 575.508 293.315 575.508 293.315C575.508 293.315 575.507 293.315 575.507 293.315C575.507 293.315 575.507 293.315 575.507 293.315C575.507 293.315 575.506 293.315 575.506 293.315C575.506 293.315 575.506 293.315 575.506 293.315C575.505 293.315 575.505 293.315 575.505 293.315C575.505 293.315 575.505 293.315 575.505 293.315C575.504 293.315 575.504 293.315 575.504 293.315C575.504 293.315 575.504 293.315 575.504 293.315C575.503 293.315 575.503 293.315 575.503 293.315C575.503 293.315 575.503 293.315 575.503 293.315C575.502 293.315 575.502 293.315 575.502 293.315C575.502 293.315 575.502 293.315 575.502 293.315C575.501 293.315 575.501 293.315 575.501 293.315C575.501 293.315 575.501 293.315 575.5 293.315C575.5 293.315 575.5 293.315 575.5 293.315C575.5 293.315 575.5 293.315 575.499 293.315C575.499 293.315 575.499 293.315 575.499 293.315C575.499 293.315 575.499 293.315 575.498 293.315C575.498 293.315 575.498 293.315 575.498 293.315C575.498 293.315 575.498 293.315 575.497 293.315C575.497 293.315 575.497 293.315 575.497 293.315C575.497 293.315 575.497 293.315 575.496 293.315C575.496 293.315 575.496 293.315 575.496 293.315C575.496 293.315 575.496 293.315 575.495 293.315C575.495 293.315 575.495 293.315 575.495 293.315C575.495 293.315 575.494 293.315 575.494 293.315C575.494 293.315 575.494 293.315 575.494 293.315C575.494 293.315 575.493 293.315 575.493 293.315C575.493 293.315 575.493 293.315 575.493 293.315C575.493 293.315 575.492 293.315 575.492 293.315C575.492 293.315 575.492 293.315 575.492 293.315C575.492 293.315 575.491 293.315 575.491 293.315C575.491 293.315 575.491 293.315 575.491 293.315C575.491 293.315 575.49 293.315 575.49 293.315C575.49 293.315 575.49 293.315 575.49 293.315C575.49 293.315 575.489 293.315 575.489 293.315C575.489 293.315 575.489 293.315 575.489 293.315C575.488 293.315 575.488 293.315 575.488 293.315C575.488 293.315 575.488 293.315 575.488 293.315C575.487 293.315 575.487 293.315 575.487 293.315C575.487 293.315 575.487 293.315 575.487 293.315C575.486 293.315 575.486 293.315 575.486 293.315C575.486 293.315 575.486 293.315 575.486 293.315C575.485 293.315 575.485 293.315 575.485 293.315C575.485 293.315 575.485 293.315 575.485 293.315C575.484 293.315 575.484 293.315 575.484 293.315C575.484 293.315 575.484 293.315 575.483 293.315C575.483 293.315 575.483 293.315 575.483 293.315C575.483 293.315 575.483 293.315 575.482 293.315C575.482 293.315 575.482 293.315 575.482 293.315C575.482 293.315 575.482 293.315 575.481 293.315C575.481 293.315 575.481 293.315 575.481 293.315C575.481 293.315 575.481 293.315 575.48 293.315V299.315C575.481 299.315 575.481 299.315 575.481 299.315C575.481 299.315 575.481 299.315 575.481 299.315C575.482 299.315 575.482 299.315 575.482 299.315C575.482 299.315 575.482 299.315 575.482 299.315C575.483 299.315 575.483 299.315 575.483 299.315C575.483 299.315 575.483 299.315 575.483 299.315C575.484 299.315 575.484 299.315 575.484 299.315C575.484 299.315 575.484 299.315 575.485 299.315C575.485 299.315 575.485 299.315 575.485 299.315C575.485 299.315 575.485 299.315 575.486 299.315C575.486 299.315 575.486 299.315 575.486 299.315C575.486 299.315 575.486 299.315 575.487 299.315C575.487 299.315 575.487 299.315 575.487 299.315C575.487 299.315 575.487 299.315 575.488 299.315C575.488 299.315 575.488 299.315 575.488 299.315C575.488 299.315 575.488 299.315 575.489 299.315C575.489 299.315 575.489 299.315 575.489 299.315C575.489 299.315 575.49 299.315 575.49 299.315C575.49 299.315 575.49 299.315 575.49 299.315C575.49 299.315 575.491 299.315 575.491 299.315C575.491 299.315 575.491 299.315 575.491 299.315C575.491 299.315 575.492 299.315 575.492 299.315C575.492 299.315 575.492 299.315 575.492 299.315C575.492 299.315 575.493 299.315 575.493 299.315C575.493 299.315 575.493 299.315 575.493 299.315C575.493 299.315 575.494 299.315 575.494 299.315C575.494 299.315 575.494 299.315 575.494 299.315C575.494 299.315 575.495 299.315 575.495 299.315C575.495 299.315 575.495 299.315 575.495 299.315C575.496 299.315 575.496 299.315 575.496 299.315C575.496 299.315 575.496 299.315 575.496 299.315C575.497 299.315 575.497 299.315 575.497 299.315C575.497 299.315 575.497 299.315 575.497 299.315C575.498 299.315 575.498 299.315 575.498 299.315C575.498 299.315 575.498 299.315 575.498 299.315C575.499 299.315 575.499 299.315 575.499 299.315C575.499 299.315 575.499 299.315 575.499 299.315C575.5 299.315 575.5 299.315 575.5 299.315C575.5 299.315 575.5 299.315 575.5 299.315C575.501 299.315 575.501 299.315 575.501 299.315C575.501 299.315 575.501 299.315 575.502 299.315C575.502 299.315 575.502 299.315 575.502 299.315C575.502 299.315 575.502 299.315 575.503 299.315C575.503 299.315 575.503 299.315 575.503 299.315C575.503 299.315 575.503 299.315 575.504 299.315C575.504 299.315 575.504 299.315 575.504 299.315C575.504 299.315 575.504 299.315 575.505 299.315C575.505 299.315 575.505 299.315 575.505 299.315C575.505 299.315 575.505 299.315 575.506 299.315C575.506 299.315 575.506 299.315 575.506 299.315C575.506 299.315 575.507 299.315 575.507 299.315C575.507 299.315 575.507 299.315 575.507 299.315C575.507 299.315 575.508 299.315 575.508 299.315C575.508 299.315 575.508 299.315 575.508 299.315C575.508 299.315 575.509 299.315 575.509 299.315C575.509 299.315 575.509 299.315 575.509 299.315C575.509 299.315 575.51 299.315 575.51 299.315C575.51 299.315 575.51 299.315 575.51 299.315C575.51 299.315 575.511 299.315 575.511 299.315C575.511 299.315 575.511 299.315 575.511 299.315C575.511 299.315 575.512 299.315 575.512 299.315C575.512 299.315 575.512 299.315 575.512 299.315C575.513 299.315 575.513 299.315 575.513 299.315C575.513 299.315 575.513 299.315 575.513 299.315C575.514 299.315 575.514 299.315 575.514 299.315C575.514 299.315 575.514 299.315 575.514 299.315C575.515 299.315 575.515 299.315 575.515 299.315C575.515 299.315 575.515 299.315 575.515 299.315C575.516 299.315 575.516 299.315 575.516 299.315C575.516 299.315 575.516 299.315 575.516 299.315C575.517 299.315 575.517 299.315 575.517 299.315C575.517 299.315 575.517 299.315 575.517 299.315C575.518 299.315 575.518 299.315 575.518 299.315C575.518 299.315 575.518 299.315 575.519 299.315C575.519 299.315 575.519 299.315 575.519 299.315C575.519 299.315 575.519 299.315 575.52 299.315C575.52 299.315 575.52 299.315 575.52 299.315C575.52 299.315 575.52 299.315 575.521 299.315C575.521 299.315 575.521 299.315 575.521 299.315C575.521 299.315 575.521 299.315 575.522 299.315C575.522 299.315 575.522 299.315 575.522 299.315C575.522 299.315 575.522 299.315 575.523 299.315C575.523 299.315 575.523 299.315 575.523 299.315C575.523 299.315 575.523 299.315 575.524 299.315C575.524 299.315 575.524 299.315 575.524 299.315C575.524 299.315 575.525 299.315 575.525 299.315C575.525 299.315 575.525 299.315 575.525 299.315C575.525 299.315 575.526 299.315 575.526 299.315C575.526 299.315 575.526 299.315 575.526 299.315C575.526 299.315 575.527 299.315 575.527 299.315C575.527 299.315 575.527 299.315 575.527 299.315C575.527 299.315 575.528 299.315 575.528 299.315C575.528 299.315 575.528 299.315 575.528 299.315C575.528 299.315 575.529 299.315 575.529 299.315C575.529 299.315 575.529 299.315 575.529 299.315C575.53 299.315 575.53 299.315 575.53 299.315C575.53 299.315 575.53 299.315 575.53 299.315C575.531 299.315 575.531 299.315 575.531 299.315C575.531 299.315 575.531 299.315 575.531 299.315C575.532 299.315 575.532 299.315 575.532 299.315C575.532 299.315 575.532 299.315 575.532 299.315C575.533 299.315 575.533 299.315 575.533 299.315C575.533 299.315 575.533 299.315 575.533 299.315C575.534 299.315 575.534 299.315 575.534 299.315C575.534 299.315 575.534 299.315 575.534 299.315C575.535 299.315 575.535 299.315 575.535 299.315C575.535 299.315 575.535 299.315 575.536 299.315C575.536 299.315 575.536 299.315 575.536 299.315C575.536 299.315 575.536 299.315 575.537 299.315C575.537 299.315 575.537 299.315 575.537 299.315C575.537 299.315 575.537 299.315 575.538 299.315C575.538 299.315 575.538 299.315 575.538 299.315C575.538 299.315 575.538 299.315 575.539 299.315C575.539 299.315 575.539 299.315 575.539 299.315C575.539 299.315 575.539 299.315 575.54 299.315C575.54 299.315 575.54 299.315 575.54 299.315C575.54 299.315 575.54 299.315 575.541 299.315C575.541 299.315 575.541 299.315 575.541 299.315C575.541 299.315 575.542 299.315 575.542 299.315C575.542 299.315 575.542 299.315 575.542 299.315C575.542 299.315 575.543 299.315 575.543 299.315C575.543 299.315 575.543 299.315 575.543 299.315C575.543 299.315 575.544 299.315 575.544 299.315C575.544 299.315 575.544 299.315 575.544 299.315C575.544 299.315 575.545 299.315 575.545 299.315C575.545 299.315 575.545 299.315 575.545 299.315C575.545 299.315 575.546 299.315 575.546 299.315C575.546 299.315 575.546 299.315 575.546 299.315C575.547 299.315 575.547 299.315 575.547 299.315C575.547 299.315 575.547 299.315 575.547 299.315C575.548 299.315 575.548 299.315 575.548 299.315C575.548 299.315 575.548 299.315 575.548 299.315C575.549 299.315 575.549 299.315 575.549 299.315C575.549 299.315 575.549 299.315 575.549 299.315C575.55 299.315 575.55 299.315 575.55 299.315C575.55 299.315 575.55 299.315 575.55 299.315C575.551 299.315 575.551 299.315 575.551 299.315C575.551 299.315 575.551 299.315 575.551 299.315C575.552 299.315 575.552 299.315 575.552 299.315C575.552 299.315 575.552 299.315 575.553 299.315C575.553 299.315 575.553 299.315 575.553 299.315C575.553 299.315 575.553 299.315 575.554 299.315C575.554 299.315 575.554 299.315 575.554 299.315C575.554 299.315 575.554 299.315 575.555 299.315C575.555 299.315 575.555 299.315 575.555 299.315C575.555 299.315 575.555 299.315 575.556 299.315C575.556 299.315 575.556 299.315 575.556 299.315C575.556 299.315 575.556 299.315 575.557 299.315C575.557 299.315 575.557 299.315 575.557 299.315C575.557 299.315 575.557 299.315 575.558 299.315C575.558 299.315 575.558 299.315 575.558 299.315C575.558 299.315 575.559 299.315 575.559 299.315C575.559 299.315 575.559 299.315 575.559 299.315C575.559 299.315 575.56 299.315 575.56 299.315C575.56 299.315 575.56 299.315 575.56 299.315C575.56 299.315 575.561 299.315 575.561 299.315C575.561 299.315 575.561 299.315 575.561 299.315C575.561 299.315 575.562 299.315 575.562 299.315C575.562 299.315 575.562 299.315 575.562 299.315C575.562 299.315 575.563 299.315 575.563 299.315C575.563 299.315 575.563 299.315 575.563 299.315C575.564 299.315 575.564 299.315 575.564 299.315C575.564 299.315 575.564 299.315 575.564 299.315C575.565 299.315 575.565 299.315 575.565 299.315C575.565 299.315 575.565 299.315 575.565 299.315C575.566 299.315 575.566 299.315 575.566 299.315C575.566 299.315 575.566 299.315 575.566 299.315C575.567 299.315 575.567 299.315 575.567 299.315C575.567 299.315 575.567 299.315 575.567 299.315C575.568 299.315 575.568 299.315 575.568 299.315C575.568 299.315 575.568 299.315 575.568 299.315C575.569 299.315 575.569 299.315 575.569 299.315C575.569 299.315 575.569 299.315 575.57 299.315C575.57 299.315 575.57 299.315 575.57 299.315C575.57 299.315 575.57 299.315 575.571 299.315C575.571 299.315 575.571 299.315 575.571 299.315C575.571 299.315 575.571 299.315 575.572 299.315C575.572 299.315 575.572 299.315 575.572 299.315C575.572 299.315 575.572 299.315 575.573 299.315C575.573 299.315 575.573 299.315 575.573 299.315C575.573 299.315 575.573 299.315 575.574 299.315C575.574 299.315 575.574 299.315 575.574 299.315C575.574 299.315 575.574 299.315 575.575 299.315C575.575 299.315 575.575 299.315 575.575 299.315C575.575 299.315 575.576 299.315 575.576 299.315C575.576 299.315 575.576 299.315 575.576 299.315C575.576 299.315 575.577 299.315 575.577 299.315C575.577 299.315 575.577 299.315 575.577 299.315C575.577 299.315 575.578 299.315 575.578 299.315C575.578 299.315 575.578 299.315 575.578 299.315C575.578 299.315 575.579 299.315 575.579 299.315C575.579 299.315 575.579 299.315 575.579 299.315C575.579 299.315 575.58 299.315 575.58 299.315C575.58 299.315 575.58 299.315 575.58 299.315C575.581 299.315 575.581 299.315 575.581 299.315C575.581 299.315 575.581 299.315 575.581 299.315C575.582 299.315 575.582 299.315 575.582 299.315C575.582 299.315 575.582 299.315 575.582 299.315C575.583 299.315 575.583 299.315 575.583 299.315C575.583 299.315 575.583 299.315 575.583 299.315C575.584 299.315 575.584 299.315 575.584 299.315C575.584 299.315 575.584 299.315 575.584 299.315C575.585 299.315 575.585 299.315 575.585 299.315C575.585 299.315 575.585 299.315 575.585 299.315C575.586 299.315 575.586 299.315 575.586 299.315C575.586 299.315 575.586 299.315 575.587 299.315C575.587 299.315 575.587 299.315 575.587 299.315C575.587 299.315 575.587 299.315 575.588 299.315C575.588 299.315 575.588 299.315 575.588 299.315C575.588 299.315 575.588 299.315 575.589 299.315C575.589 299.315 575.589 299.315 575.589 299.315C575.589 299.315 575.589 299.315 575.59 299.315C575.59 299.315 575.59 299.315 575.59 299.315C575.59 299.315 575.59 299.315 575.591 299.315C575.591 299.315 575.591 299.315 575.591 299.315C575.591 299.315 575.592 299.315 575.592 299.315C575.592 299.315 575.592 299.315 575.592 299.315C575.592 299.315 575.593 299.315 575.593 299.315C575.593 299.315 575.593 299.315 575.593 299.315C575.593 299.315 575.594 299.315 575.594 299.315C575.594 299.315 575.594 299.315 575.594 299.315C575.594 299.315 575.595 299.315 575.595 299.315C575.595 299.315 575.595 299.315 575.595 299.315C575.595 299.315 575.596 299.315 575.596 299.315C575.596 299.315 575.596 299.315 575.596 299.315C575.596 299.315 575.597 299.315 575.597 299.315C575.597 299.315 575.597 299.315 575.597 299.315C575.598 299.315 575.598 299.315 575.598 299.315C575.598 299.315 575.598 299.315 575.598 299.315C575.599 299.315 575.599 299.315 575.599 299.315C575.599 299.315 575.599 299.315 575.599 299.315C575.6 299.315 575.6 299.315 575.6 299.315C575.6 299.315 575.6 299.315 575.6 299.315C575.601 299.315 575.601 299.315 575.601 299.315C575.601 299.315 575.601 299.315 575.601 299.315C575.602 299.315 575.602 299.315 575.602 299.315C575.602 299.315 575.602 299.315 575.602 299.315C575.603 299.315 575.603 299.315 575.603 299.315C575.603 299.315 575.603 299.315 575.604 299.315C575.604 299.315 575.604 299.315 575.604 299.315C575.604 299.315 575.604 299.315 575.605 299.315C575.605 299.315 575.605 299.315 575.605 299.315C575.605 299.315 575.605 299.315 575.606 299.315C575.606 299.315 575.606 299.315 575.606 299.315C575.606 299.315 575.606 299.315 575.607 299.315C575.607 299.315 575.607 299.315 575.607 299.315C575.607 299.315 575.607 299.315 575.608 299.315C575.608 299.315 575.608 299.315 575.608 299.315C575.608 299.315 575.609 299.315 575.609 299.315C575.609 299.315 575.609 299.315 575.609 299.315C575.609 299.315 575.61 299.315 575.61 299.315C575.61 299.315 575.61 299.315 575.61 299.315C575.61 299.315 575.611 299.315 575.611 299.315C575.611 299.315 575.611 299.315 575.611 299.315C575.611 299.315 575.612 299.315 575.612 299.315C575.612 299.315 575.612 299.315 575.612 299.315C575.612 299.315 575.613 299.315 575.613 299.315C575.613 299.315 575.613 299.315 575.613 299.315C575.613 299.315 575.614 299.315 575.614 299.315C575.614 299.315 575.614 299.315 575.614 299.315C575.615 299.315 575.615 299.315 575.615 299.315C575.615 299.315 575.615 299.315 575.615 299.315C575.616 299.315 575.616 299.315 575.616 299.315C575.616 299.315 575.616 299.315 575.616 299.315C575.617 299.315 575.617 299.315 575.617 299.315C575.617 299.315 575.617 299.315 575.617 299.315C575.618 299.315 575.618 299.315 575.618 299.315C575.618 299.315 575.618 299.315 575.618 299.315C575.619 299.315 575.619 299.315 575.619 299.315C575.619 299.315 575.619 299.315 575.619 299.315C575.62 299.315 575.62 299.315 575.62 299.315C575.62 299.315 575.62 299.315 575.621 299.315C575.621 299.315 575.621 299.315 575.621 299.315C575.621 299.315 575.621 299.315 575.622 299.315C575.622 299.315 575.622 299.315 575.622 299.315C575.622 299.315 575.622 299.315 575.623 299.315C575.623 299.315 575.623 299.315 575.623 299.315C575.623 299.315 575.623 299.315 575.624 299.315C575.624 299.315 575.624 299.315 575.624 299.315C575.624 299.315 575.624 299.315 575.625 299.315C575.625 299.315 575.625 299.315 575.625 299.315C575.625 299.315 575.626 299.315 575.626 299.315C575.626 299.315 575.626 299.315 575.626 299.315C575.626 299.315 575.627 299.315 575.627 299.315C575.627 299.315 575.627 299.315 575.627 299.315C575.627 299.315 575.628 299.315 575.628 299.315C575.628 299.315 575.628 299.315 575.628 299.315C575.628 299.315 575.629 299.315 575.629 299.315C575.629 299.315 575.629 299.315 575.629 299.315C575.629 299.315 575.63 299.315 575.63 299.315C575.63 299.315 575.63 299.315 575.63 299.315C575.63 299.315 575.631 299.315 575.631 299.315C575.631 299.315 575.631 299.315 575.631 299.315C575.632 299.315 575.632 299.315 575.632 299.315C575.632 299.315 575.632 299.315 575.632 299.315C575.633 299.315 575.633 299.315 575.633 299.315C575.633 299.315 575.633 299.315 575.633 299.315C575.634 299.315 575.634 299.315 575.634 299.315C575.634 299.315 575.634 299.315 575.634 299.315C575.635 299.315 575.635 299.315 575.635 299.315C575.635 299.315 575.635 299.315 575.635 299.315C575.636 299.315 575.636 299.315 575.636 299.315C575.636 299.315 575.636 299.315 575.636 299.315C575.637 299.315 575.637 299.315 575.637 299.315C575.637 299.315 575.637 299.315 575.638 299.315C575.638 299.315 575.638 299.315 575.638 299.315C575.638 299.315 575.638 299.315 575.639 299.315C575.639 299.315 575.639 299.315 575.639 299.315C575.639 299.315 575.639 299.315 575.64 299.315C575.64 299.315 575.64 299.315 575.64 299.315C575.64 299.315 575.64 299.315 575.641 299.315C575.641 299.315 575.641 299.315 575.641 299.315C575.641 299.315 575.641 299.315 575.642 299.315C575.642 299.315 575.642 299.315 575.642 299.315C575.642 299.315 575.643 299.315 575.643 299.315C575.643 299.315 575.643 299.315 575.643 299.315C575.643 299.315 575.644 299.315 575.644 299.315C575.644 299.315 575.644 299.315 575.644 299.315C575.644 299.315 575.645 299.315 575.645 299.315C575.645 299.315 575.645 299.315 575.645 299.315C575.645 299.315 575.646 299.315 575.646 299.315C575.646 299.315 575.646 299.315 575.646 299.315C575.646 299.315 575.647 299.315 575.647 299.315C575.647 299.315 575.647 299.315 575.647 299.315C575.647 299.315 575.648 299.315 575.648 299.315C575.648 299.315 575.648 299.315 575.648 299.315C575.649 299.315 575.649 299.315 575.649 299.315C575.649 299.315 575.649 299.315 575.649 299.315C575.65 299.315 575.65 299.315 575.65 299.315C575.65 299.315 575.65 299.315 575.65 299.315C575.651 299.315 575.651 299.315 575.651 299.315C575.651 299.315 575.651 299.315 575.651 299.315C575.652 299.315 575.652 299.315 575.652 299.315C575.652 299.315 575.652 299.315 575.652 299.315C575.653 299.315 575.653 299.315 575.653 299.315C575.653 299.315 575.653 299.315 575.654 299.315C575.654 299.315 575.654 299.315 575.654 299.315C575.654 299.315 575.654 299.315 575.655 299.315C575.655 299.315 575.655 299.315 575.655 299.315C575.655 299.315 575.655 299.315 575.656 299.315C575.656 299.315 575.656 299.315 575.656 299.315C575.656 299.315 575.656 299.315 575.657 299.315C575.657 299.315 575.657 299.315 575.657 299.315C575.657 299.315 575.657 299.315 575.658 299.315C575.658 299.315 575.658 299.315 575.658 299.315C575.658 299.315 575.658 299.315 575.659 299.315C575.659 299.315 575.659 299.315 575.659 299.315C575.659 299.315 575.66 299.315 575.66 299.315C575.66 299.315 575.66 299.315 575.66 299.315C575.66 299.315 575.661 299.315 575.661 299.315C575.661 299.315 575.661 299.315 575.661 299.315C575.661 299.315 575.662 299.315 575.662 299.315C575.662 299.315 575.662 299.315 575.662 299.315C575.662 299.315 575.663 299.315 575.663 299.315C575.663 299.315 575.663 299.315 575.663 299.315C575.663 299.315 575.664 299.315 575.664 299.315C575.664 299.315 575.664 299.315 575.664 299.315C575.664 299.315 575.665 299.315 575.665 299.315C575.665 299.315 575.665 299.315 575.665 299.315C575.666 299.315 575.666 299.315 575.666 299.315C575.666 299.315 575.666 299.315 575.666 299.315C575.667 299.315 575.667 299.315 575.667 299.315C575.667 299.315 575.667 299.315 575.667 299.315C575.668 299.315 575.668 299.315 575.668 299.315C575.668 299.315 575.668 299.315 575.668 299.315C575.669 299.315 575.669 299.315 575.669 299.315C575.669 299.315 575.669 299.315 575.669 299.315C575.67 299.315 575.67 299.315 575.67 299.315C575.67 299.315 575.67 299.315 575.671 299.315C575.671 299.315 575.671 299.315 575.671 299.315C575.671 299.315 575.671 299.315 575.672 299.315C575.672 299.315 575.672 299.315 575.672 299.315C575.672 299.315 575.672 299.315 575.673 299.315C575.673 299.315 575.673 299.315 575.673 299.315C575.673 299.315 575.673 299.315 575.674 299.315C575.674 299.315 575.674 299.315 575.674 299.315C575.674 299.315 575.674 299.315 575.675 299.315C575.675 299.315 575.675 299.315 575.675 299.315C575.675 299.315 575.675 299.315 575.676 299.315C575.676 299.315 575.676 299.315 575.676 299.315C575.676 299.315 575.677 299.315 575.677 299.315C575.677 299.315 575.677 299.315 575.677 299.315C575.677 299.315 575.678 299.315 575.678 299.315C575.678 299.315 575.678 299.315 575.678 299.315C575.678 299.315 575.679 299.315 575.679 299.315C575.679 299.315 575.679 299.315 575.679 299.315C575.679 299.315 575.68 299.315 575.68 299.315C575.68 299.315 575.68 299.315 575.68 299.315C575.68 299.315 575.681 299.315 575.681 299.315C575.681 299.315 575.681 299.315 575.681 299.315C575.682 299.315 575.682 299.315 575.682 299.315C575.682 299.315 575.682 299.315 575.682 299.315C575.683 299.315 575.683 299.315 575.683 299.315C575.683 299.315 575.683 299.315 575.683 299.315C575.684 299.315 575.684 299.315 575.684 299.315C575.684 299.315 575.684 299.315 575.684 299.315C575.685 299.315 575.685 299.315 575.685 299.315C575.685 299.315 575.685 299.315 575.685 299.315C575.686 299.315 575.686 299.315 575.686 299.315C575.686 299.315 575.686 299.315 575.686 299.315C575.687 299.315 575.687 299.315 575.687 299.315C575.687 299.315 575.687 299.315 575.688 299.315C575.688 299.315 575.688 299.315 575.688 299.315C575.688 299.315 575.688 299.315 575.689 299.315C575.689 299.315 575.689 299.315 575.689 299.315C575.689 299.315 575.689 299.315 575.69 299.315C575.69 299.315 575.69 299.315 575.69 299.315C575.69 299.315 575.69 299.315 575.691 299.315C575.691 299.315 575.691 299.315 575.691 299.315C575.691 299.315 575.691 299.315 575.692 299.315C575.692 299.315 575.692 299.315 575.692 299.315C575.692 299.315 575.692 299.315 575.693 299.315C575.693 299.315 575.693 299.315 575.693 299.315C575.693 299.315 575.694 299.315 575.694 299.315C575.694 299.315 575.694 299.315 575.694 299.315C575.694 299.315 575.695 299.315 575.695 299.315C575.695 299.315 575.695 299.315 575.695 299.315C575.695 299.315 575.696 299.315 575.696 299.315C575.696 299.315 575.696 299.315 575.696 299.315C575.696 299.315 575.697 299.315 575.697 299.315C575.697 299.315 575.697 299.315 575.697 299.315C575.697 299.315 575.698 299.315 575.698 299.315C575.698 299.315 575.698 299.315 575.698 299.315C575.699 299.315 575.699 299.315 575.699 299.315C575.699 299.315 575.699 299.315 575.699 299.315C575.7 299.315 575.7 299.315 575.7 299.315C575.7 299.315 575.7 299.315 575.7 299.315C575.701 299.315 575.701 299.315 575.701 299.315C575.701 299.315 575.701 299.315 575.701 299.315C575.702 299.315 575.702 299.315 575.702 299.315C575.702 299.315 575.702 299.315 575.702 299.315C575.703 299.315 575.703 299.315 575.703 299.315C575.703 299.315 575.703 299.315 575.703 299.315C575.704 299.315 575.704 299.315 575.704 299.315C575.704 299.315 575.704 299.315 575.705 299.315C575.705 299.315 575.705 299.315 575.705 299.315C575.705 299.315 575.705 299.315 575.706 299.315C575.706 299.315 575.706 299.315 575.706 299.315C575.706 299.315 575.706 299.315 575.707 299.315C575.707 299.315 575.707 299.315 575.707 299.315C575.707 299.315 575.707 299.315 575.708 299.315C575.708 299.315 575.708 299.315 575.708 299.315C575.708 299.315 575.708 299.315 575.709 299.315C575.709 299.315 575.709 299.315 575.709 299.315C575.709 299.315 575.71 299.315 575.71 299.315C575.71 299.315 575.71 299.315 575.71 299.315C575.71 299.315 575.711 299.315 575.711 299.315C575.711 299.315 575.711 299.315 575.711 299.315C575.711 299.315 575.712 299.315 575.712 299.315C575.712 299.315 575.712 299.315 575.712 299.315C575.712 299.315 575.713 299.315 575.713 299.315C575.713 299.315 575.713 299.315 575.713 299.315C575.713 299.315 575.714 299.315 575.714 299.315C575.714 299.315 575.714 299.315 575.714 299.315C575.714 299.315 575.715 299.315 575.715 299.315C575.715 299.315 575.715 299.315 575.715 299.315C575.716 299.315 575.716 299.315 575.716 299.315C575.716 299.315 575.716 299.315 575.716 299.315C575.717 299.315 575.717 299.315 575.717 299.315C575.717 299.315 575.717 299.315 575.717 299.315C575.718 299.315 575.718 299.315 575.718 299.315C575.718 299.315 575.718 299.315 575.718 299.315C575.719 299.315 575.719 299.315 575.719 299.315C575.719 299.315 575.719 299.315 575.719 299.315C575.72 299.315 575.72 299.315 575.72 299.315C575.72 299.315 575.72 299.315 575.72 299.315C575.721 299.315 575.721 299.315 575.721 299.315C575.721 299.315 575.721 299.315 575.722 299.315C575.722 299.315 575.722 299.315 575.722 299.315C575.722 299.315 575.722 299.315 575.723 299.315C575.723 299.315 575.723 299.315 575.723 299.315C575.723 299.315 575.723 299.315 575.724 299.315C575.724 299.315 575.724 299.315 575.724 299.315C575.724 299.315 575.724 299.315 575.725 299.315C575.725 299.315 575.725 299.315 575.725 299.315C575.725 299.315 575.725 299.315 575.726 299.315C575.726 299.315 575.726 299.315 575.726 299.315C575.726 299.315 575.727 299.315 575.727 299.315C575.727 299.315 575.727 299.315 575.727 299.315C575.727 299.315 575.728 299.315 575.728 299.315C575.728 299.315 575.728 299.315 575.728 299.315C575.728 299.315 575.729 299.315 575.729 299.315C575.729 299.315 575.729 299.315 575.729 299.315C575.729 299.315 575.73 299.315 575.73 299.315C575.73 299.315 575.73 299.315 575.73 299.315C575.73 299.315 575.731 299.315 575.731 299.315C575.731 299.315 575.731 299.315 575.731 299.315C575.731 299.315 575.732 299.315 575.732 299.315C575.732 299.315 575.732 299.315 575.732 299.315C575.733 299.315 575.733 299.315 575.733 299.315C575.733 299.315 575.733 299.315 575.733 299.315C575.734 299.315 575.734 299.315 575.734 299.315C575.734 299.315 575.734 299.315 575.734 299.315C575.735 299.315 575.735 299.315 575.735 299.315C575.735 299.315 575.735 299.315 575.735 299.315C575.736 299.315 575.736 299.315 575.736 299.315C575.736 299.315 575.736 299.315 575.736 299.315C575.737 299.315 575.737 299.315 575.737 299.315C575.737 299.315 575.737 299.315 575.738 299.315C575.738 299.315 575.738 299.315 575.738 299.315C575.738 299.315 575.738 299.315 575.739 299.315C575.739 299.315 575.739 299.315 575.739 299.315C575.739 299.315 575.739 299.315 575.74 299.315C575.74 299.315 575.74 299.315 575.74 299.315C575.74 299.315 575.74 299.315 575.741 299.315C575.741 299.315 575.741 299.315 575.741 299.315C575.741 299.315 575.741 299.315 575.742 299.315C575.742 299.315 575.742 299.315 575.742 299.315C575.742 299.315 575.742 299.315 575.743 299.315C575.743 299.315 575.743 299.315 575.743 299.315C575.743 299.315 575.744 299.315 575.744 299.315C575.744 299.315 575.744 299.315 575.744 299.315V293.315ZM576.008 293.315C575.964 293.315 575.92 293.315 575.876 293.315C575.832 293.315 575.788 293.315 575.744 293.315V299.315C575.788 299.315 575.833 299.315 575.877 299.315C575.921 299.315 575.964 299.315 576.008 299.315V293.315ZM1150.61 293.315L576.008 293.315V299.315L1150.61 299.315V293.315ZM1147.61 148.252V296.315H1153.61V148.252L1147.61 148.252Z" fill="#00B7FF" mask="url(#path-1-inside-1_55_23175)"/>
</svg>
