<svg width="201" height="430" viewBox="0 0 201 430" fill="none" xmlns="http://www.w3.org/2000/svg">
<mask id="path-1-inside-1_55_19282" fill="white">
<path fill-rule="evenodd" clip-rule="evenodd" d="M102.307 22.9797C105.025 7.99649 119.375 -1.9464 134.358 0.771671C149.342 3.48974 159.285 17.8395 156.566 32.8228L154.141 46.1953C186.643 63.815 206.029 100.789 199.102 138.977L114.718 429.759L0.649541 409.066L25.1948 107.429L25.1944 107.429C32.1219 69.2409 63.2604 41.432 99.8815 36.3521L102.307 22.9797Z"/>
</mask>
<path d="M102.307 22.9797L99.3555 22.4443L102.307 22.9797ZM154.141 46.1953L151.189 45.6599L150.801 47.7974L152.711 48.8328L154.141 46.1953ZM199.102 138.977L201.983 139.813L202.026 139.664L202.054 139.512L199.102 138.977ZM114.718 429.759L114.183 432.711L116.845 433.194L117.599 430.595L114.718 429.759ZM0.649541 409.066L-2.34058 408.823L-2.56109 411.533L0.114059 412.018L0.649541 409.066ZM25.1948 107.429L28.1849 107.672L28.4055 104.962L25.7303 104.477L25.1948 107.429ZM25.1944 107.429L22.2426 106.893L21.7071 109.845L24.6589 110.38L25.1944 107.429ZM99.8815 36.3521L100.294 39.3237L102.446 39.0252L102.833 36.8876L99.8815 36.3521ZM134.894 -2.18015C118.28 -5.19396 102.369 5.83076 99.3555 22.4443L105.259 23.5152C107.681 10.1622 120.47 1.30116 133.823 3.72349L134.894 -2.18015ZM159.518 33.3582C162.532 16.7447 151.507 0.83366 134.894 -2.18015L133.823 3.72349C147.176 6.14583 156.037 18.9343 153.615 32.2873L159.518 33.3582ZM157.092 46.7308L159.518 33.3582L153.615 32.2873L151.189 45.6599L157.092 46.7308ZM202.054 139.512C209.224 99.9863 189.155 61.7642 155.57 43.5579L152.711 48.8328C184.131 65.8657 202.835 101.592 196.15 138.441L202.054 139.512ZM196.221 138.141L111.837 428.923L117.599 430.595L201.983 139.813L196.221 138.141ZM115.254 426.807L1.18502 406.115L0.114059 412.018L114.183 432.711L115.254 426.807ZM3.63966 409.31L28.1849 107.672L22.2047 107.185L-2.34058 408.823L3.63966 409.31ZM24.6589 110.38L24.6593 110.38L25.7303 104.477L25.7299 104.477L24.6589 110.38ZM99.4693 33.3806C61.6289 38.6295 29.4129 67.367 22.2426 106.893L28.1462 107.964C34.831 71.1147 64.892 44.2344 100.294 39.3237L99.4693 33.3806ZM99.3555 22.4443L96.9297 35.8166L102.833 36.8876L105.259 23.5152L99.3555 22.4443Z" fill="#00B7FF" mask="url(#path-1-inside-1_55_19282)"/>
</svg>
