<svg width="251" height="452" viewBox="0 0 251 452" fill="none" xmlns="http://www.w3.org/2000/svg">
<path fill-rule="evenodd" clip-rule="evenodd" d="M131.307 38.3064C134.025 23.3231 148.375 13.3803 163.358 16.0983C178.342 18.8164 188.285 33.1662 185.566 48.1494L183.141 61.522C215.643 79.1416 235.029 116.116 228.102 154.303L143.718 445.086L29.6495 424.393L54.1948 122.755L54.1944 122.755C61.1219 84.5675 92.2604 56.7586 128.881 51.6788L131.307 38.3064Z" fill="#232323"/>
<mask id="mask0_55_19670" style="mask-type:alpha" maskUnits="userSpaceOnUse" x="30" y="16" width="200" height="431">
<path fill-rule="evenodd" clip-rule="evenodd" d="M131.804 39.2332C134.522 24.2499 148.872 14.307 163.855 17.0251C178.839 19.7432 188.782 34.0929 186.064 49.0762L183.638 62.4488C216.14 80.0684 235.527 117.043 228.599 155.23L144.215 446.013L30.1466 425.32L54.6919 123.682L54.6915 123.682C61.619 85.4943 92.7575 57.6854 129.379 52.6055L131.804 39.2332Z" fill="#232323"/>
</mask>
<g mask="url(#mask0_55_19670)">
<circle cx="165.37" cy="269.596" r="2.43474" transform="rotate(-75 165.37 269.596)" fill="white"/>
<circle cx="86.3735" cy="83.1567" r="2.43474" transform="rotate(105 86.3735 83.1567)" fill="white"/>
<circle cx="93.4364" cy="249.812" r="2.43474" transform="rotate(90 93.4364 249.812)" fill="white"/>
<circle cx="158.307" cy="102.941" r="2.43474" transform="rotate(-90 158.307 102.941)" fill="white"/>
<circle cx="213.68" cy="232.758" r="2.43474" transform="rotate(-75 213.68 232.758)" fill="white"/>
<circle cx="38.063" cy="119.995" r="2.43474" transform="rotate(105 38.063 119.995)" fill="white"/>
<circle cx="56.3055" cy="297.898" r="2.43474" transform="rotate(90 56.3055 297.898)" fill="white"/>
<circle cx="195.438" cy="54.8548" r="2.43474" transform="rotate(-90 195.438 54.8548)" fill="white"/>
<circle cx="142.872" cy="243.233" r="2.43474" transform="rotate(-75 142.872 243.233)" fill="white"/>
<circle cx="108.872" cy="109.52" r="2.43474" transform="rotate(105 108.872 109.52)" fill="white"/>
<circle cx="121.991" cy="269.453" r="2.43474" transform="rotate(90 121.991 269.453)" fill="white"/>
<circle cx="129.752" cy="83.2991" r="2.43474" transform="rotate(-90 129.752 83.2991)" fill="white"/>
<circle cx="204.872" cy="199.233" r="2.43474" transform="rotate(-75 204.872 199.233)" fill="white"/>
<circle cx="46.8716" cy="153.52" r="2.43474" transform="rotate(105 46.8716 153.52)" fill="white"/>
<circle cx="73.491" cy="328.001" r="2.43474" transform="rotate(90 73.491 328.001)" fill="white"/>
<circle cx="178.252" cy="24.7518" r="2.43474" transform="rotate(-90 178.252 24.7518)" fill="white"/>
<circle cx="218.872" cy="129.233" r="2.43474" transform="rotate(105 218.872 129.233)" fill="white"/>
<circle cx="166.872" cy="344.233" r="2.43474" transform="rotate(-75 166.872 344.233)" fill="white"/>
<circle cx="72.6678" cy="178.107" r="2.43474" transform="rotate(90 72.6678 178.107)" fill="white"/>
<circle cx="179.075" cy="174.646" r="2.43474" transform="rotate(-90 179.075 174.646)" fill="white"/>
<circle cx="135.872" cy="320.233" r="2.43474" transform="rotate(-75 135.872 320.233)" fill="white"/>
<circle cx="115.872" cy="32.52" r="2.43474" transform="rotate(105 115.872 32.52)" fill="white"/>
<circle cx="108.823" cy="193.265" r="2.43474" transform="rotate(90 108.823 193.265)" fill="white"/>
<circle cx="142.92" cy="159.487" r="2.43474" transform="rotate(-90 142.92 159.487)" fill="white"/>
<circle cx="230.74" cy="32.9422" r="2.43474" transform="rotate(-90 230.74 32.9422)" fill="white"/>
<circle cx="193.872" cy="312.233" r="2.43474" transform="rotate(-75 193.872 312.233)" fill="white"/>
<circle cx="57.8716" cy="40.52" r="2.43474" transform="rotate(105 57.8716 40.52)" fill="white"/>
<circle cx="54.8699" cy="216.005" r="2.43474" transform="rotate(90 54.8699 216.005)" fill="white"/>
<circle cx="196.873" cy="136.748" r="2.43474" transform="rotate(-90 196.873 136.748)" fill="white"/>
<circle cx="170.087" cy="226.119" r="2.43474" transform="rotate(-75 170.087 226.119)" fill="white"/>
<circle cx="81.6558" cy="126.634" r="2.43474" transform="rotate(105 81.6558 126.634)" fill="white"/>
<circle cx="100.132" cy="293.029" r="2.43474" transform="rotate(90 100.132 293.029)" fill="white"/>
<circle cx="151.611" cy="59.7239" r="2.43474" transform="rotate(-90 151.611 59.7239)" fill="white"/>
<circle cx="161.872" cy="185.233" r="2.43474" transform="rotate(-75 161.872 185.233)" fill="white"/>
<circle cx="89.8716" cy="167.52" r="2.43474" transform="rotate(105 89.8716 167.52)" fill="white"/>
<circle cx="118.649" cy="330.395" r="2.43474" transform="rotate(90 118.649 330.395)" fill="white"/>
<circle cx="133.094" cy="22.3577" r="2.43474" transform="rotate(-90 133.094 22.3577)" fill="white"/>
<circle cx="105.872" cy="251.763" r="2.43474" transform="rotate(-75 105.872 251.763)" fill="white"/>
<circle cx="145.872" cy="100.99" r="2.43474" transform="rotate(105 145.872 100.99)" fill="white"/>
<circle cx="155.522" cy="251.638" r="2.43474" transform="rotate(90 155.522 251.638)" fill="white"/>
<circle cx="96.2209" cy="101.115" r="2.43474" transform="rotate(-90 96.2209 101.115)" fill="white"/>
<circle cx="188.234" cy="248.941" r="1.52171" transform="rotate(-75 188.234 248.941)" fill="white"/>
<circle cx="63.5093" cy="103.812" r="1.52171" transform="rotate(105 63.5093 103.812)" fill="white"/>
<circle cx="76.697" cy="275.681" r="1.52171" transform="rotate(90 76.697 275.681)" fill="white"/>
<circle cx="175.046" cy="77.0715" r="1.52171" transform="rotate(-90 175.046 77.0715)" fill="white"/>
<circle cx="229.688" cy="207.114" r="1.52171" transform="rotate(-75 229.688 207.114)" fill="white"/>
<circle cx="47.4802" cy="326.811" r="1.52171" transform="rotate(90 47.4802 326.811)" fill="white"/>
<circle cx="204.263" cy="25.9417" r="1.52171" transform="rotate(-90 204.263 25.9417)" fill="white"/>
<circle cx="33.8435" cy="341.853" r="1.52171" transform="rotate(90 33.8435 341.853)" fill="white"/>
<circle cx="35.3064" cy="296.376" r="1.52171" transform="rotate(90 35.3064 296.376)" fill="white"/>
<circle cx="216.437" cy="56.3762" r="1.52171" transform="rotate(-90 216.437 56.3762)" fill="white"/>
<circle cx="179.753" cy="190.115" r="1.52171" transform="rotate(-75 179.753 190.115)" fill="white"/>
<circle cx="71.9898" cy="162.638" r="1.52171" transform="rotate(105 71.9898 162.638)" fill="white"/>
<circle cx="100.113" cy="330.307" r="1.52171" transform="rotate(90 100.113 330.307)" fill="white"/>
<circle cx="151.63" cy="22.4451" r="1.52171" transform="rotate(-90 151.63 22.4451)" fill="white"/>
<circle cx="171.753" cy="196.115" r="1.52171" transform="rotate(-75 171.753 196.115)" fill="white"/>
<circle cx="79.9898" cy="156.638" r="1.52171" transform="rotate(105 79.9898 156.638)" fill="white"/>
<circle cx="106.288" cy="322.442" r="1.52171" transform="rotate(90 106.288 322.442)" fill="white"/>
<circle cx="145.455" cy="30.3113" r="1.52171" transform="rotate(-90 145.455 30.3113)" fill="white"/>
<circle cx="212.753" cy="244.115" r="1.52171" transform="rotate(-75 212.753 244.115)" fill="white"/>
<circle cx="38.9898" cy="108.638" r="1.52171" transform="rotate(105 38.9898 108.638)" fill="white"/>
<circle cx="54.2615" cy="286.689" r="1.52171" transform="rotate(90 54.2615 286.689)" fill="white"/>
<circle cx="197.482" cy="66.0642" r="1.52171" transform="rotate(-90 197.482 66.0642)" fill="white"/>
<circle cx="162.753" cy="230.115" r="1.52171" transform="rotate(-75 162.753 230.115)" fill="white"/>
<circle cx="88.9898" cy="122.638" r="1.52171" transform="rotate(105 88.9898 122.638)" fill="white"/>
<circle cx="106.181" cy="287.271" r="1.52171" transform="rotate(90 106.181 287.271)" fill="white"/>
<circle cx="145.562" cy="65.4822" r="1.52171" transform="rotate(-90 145.562 65.4822)" fill="white"/>
<circle cx="180.742" cy="316.88" r="1.52171" transform="rotate(-75 180.742 316.88)" fill="white"/>
<circle cx="71.0015" cy="35.8729" r="1.52171" transform="rotate(105 71.0015 35.8729)" fill="white"/>
<circle cx="66.3494" cy="208.117" r="1.52171" transform="rotate(90 66.3494 208.117)" fill="white"/>
<circle cx="185.394" cy="144.635" r="1.52171" transform="rotate(-90 185.394 144.635)" fill="white"/>
<circle cx="191.879" cy="216.519" r="1.52171" transform="rotate(-75 191.879 216.519)" fill="white"/>
<circle cx="59.8638" cy="136.234" r="1.52171" transform="rotate(105 59.8638 136.234)" fill="white"/>
<circle cx="81.5672" cy="307.942" r="1.52171" transform="rotate(90 81.5672 307.942)" fill="white"/>
<circle cx="170.176" cy="44.8108" r="1.52171" transform="rotate(-90 170.176 44.8108)" fill="white"/>
<circle cx="133.079" cy="271.341" r="1.52171" transform="rotate(-75 133.079 271.341)" fill="white"/>
<circle cx="118.665" cy="81.4119" r="1.52171" transform="rotate(105 118.665 81.4119)" fill="white"/>
<circle cx="124.175" cy="239.769" r="1.52171" transform="rotate(90 124.175 239.769)" fill="white"/>
<circle cx="127.569" cy="112.984" r="1.52171" transform="rotate(-90 127.569 112.984)" fill="white"/>
<circle cx="162.753" cy="294.115" r="1.52171" transform="rotate(-75 162.753 294.115)" fill="white"/>
<circle cx="88.9898" cy="58.638" r="1.52171" transform="rotate(105 88.9898 58.638)" fill="white"/>
<circle cx="89.617" cy="225.451" r="1.52171" transform="rotate(90 89.617 225.451)" fill="white"/>
<circle cx="162.126" cy="127.302" r="1.52171" transform="rotate(-90 162.126 127.302)" fill="white"/>
<circle cx="36.4114" cy="173.773" r="1.52171" transform="rotate(-90 36.4114 173.773)" fill="white"/>
<circle cx="205.753" cy="334.115" r="1.52171" transform="rotate(-75 205.753 334.115)" fill="white"/>
<circle cx="45.9898" cy="18.638" r="1.52171" transform="rotate(105 45.9898 18.638)" fill="white"/>
<circle cx="37.7293" cy="197.944" r="1.52171" transform="rotate(90 37.7293 197.944)" fill="white"/>
<circle cx="214.014" cy="154.809" r="1.52171" transform="rotate(-90 214.014 154.809)" fill="white"/>
<circle cx="185.753" cy="275.115" r="1.52171" transform="rotate(-75 185.753 275.115)" fill="white"/>
<circle cx="65.9898" cy="77.638" r="1.52171" transform="rotate(105 65.9898 77.638)" fill="white"/>
<circle cx="72.3181" cy="249.757" r="1.52171" transform="rotate(90 72.3181 249.757)" fill="white"/>
<circle cx="179.425" cy="102.996" r="1.52171" transform="rotate(-90 179.425 102.996)" fill="white"/>
<circle cx="135.753" cy="206.115" r="1.52171" transform="rotate(-75 135.753 206.115)" fill="white"/>
<circle cx="115.99" cy="146.638" r="1.52171" transform="rotate(105 115.99 146.638)" fill="white"/>
<circle cx="138.473" cy="303.465" r="1.52171" transform="rotate(90 138.473 303.465)" fill="white"/>
<circle cx="113.27" cy="49.2879" r="1.52171" transform="rotate(-90 113.27 49.2879)" fill="white"/>
<circle cx="228.475" cy="270.436" r="1.52171" transform="rotate(-75 228.475 270.436)" fill="white"/>
<circle cx="32.2634" cy="265.333" r="1.52171" transform="rotate(90 32.2634 265.333)" fill="white"/>
<circle cx="219.48" cy="87.4192" r="1.52171" transform="rotate(-90 219.48 87.4192)" fill="white"/>
<circle cx="183.753" cy="286.115" r="1.52171" transform="rotate(-75 183.753 286.115)" fill="white"/>
<circle cx="67.9898" cy="66.638" r="1.52171" transform="rotate(105 67.9898 66.638)" fill="white"/>
<circle cx="71.4031" cy="238.614" r="1.52171" transform="rotate(90 71.4031 238.614)" fill="white"/>
<circle cx="180.34" cy="114.139" r="1.52171" transform="rotate(-90 180.34 114.139)" fill="white"/>
<circle cx="86.3735" cy="429.121" r="2.43474" transform="rotate(105 86.3735 429.121)" fill="white"/>
<circle cx="195.438" cy="400.819" r="2.43474" transform="rotate(-90 195.438 400.819)" fill="white"/>
<circle cx="129.752" cy="429.263" r="2.43474" transform="rotate(-90 129.752 429.263)" fill="white"/>
<circle cx="178.252" cy="370.716" r="2.43474" transform="rotate(-90 178.252 370.716)" fill="white"/>
<circle cx="84.8716" cy="354.484" r="2.43474" transform="rotate(105 84.8716 354.484)" fill="white"/>
<circle cx="115.872" cy="378.484" r="2.43474" transform="rotate(105 115.872 378.484)" fill="white"/>
<circle cx="230.74" cy="378.906" r="2.43474" transform="rotate(-90 230.74 378.906)" fill="white"/>
<circle cx="57.8716" cy="386.484" r="2.43474" transform="rotate(105 57.8716 386.484)" fill="white"/>
<circle cx="151.611" cy="405.688" r="2.43474" transform="rotate(-90 151.611 405.688)" fill="white"/>
<circle cx="133.094" cy="368.322" r="2.43474" transform="rotate(-90 133.094 368.322)" fill="white"/>
<circle cx="145.872" cy="446.954" r="2.43474" transform="rotate(105 145.872 446.954)" fill="white"/>
<circle cx="96.2209" cy="447.078" r="2.43474" transform="rotate(-90 96.2209 447.078)" fill="white"/>
<circle cx="175.046" cy="423.035" r="1.52171" transform="rotate(-90 175.046 423.035)" fill="white"/>
<circle cx="204.263" cy="371.906" r="1.52171" transform="rotate(-90 204.263 371.906)" fill="white"/>
<circle cx="226.404" cy="357.691" r="1.52171" transform="rotate(-90 226.404 357.691)" fill="white"/>
<circle cx="217.9" cy="356.864" r="1.52171" transform="rotate(-90 217.9 356.864)" fill="white"/>
<circle cx="216.437" cy="402.34" r="1.52171" transform="rotate(-90 216.437 402.34)" fill="white"/>
<circle cx="151.63" cy="368.409" r="1.52171" transform="rotate(-90 151.63 368.409)" fill="white"/>
<circle cx="145.455" cy="376.275" r="1.52171" transform="rotate(-90 145.455 376.275)" fill="white"/>
<circle cx="197.482" cy="412.028" r="1.52171" transform="rotate(-90 197.482 412.028)" fill="white"/>
<circle cx="145.562" cy="411.446" r="1.52171" transform="rotate(-90 145.562 411.446)" fill="white"/>
<circle cx="71.0015" cy="381.837" r="1.52171" transform="rotate(105 71.0015 381.837)" fill="white"/>
<circle cx="170.176" cy="390.775" r="1.52171" transform="rotate(-90 170.176 390.775)" fill="white"/>
<circle cx="118.665" cy="427.376" r="1.52171" transform="rotate(105 118.665 427.376)" fill="white"/>
<circle cx="88.9898" cy="404.602" r="1.52171" transform="rotate(105 88.9898 404.602)" fill="white"/>
<circle cx="45.9898" cy="364.602" r="1.52171" transform="rotate(105 45.9898 364.602)" fill="white"/>
<circle cx="65.9898" cy="423.602" r="1.52171" transform="rotate(105 65.9898 423.602)" fill="white"/>
<circle cx="113.27" cy="395.252" r="1.52171" transform="rotate(-90 113.27 395.252)" fill="white"/>
<circle cx="219.48" cy="433.383" r="1.52171" transform="rotate(-90 219.48 433.383)" fill="white"/>
<circle cx="67.9898" cy="412.602" r="1.52171" transform="rotate(105 67.9898 412.602)" fill="white"/>
</g>
</svg>
