<svg width="297" height="107" viewBox="0 0 297 107" fill="none" xmlns="http://www.w3.org/2000/svg">
<path fill-rule="evenodd" clip-rule="evenodd" d="M198.061 20.8946C211.188 34.0222 218.563 51.8269 218.563 70.3921L278.563 70.3921C288.505 70.3921 296.563 78.451 296.563 88.3921C296.563 98.3332 288.505 106.392 278.563 106.392L18.5635 106.392C8.62235 106.392 0.563477 98.3332 0.563477 88.3921C0.563477 78.451 8.62235 70.3921 18.5635 70.3921L78.5635 70.3921C78.5635 51.8269 85.9385 34.0222 99.066 20.8946C112.194 7.76707 129.998 0.39209 148.563 0.39209C167.129 0.39209 184.933 7.76707 198.061 20.8946Z" fill="#232323"/>
<mask id="mask0_55_23392" style="mask-type:alpha" maskUnits="userSpaceOnUse" x="0" y="0" width="297" height="107">
<path fill-rule="evenodd" clip-rule="evenodd" d="M198.061 20.8946C211.188 34.0222 218.563 51.8269 218.563 70.3921L278.563 70.3921C288.505 70.3921 296.563 78.451 296.563 88.3921C296.563 98.3332 288.505 106.392 278.563 106.392L18.5635 106.392C8.62235 106.392 0.563477 98.3332 0.563477 88.3921C0.563477 78.451 8.62235 70.3921 18.5635 70.3921L78.5635 70.3921C78.5635 51.8269 85.9385 34.0222 99.066 20.8946C112.194 7.76707 129.998 0.39209 148.563 0.39209C167.129 0.39209 184.933 7.76707 198.061 20.8946Z" fill="#232323"/>
</mask>
<g mask="url(#mask0_55_23392)">
<circle cx="50.7368" cy="-1.86432" r="2.43474" transform="rotate(105 50.7368 -1.86432)" fill="white"/>
<circle cx="291.545" cy="99.3741" r="2.43474" transform="rotate(-75 291.545 99.3741)" fill="white"/>
<circle cx="217.545" cy="77.3741" r="2.43474" transform="rotate(-75 217.545 77.3741)" fill="white"/>
<circle cx="59.5454" cy="31.6611" r="2.43474" transform="rotate(105 59.5454 31.6611)" fill="white"/>
<circle cx="276.545" cy="71.3741" r="2.43474" transform="rotate(-75 276.545 71.3741)" fill="white"/>
<circle cx="0.545407" cy="37.6611" r="2.43474" transform="rotate(105 0.545407 37.6611)" fill="white"/>
<circle cx="33.5454" cy="57.374" r="2.43474" transform="rotate(105 33.5454 57.374)" fill="white"/>
<circle cx="231.545" cy="7.37396" r="2.43474" transform="rotate(105 231.545 7.37396)" fill="white"/>
<circle cx="15.2264" cy="84.3527" r="2.43474" transform="rotate(90 15.2264 84.3527)" fill="white"/>
<circle cx="261.864" cy="24.6824" r="2.43474" transform="rotate(-90 261.864 24.6824)" fill="white"/>
<circle cx="294.998" cy="52.827" r="2.43474" transform="rotate(-90 294.998 52.827)" fill="white"/>
<circle cx="85.3416" cy="56.2477" r="2.43474" transform="rotate(90 85.3416 56.2477)" fill="white"/>
<circle cx="191.749" cy="52.7869" r="2.43474" transform="rotate(-90 191.749 52.7869)" fill="white"/>
<circle cx="121.497" cy="71.4064" r="2.43474" transform="rotate(90 121.497 71.4064)" fill="white"/>
<circle cx="155.594" cy="37.6282" r="2.43474" transform="rotate(-90 155.594 37.6282)" fill="white"/>
<circle cx="266.125" cy="98.8702" r="2.43474" transform="rotate(-75 266.125 98.8702)" fill="white"/>
<circle cx="10.9653" cy="10.1645" r="2.43474" transform="rotate(105 10.9653 10.1645)" fill="white"/>
<circle cx="67.5438" cy="94.1457" r="2.43474" transform="rotate(90 67.5438 94.1457)" fill="white"/>
<circle cx="209.547" cy="14.8895" r="2.43474" transform="rotate(-90 209.547 14.8895)" fill="white"/>
<circle cx="182.761" cy="104.26" r="2.43474" transform="rotate(-75 182.761 104.26)" fill="white"/>
<circle cx="94.3296" cy="4.77484" r="2.43474" transform="rotate(105 94.3296 4.77484)" fill="white"/>
<circle cx="174.545" cy="63.3741" r="2.43474" transform="rotate(-75 174.545 63.3741)" fill="white"/>
<circle cx="102.545" cy="45.6611" r="2.43474" transform="rotate(105 102.545 45.6611)" fill="white"/>
<circle cx="242.362" cy="85.256" r="1.52171" transform="rotate(-75 242.362 85.256)" fill="white"/>
<circle cx="34.7291" cy="23.7791" r="1.52171" transform="rotate(105 34.7291 23.7791)" fill="white"/>
<circle cx="267.427" cy="77.256" r="1.52171" transform="rotate(-75 267.427 77.256)" fill="white"/>
<circle cx="9.66363" cy="31.7791" r="1.52171" transform="rotate(105 9.66363 31.7791)" fill="white"/>
<circle cx="259.427" cy="74.256" r="1.52171" transform="rotate(-75 259.427 74.256)" fill="white"/>
<circle cx="17.6636" cy="34.7791" r="1.52171" transform="rotate(105 17.6636 34.7791)" fill="white"/>
<circle cx="6.42731" cy="48.2557" r="1.52171" transform="rotate(105 6.42731 48.2557)" fill="white"/>
<circle cx="281.427" cy="94.256" r="1.52171" transform="rotate(-75 281.427 94.256)" fill="white"/>
<circle cx="192.427" cy="68.256" r="1.52171" transform="rotate(-75 192.427 68.256)" fill="white"/>
<circle cx="84.6636" cy="40.7791" r="1.52171" transform="rotate(105 84.6636 40.7791)" fill="white"/>
<circle cx="184.427" cy="74.256" r="1.52171" transform="rotate(-75 184.427 74.256)" fill="white"/>
<circle cx="92.6636" cy="34.7791" r="1.52171" transform="rotate(105 92.6636 34.7791)" fill="white"/>
<circle cx="101.664" cy="0.779138" r="1.52171" transform="rotate(105 101.664 0.779138)" fill="white"/>
<circle cx="79.0232" cy="86.2585" r="1.52171" transform="rotate(90 79.0232 86.2585)" fill="white"/>
<circle cx="198.068" cy="22.7761" r="1.52171" transform="rotate(-90 198.068 22.7761)" fill="white"/>
<circle cx="204.553" cy="94.6598" r="1.52171" transform="rotate(-75 204.553 94.6598)" fill="white"/>
<circle cx="72.5377" cy="14.3753" r="1.52171" transform="rotate(105 72.5377 14.3753)" fill="white"/>
<circle cx="102.291" cy="103.593" r="1.52171" transform="rotate(90 102.291 103.593)" fill="white"/>
<circle cx="174.8" cy="5.44264" r="1.52171" transform="rotate(-90 174.8 5.44264)" fill="white"/>
<circle cx="279.675" cy="10.47" r="1.52171" transform="rotate(-90 279.675 10.47)" fill="white"/>
<circle cx="49.0852" cy="51.9138" r="1.52171" transform="rotate(-90 49.0852 51.9138)" fill="white"/>
<circle cx="256.085" cy="49.9138" r="1.52171" transform="rotate(-90 256.085 49.9138)" fill="white"/>
<circle cx="294.612" cy="4.39723" r="1.52171" transform="rotate(-90 294.612 4.39723)" fill="white"/>
<circle cx="50.4031" cy="76.0847" r="1.52171" transform="rotate(90 50.4031 76.0847)" fill="white"/>
<circle cx="226.688" cy="32.9505" r="1.52171" transform="rotate(-90 226.688 32.9505)" fill="white"/>
<circle cx="21.5642" cy="92.094" r="1.52171" transform="rotate(90 21.5642 92.094)" fill="white"/>
<circle cx="255.527" cy="16.9407" r="1.52171" transform="rotate(-90 255.527 16.9407)" fill="white"/>
<circle cx="148.427" cy="84.256" r="1.52171" transform="rotate(-75 148.427 84.256)" fill="white"/>
<circle cx="128.664" cy="24.7791" r="1.52171" transform="rotate(105 128.664 24.7791)" fill="white"/>
</g>
</svg>
