<svg width="297" height="107" viewBox="0 0 297 107" fill="none" xmlns="http://www.w3.org/2000/svg">
<mask id="path-1-inside-1_55_18872" fill="white">
<path fill-rule="evenodd" clip-rule="evenodd" d="M198.047 20.8175C211.175 33.945 218.55 51.7498 218.55 70.3149L278.55 70.3149C288.491 70.3149 296.55 78.3738 296.55 88.3149C296.55 98.2561 288.491 106.315 278.55 106.315L18.5498 106.315C8.60868 106.315 0.549805 98.2561 0.549805 88.3149C0.549805 78.3738 8.60868 70.3149 18.5498 70.3149L78.5498 70.3149C78.5498 51.7498 85.9248 33.945 99.0523 20.8175C112.18 7.68992 129.985 0.314941 148.55 0.314941C167.115 0.314941 184.92 7.68992 198.047 20.8175Z"/>
</mask>
<path d="M218.55 70.3149H215.55V73.3149H218.55V70.3149ZM198.047 20.8175L200.169 18.6961L200.169 18.6961L198.047 20.8175ZM278.55 106.315L278.55 109.315H278.55V106.315ZM18.5498 106.315L18.5498 103.315H18.5498V106.315ZM18.5498 70.3149L18.5498 67.3149H18.5498V70.3149ZM78.5498 70.3149L78.5498 73.3149L81.5498 73.3149V70.3149H78.5498ZM99.0523 20.8175L96.931 18.6961L96.931 18.6961L99.0523 20.8175ZM221.55 70.3149C221.55 50.9541 213.859 32.3863 200.169 18.6961L195.926 22.9388C208.491 35.5037 215.55 52.5454 215.55 70.3149L221.55 70.3149ZM218.55 73.3149L278.55 73.3149V67.3149L218.55 67.3149V73.3149ZM278.55 73.3149C286.834 73.3149 293.55 80.0307 293.55 88.3149H299.55C299.55 76.717 290.148 67.3149 278.55 67.3149V73.3149ZM293.55 88.3149C293.55 96.5992 286.834 103.315 278.55 103.315V109.315C290.148 109.315 299.55 99.9129 299.55 88.3149H293.55ZM278.55 103.315L18.5498 103.315L18.5498 109.315L278.55 109.315L278.55 103.315ZM18.5498 103.315C10.2655 103.315 3.5498 96.5992 3.5498 88.3149H-2.4502C-2.4502 99.9129 6.95182 109.315 18.5498 109.315V103.315ZM3.5498 88.3149C3.5498 80.0307 10.2655 73.3149 18.5498 73.3149V67.3149C6.95183 67.3149 -2.4502 76.717 -2.4502 88.3149H3.5498ZM18.5498 73.3149L78.5498 73.3149L78.5498 67.3149L18.5498 67.3149L18.5498 73.3149ZM96.931 18.6961C83.2409 32.3863 75.5498 50.9541 75.5498 70.3149H81.5498C81.5498 52.5454 88.6087 35.5037 101.174 22.9388L96.931 18.6961ZM148.55 -2.68506C129.189 -2.68506 110.621 5.00599 96.931 18.6961L101.174 22.9388C113.739 10.3738 130.78 3.31494 148.55 3.31494V-2.68506ZM200.169 18.6961C186.478 5.00599 167.911 -2.68506 148.55 -2.68506V3.31494C166.319 3.31494 183.361 10.3739 195.926 22.9388L200.169 18.6961Z" fill="#00B7FF" mask="url(#path-1-inside-1_55_18872)"/>
</svg>
