<svg width="234" height="250" viewBox="0 0 234 250" fill="none" xmlns="http://www.w3.org/2000/svg">
<path d="M117.163 0.161133L233.857 249.392H0.46875L117.163 0.161133Z" fill="#232323"/>
<mask id="mask0_55_23171" style="mask-type:alpha" maskUnits="userSpaceOnUse" x="0" y="0" width="234" height="250">
<path d="M117.163 0.161133L233.857 249.392H0.46875L117.163 0.161133Z" fill="#232323"/>
</mask>
<g mask="url(#mask0_55_23171)">
<circle cx="156.661" cy="190.128" r="2.43474" transform="rotate(-75 156.661 190.128)" fill="white"/>
<circle cx="77.6646" cy="3.68891" r="2.43474" transform="rotate(105 77.6646 3.68891)" fill="white"/>
<circle cx="84.7274" cy="170.344" r="2.43474" transform="rotate(90 84.7274 170.344)" fill="white"/>
<circle cx="149.598" cy="23.473" r="2.43474" transform="rotate(-90 149.598 23.473)" fill="white"/>
<circle cx="204.971" cy="153.291" r="2.43474" transform="rotate(-75 204.971 153.291)" fill="white"/>
<circle cx="29.354" cy="40.5268" r="2.43474" transform="rotate(105 29.354 40.5268)" fill="white"/>
<circle cx="47.5965" cy="218.43" r="2.43474" transform="rotate(90 47.5965 218.43)" fill="white"/>
<circle cx="134.163" cy="163.765" r="2.43474" transform="rotate(-75 134.163 163.765)" fill="white"/>
<circle cx="100.163" cy="30.0522" r="2.43474" transform="rotate(105 100.163 30.0522)" fill="white"/>
<circle cx="113.282" cy="189.986" r="2.43474" transform="rotate(90 113.282 189.986)" fill="white"/>
<circle cx="121.043" cy="3.83137" r="2.43474" transform="rotate(-90 121.043 3.83137)" fill="white"/>
<circle cx="196.163" cy="119.765" r="2.43474" transform="rotate(-75 196.163 119.765)" fill="white"/>
<circle cx="38.1626" cy="74.0522" r="2.43474" transform="rotate(105 38.1626 74.0522)" fill="white"/>
<circle cx="64.7821" cy="248.533" r="2.43474" transform="rotate(90 64.7821 248.533)" fill="white"/>
<circle cx="12.1626" cy="99.7651" r="2.43474" transform="rotate(105 12.1626 99.7651)" fill="white"/>
<circle cx="210.163" cy="49.7651" r="2.43474" transform="rotate(105 210.163 49.7651)" fill="white"/>
<circle cx="63.9588" cy="98.6388" r="2.43474" transform="rotate(90 63.9588 98.6388)" fill="white"/>
<circle cx="170.366" cy="95.1781" r="2.43474" transform="rotate(-90 170.366 95.1781)" fill="white"/>
<circle cx="127.163" cy="240.765" r="2.43474" transform="rotate(-75 127.163 240.765)" fill="white"/>
<circle cx="100.114" cy="113.798" r="2.43474" transform="rotate(90 100.114 113.798)" fill="white"/>
<circle cx="134.211" cy="80.0194" r="2.43474" transform="rotate(-90 134.211 80.0194)" fill="white"/>
<circle cx="12.2938" cy="240.343" r="2.43474" transform="rotate(90 12.2938 240.343)" fill="white"/>
<circle cx="185.163" cy="232.765" r="2.43474" transform="rotate(-75 185.163 232.765)" fill="white"/>
<circle cx="46.161" cy="136.537" r="2.43474" transform="rotate(90 46.161 136.537)" fill="white"/>
<circle cx="188.164" cy="57.2806" r="2.43474" transform="rotate(-90 188.164 57.2806)" fill="white"/>
<circle cx="161.378" cy="146.651" r="2.43474" transform="rotate(-75 161.378 146.651)" fill="white"/>
<circle cx="72.9468" cy="47.166" r="2.43474" transform="rotate(105 72.9468 47.166)" fill="white"/>
<circle cx="91.4227" cy="213.561" r="2.43474" transform="rotate(90 91.4227 213.561)" fill="white"/>
<circle cx="153.163" cy="105.765" r="2.43474" transform="rotate(-75 153.163 105.765)" fill="white"/>
<circle cx="81.1626" cy="88.0522" r="2.43474" transform="rotate(105 81.1626 88.0522)" fill="white"/>
<circle cx="109.94" cy="250.927" r="2.43474" transform="rotate(90 109.94 250.927)" fill="white"/>
<circle cx="97.1626" cy="172.295" r="2.43474" transform="rotate(-75 97.1626 172.295)" fill="white"/>
<circle cx="137.163" cy="21.5219" r="2.43474" transform="rotate(105 137.163 21.5219)" fill="white"/>
<circle cx="146.813" cy="172.17" r="2.43474" transform="rotate(90 146.813 172.17)" fill="white"/>
<circle cx="87.5119" cy="21.6468" r="2.43474" transform="rotate(-90 87.5119 21.6468)" fill="white"/>
<circle cx="179.525" cy="169.473" r="1.52171" transform="rotate(-75 179.525 169.473)" fill="white"/>
<circle cx="54.8004" cy="24.3446" r="1.52171" transform="rotate(105 54.8004 24.3446)" fill="white"/>
<circle cx="67.9881" cy="196.213" r="1.52171" transform="rotate(90 67.9881 196.213)" fill="white"/>
<circle cx="220.979" cy="127.647" r="1.52171" transform="rotate(-75 220.979 127.647)" fill="white"/>
<circle cx="13.3463" cy="66.1702" r="1.52171" transform="rotate(105 13.3463 66.1702)" fill="white"/>
<circle cx="38.7713" cy="247.343" r="1.52171" transform="rotate(90 38.7713 247.343)" fill="white"/>
<circle cx="224.861" cy="160.195" r="1.52171" transform="rotate(-75 224.861 160.195)" fill="white"/>
<circle cx="9.46441" cy="33.6219" r="1.52171" transform="rotate(105 9.46441 33.6219)" fill="white"/>
<circle cx="26.5974" cy="216.908" r="1.52171" transform="rotate(90 26.5974 216.908)" fill="white"/>
<circle cx="-0.793197" cy="212.039" r="1.52171" transform="rotate(90 -0.793197 212.039)" fill="white"/>
<circle cx="171.044" cy="110.647" r="1.52171" transform="rotate(-75 171.044 110.647)" fill="white"/>
<circle cx="63.2808" cy="83.1702" r="1.52171" transform="rotate(105 63.2808 83.1702)" fill="white"/>
<circle cx="91.4041" cy="250.84" r="1.52171" transform="rotate(90 91.4041 250.84)" fill="white"/>
<circle cx="163.044" cy="116.647" r="1.52171" transform="rotate(-75 163.044 116.647)" fill="white"/>
<circle cx="71.2808" cy="77.1702" r="1.52171" transform="rotate(105 71.2808 77.1702)" fill="white"/>
<circle cx="97.5789" cy="242.974" r="1.52171" transform="rotate(90 97.5789 242.974)" fill="white"/>
<circle cx="204.044" cy="164.647" r="1.52171" transform="rotate(-75 204.044 164.647)" fill="white"/>
<circle cx="30.2808" cy="29.1703" r="1.52171" transform="rotate(105 30.2808 29.1703)" fill="white"/>
<circle cx="45.5525" cy="207.221" r="1.52171" transform="rotate(90 45.5525 207.221)" fill="white"/>
<circle cx="154.044" cy="150.647" r="1.52171" transform="rotate(-75 154.044 150.647)" fill="white"/>
<circle cx="80.2808" cy="43.1702" r="1.52171" transform="rotate(105 80.2808 43.1702)" fill="white"/>
<circle cx="97.4724" cy="207.803" r="1.52171" transform="rotate(90 97.4724 207.803)" fill="white"/>
<circle cx="172.033" cy="237.412" r="1.52171" transform="rotate(-75 172.033 237.412)" fill="white"/>
<circle cx="57.6404" cy="128.65" r="1.52171" transform="rotate(90 57.6404 128.65)" fill="white"/>
<circle cx="176.685" cy="65.1673" r="1.52171" transform="rotate(-90 176.685 65.1673)" fill="white"/>
<circle cx="183.17" cy="137.051" r="1.52171" transform="rotate(-75 183.17 137.051)" fill="white"/>
<circle cx="51.1548" cy="56.7664" r="1.52171" transform="rotate(105 51.1548 56.7664)" fill="white"/>
<circle cx="72.8582" cy="228.474" r="1.52171" transform="rotate(90 72.8582 228.474)" fill="white"/>
<circle cx="124.37" cy="191.873" r="1.52171" transform="rotate(-75 124.37 191.873)" fill="white"/>
<circle cx="109.956" cy="1.94418" r="1.52171" transform="rotate(105 109.956 1.94418)" fill="white"/>
<circle cx="115.466" cy="160.301" r="1.52171" transform="rotate(90 115.466 160.301)" fill="white"/>
<circle cx="118.86" cy="33.5164" r="1.52171" transform="rotate(-90 118.86 33.5164)" fill="white"/>
<circle cx="154.044" cy="214.647" r="1.52171" transform="rotate(-75 154.044 214.647)" fill="white"/>
<circle cx="80.908" cy="145.984" r="1.52171" transform="rotate(90 80.908 145.984)" fill="white"/>
<circle cx="153.417" cy="47.8338" r="1.52171" transform="rotate(-90 153.417 47.8338)" fill="white"/>
<circle cx="27.7024" cy="94.3049" r="1.52171" transform="rotate(-90 27.7024 94.3049)" fill="white"/>
<circle cx="234.702" cy="92.3049" r="1.52171" transform="rotate(-90 234.702 92.3049)" fill="white"/>
<circle cx="29.0203" cy="118.476" r="1.52171" transform="rotate(90 29.0203 118.476)" fill="white"/>
<circle cx="205.305" cy="75.3416" r="1.52171" transform="rotate(-90 205.305 75.3416)" fill="white"/>
<circle cx="229.044" cy="246.647" r="1.52171" transform="rotate(-75 229.044 246.647)" fill="white"/>
<circle cx="0.181412" cy="134.486" r="1.52171" transform="rotate(90 0.181412 134.486)" fill="white"/>
<circle cx="234.144" cy="59.3318" r="1.52171" transform="rotate(-90 234.144 59.3318)" fill="white"/>
<circle cx="177.044" cy="195.647" r="1.52171" transform="rotate(-75 177.044 195.647)" fill="white"/>
<circle cx="63.6091" cy="170.289" r="1.52171" transform="rotate(90 63.6091 170.289)" fill="white"/>
<circle cx="170.716" cy="23.5281" r="1.52171" transform="rotate(-90 170.716 23.5281)" fill="white"/>
<circle cx="127.044" cy="126.647" r="1.52171" transform="rotate(-75 127.044 126.647)" fill="white"/>
<circle cx="107.281" cy="67.1702" r="1.52171" transform="rotate(105 107.281 67.1702)" fill="white"/>
<circle cx="129.764" cy="223.997" r="1.52171" transform="rotate(90 129.764 223.997)" fill="white"/>
<circle cx="219.766" cy="190.968" r="1.52171" transform="rotate(-75 219.766 190.968)" fill="white"/>
<circle cx="14.5591" cy="2.84896" r="1.52171" transform="rotate(105 14.5591 2.84896)" fill="white"/>
<circle cx="23.5545" cy="185.865" r="1.52171" transform="rotate(90 23.5545 185.865)" fill="white"/>
<circle cx="210.771" cy="7.95143" r="1.52171" transform="rotate(-90 210.771 7.95143)" fill="white"/>
<circle cx="175.044" cy="206.647" r="1.52171" transform="rotate(-75 175.044 206.647)" fill="white"/>
<circle cx="62.6941" cy="159.146" r="1.52171" transform="rotate(90 62.6941 159.146)" fill="white"/>
<circle cx="171.631" cy="34.6712" r="1.52171" transform="rotate(-90 171.631 34.6712)" fill="white"/>
</g>
</svg>
