<svg width="301" height="109" viewBox="0 0 301 109" fill="none" xmlns="http://www.w3.org/2000/svg">
<mask id="path-1-inside-1_55_22976" fill="white">
<path fill-rule="evenodd" clip-rule="evenodd" d="M200.622 21.7695C213.922 35.0694 221.394 53.108 221.394 71.917L282.182 71.917C292.254 71.917 300.419 80.0817 300.419 90.1534C300.419 100.225 292.254 108.39 282.182 108.39L18.7675 108.39C8.69582 108.39 0.531127 100.225 0.531127 90.1534C0.531128 80.0817 8.69584 71.917 18.7675 71.917L79.5555 71.917C79.5555 53.108 87.0273 35.0694 100.327 21.7694C113.627 8.4695 131.666 0.997661 150.475 0.997663C169.284 0.997664 187.322 8.4695 200.622 21.7695Z"/>
</mask>
<path d="M221.394 71.9169H218.394V74.9169L221.394 74.9169L221.394 71.9169ZM200.622 21.7694L202.744 19.648L202.744 19.648L200.622 21.7694ZM282.182 71.9169L282.182 68.9169L282.182 68.9169L282.182 71.9169ZM282.182 108.39L282.182 111.39H282.182V108.39ZM18.7676 108.39L18.7676 105.39H18.7676V108.39ZM0.53125 90.1533L-2.46875 90.1533L0.53125 90.1533ZM18.7676 71.9169L18.7676 68.9169H18.7676V71.9169ZM79.5556 71.9169L79.5556 74.9169L82.5556 74.9169V71.9169H79.5556ZM100.327 21.7693L102.449 23.8907L102.449 23.8907L100.327 21.7693ZM224.394 71.9169C224.394 52.3123 216.606 33.5106 202.744 19.648L198.501 23.8907C211.239 36.628 218.394 53.9036 218.394 71.9169L224.394 71.9169ZM221.394 74.9169L282.182 74.9169L282.182 68.9169L221.394 68.9169L221.394 74.9169ZM282.182 74.9169C290.597 74.9169 297.419 81.7385 297.419 90.1533H303.419C303.419 78.4247 293.911 68.9169 282.182 68.9169V74.9169ZM297.419 90.1533C297.419 98.5681 290.597 105.39 282.182 105.39V111.39C293.911 111.39 303.419 101.882 303.419 90.1533H297.419ZM282.182 105.39L18.7676 105.39L18.7676 111.39L282.182 111.39L282.182 105.39ZM18.7676 105.39C10.3528 105.39 3.53125 98.5681 3.53125 90.1533L-2.46875 90.1533C-2.46875 101.882 7.03908 111.39 18.7676 111.39V105.39ZM3.53125 90.1533C3.53125 81.7384 10.3528 74.9169 18.7676 74.9169V68.9169C7.03911 68.9169 -2.46875 78.4247 -2.46875 90.1533L3.53125 90.1533ZM18.7676 74.9169L79.5556 74.9169L79.5556 68.9169L18.7676 68.9169L18.7676 74.9169ZM98.2061 19.648C84.3435 33.5106 76.5556 52.3123 76.5556 71.9169H82.5556C82.5556 53.9036 89.7114 36.628 102.449 23.8907L98.2061 19.648ZM150.475 -2.00244C130.87 -2.00244 112.069 5.78546 98.2061 19.648L102.449 23.8907C115.186 11.1533 132.462 3.99756 150.475 3.99756L150.475 -2.00244ZM202.744 19.648C188.881 5.78547 170.08 -2.00244 150.475 -2.00244L150.475 3.99756C168.488 3.99756 185.764 11.1533 198.501 23.8907L202.744 19.648Z" fill="#00B7FF" mask="url(#path-1-inside-1_55_22976)"/>
</svg>
