<svg width="672" height="221" viewBox="0 0 672 221" fill="none" xmlns="http://www.w3.org/2000/svg">
<path d="M389.212 217.167V92.0151L336.287 81.4301H435.077M469.534 3.59912L416.609 123.148L533.044 217.167L576.629 123.148L469.534 3.59912Z" stroke="#00B7FF" stroke-width="3"/>
<path d="M1.30176 80.8076L82.246 100.11L15.6227 146.186L143.888 170.469L26.2077 218.413" stroke="#00B7FF" stroke-width="3"/>
<path d="M86.6045 217.79L128.945 78.3168L186.851 217.79V148.053M186.851 78.3168V148.053M186.851 148.053L252.852 48.4297M186.851 148.053L252.852 217.79L320.72 154.903M320.72 154.903L273.399 106.959M320.72 154.903L388.589 92.0151" stroke="#00B7FF" stroke-width="3"/>
<path d="M413.796 123.075L468.666 0.555664L577.827 121.38L577.857 123.51L577.897 126.249L534.32 220.9L413.796 123.075Z" fill="#232323"/>
<path d="M577.874 218.413V126.261M577.874 34.1089V126.261M577.874 126.261L618.969 85.166M577.874 126.261L670.026 218.413" stroke="#00B7FF" stroke-width="3"/>
<circle cx="472.839" cy="88.2062" r="2.43474" fill="white"/>
<circle cx="520.925" cy="125.336" r="2.43474" fill="white"/>
<circle cx="542.837" cy="160.64" r="2.43474" fill="white"/>
<circle cx="444.231" cy="126.553" r="2.43474" fill="white"/>
<circle cx="516.055" cy="81.5109" r="2.43474" fill="white"/>
<circle cx="474.664" cy="26.1203" r="2.43474" fill="white"/>
<circle cx="498.708" cy="104.945" r="1.52171" fill="white"/>
<circle cx="549.837" cy="134.162" r="1.52171" fill="white"/>
<circle cx="519.404" cy="146.336" r="1.52171" fill="white"/>
<circle cx="514.533" cy="173.727" r="1.52171" fill="white"/>
<circle cx="535.229" cy="201.726" r="1.52171" fill="white"/>
<circle cx="501.143" cy="126.249" r="1.52171" fill="white"/>
<circle cx="431.144" cy="115.293" r="1.52171" fill="white"/>
<circle cx="530.968" cy="100.075" r="1.52171" fill="white"/>
<circle cx="462.795" cy="57.468" r="1.52171" fill="white"/>
<circle cx="470.708" cy="66.5979" r="1.52171" fill="white"/>
<circle cx="488.361" cy="149.379" r="1.52171" fill="white"/>
<rect x="13.4287" y="83.5815" width="26.8701" height="26.8701" transform="rotate(-31.836 13.4287 83.5815)" fill="#F43745"/>
</svg>
