<svg width="477" height="208" viewBox="0 0 477 208" fill="none" xmlns="http://www.w3.org/2000/svg">
<path d="M2.27832 194.652L25.2666 98.4204L40.2364 146.536L57.879 120.34L76.5908 194.652M86.7781 203.832L93.648 180.867M93.648 180.867L106.573 137.661L119.298 174.705M93.648 180.867L119.298 174.705M119.298 174.705L128.75 203.832M132.105 184.662L134.502 154.107M134.502 154.107L136.898 123.552L158.227 141.765L134.502 154.107ZM156.07 201.916L158.227 164.052M158.227 164.052L144.567 167.168M158.227 164.052L175.002 167.168M184.828 159.259V201.916L195.852 174.705L204.958 199.28M206.156 141.765L207.954 163.213M209.751 184.662L207.954 163.213M207.954 163.213L225.328 154.107M225.328 154.107V139.608M225.328 154.107L227.725 180.867M326.939 171.481L314.717 163.213L306.569 185.86L326.939 204.553L329.575 197.603M279.249 159.259L284.042 201.916L299.379 185.86L288.835 178.191L291.95 165.49L279.249 159.259Z" stroke="#00B7FF" stroke-width="3"/>
<rect x="236.949" y="165.828" width="21.8086" height="31.873" transform="rotate(-41.1158 236.949 165.828)" stroke="#00B7FF" stroke-width="3"/>
<path d="M379.216 202.35L386.175 176.251L393.844 175.43M454.322 202.35L434.893 171.032L426.773 171.902M426.773 171.902L405.894 102.595L393.844 175.43M426.773 171.902L393.844 175.43" stroke="#00B7FF" stroke-width="3"/>
<path d="M469.861 191.593L463.458 197.868L467.556 202.35L474.472 200.173L469.861 191.593Z" stroke="#00B7FF" stroke-width="3"/>
<path d="M138.57 2.24951L110.267 8.63297L113.228 55.6138M113.228 55.6138L116.19 102.595L154.69 72.9792L113.228 55.6138Z" stroke="#00B7FF" stroke-width="3"/>
<path d="M127.804 24.7725L136.132 18.0308L147.236 25.7639L131.571 51.7393L151.598 50.153" stroke="#00B7FF" stroke-width="3"/>
<path d="M161.115 31.7127L169.641 21.4019L192.246 31.7127L158.339 97.3453L192.246 96.1556" stroke="#00B7FF" stroke-width="3"/>
<path d="M306.311 10.4731V59.3724" stroke="#00B7FF" stroke-width="3"/>
<rect x="338.552" y="29.0799" width="29.0938" height="38.1384" transform="rotate(37.8399 338.552 29.0799)" stroke="#00B7FF" stroke-width="3"/>
<path d="M208.04 97.1259L215.783 69.7997L221.33 69.2308M272.257 97.1259L251.307 66.1561L244.454 66.859M221.33 69.2308L229.901 11.0488L244.454 66.859M221.33 69.2308L244.454 66.859M251.307 22.89L282.732 36.553L258.594 52.0379L311.424 83.0075L286.831 97.1259" stroke="#00B7FF" stroke-width="3"/>
</svg>
