<svg width="443" height="166" viewBox="0 0 443 166" fill="none" xmlns="http://www.w3.org/2000/svg">
<path d="M147.711 81.1453C143.755 54.2395 135.975 3.35621 134.758 3.35621C133.518 3.35621 125.799 3.35621 122.095 3.35621L112.791 81.1453H125.454L123.387 66.9314H132.949L134.758 81.1453L147.938 82.696C147.864 82.1886 147.788 81.6716 147.711 81.1453ZM147.711 81.1453H160.343C158.017 69.7742 154.968 47.0319 161.377 47.0319C167.786 47.0319 168.872 54.0958 168.613 57.6277V81.1453C173.954 81.1453 184.016 81.1453 181.535 81.1453C178.434 81.1453 178.434 65.1223 179.984 52.459C181.225 42.3283 175.16 39.6234 171.973 39.5372C173.782 40.7433 177.917 39.3305 179.984 24.0311C182.052 8.73172 175.505 3.8731 171.973 3.35621H147.938L147.711 81.1453ZM1.92188 3.35621H15.3613L12.2597 34.1101H22.0803L23.3725 3.35621H33.9683V81.1453H23.3725L24.9231 47.0319H12.2597L15.3613 81.1453H1.92188V3.35621ZM68.8571 29.7167L58.2612 28.4245C58.7781 22.8251 58.5197 11.833 53.351 12.6599C48.1823 13.4869 49.6467 21.9636 51.025 26.0986C57.4859 33.6794 70.4077 50.1848 70.4077 55.5602C70.4077 62.2796 70.6661 82.696 53.351 82.696C39.4988 82.696 37.7587 62.538 38.6201 52.459H48.4407C47.4931 58.3169 46.6833 70.0326 51.025 70.0326C56.4522 70.0326 58.2612 68.2236 58.2612 57.6277C58.2612 47.0319 42.2382 42.1216 40.4292 34.1101C38.6201 26.0986 33.4514 0.255104 53.351 1.80566C69.2706 3.0461 70.3216 20.9299 68.8571 29.7167ZM100.645 3.35621V13.9521H87.206L88.7566 35.9191H96.2513V47.0319H85.397L83.071 70.0326H100.645L102.712 81.1453H74.2842L76.8686 5.16531L100.645 3.35621ZM125.454 55.5602L128.297 28.4245L132.949 55.5602H125.454ZM181.535 3.35621L184.119 13.9521H191.097V81.1453H204.536L202.727 16.278H214.098V3.35621H181.535ZM221.851 81.1453L232.447 3.35621H244.593L254.672 79.5947H244.593L241.492 66.9314L234.256 68.482V81.1453H221.851ZM234.256 54.5265L238.391 27.1323L241.492 57.6277L234.256 54.5265ZM259.582 3.35621H267.852L276.381 42.6385L279.74 3.35621L289.303 5.42375V81.1453L281.291 79.5947L267.852 37.7282V81.1453H258.032L259.582 3.35621ZM294.471 3.35621L298.089 81.1453C302.655 82.0929 313.492 82.7993 320.315 78.0441C327.137 73.2889 326.603 50.3915 325.483 39.5372C324.967 27.4769 321.349 3.35621 311.011 3.35621C300.674 3.35621 295.677 3.35621 294.471 3.35621ZM302.224 13.9521L306.359 72.8754C308.771 72.9615 313.802 71.8933 314.629 66.9314C315.663 60.7289 314.112 16.278 308.168 13.9521C303.413 12.0914 302.224 13.1768 302.224 13.9521ZM1.92188 85.2803V162.811C9.07207 163.845 24.6646 164.362 29.8333 158.159C35.0021 151.957 34.7436 149.889 33.9683 149.631V99.4942C33.8822 94.7563 32.2109 85.2803 26.2152 85.2803C20.2195 85.2803 7.52146 85.2803 1.92188 85.2803ZM12.2597 95.6177L13.5519 150.923C16.3947 151.267 22.0803 150.82 22.0803 146.271C22.0803 141.723 22.0803 114.053 22.0803 100.786C21.6496 99.0635 19.0824 95.6177 12.2597 95.6177ZM37.0695 87.3478L38.6201 161.002L64.2053 162.811V149.631H51.025V126.888H59.8119L61.6209 116.809H51.025L48.4407 97.4268L64.2053 95.6177V85.2803L37.0695 87.3478ZM87.206 109.315H98.5772C99.3525 102.682 99.9727 89.0018 96.2513 87.3478C91.5994 85.2803 79.7114 79.0779 74.2842 87.3478C68.8571 95.6177 67.3065 101.82 68.8571 109.315C70.4077 116.809 82.0373 135.675 85.397 138.26C88.7566 140.844 89.2735 152.215 83.071 150.923C78.1091 149.889 78.0746 138.949 78.6776 133.608H68.8571C68.5987 140.844 68.547 155.885 70.4077 158.159C72.7336 161.002 81.262 165.395 88.7566 164.103C96.2513 162.811 105.038 150.664 100.645 136.451C96.2513 122.237 83.8463 116.293 81.262 109.315C78.6776 102.337 82.0373 91.9996 85.397 93.8087C88.0847 95.2559 87.7229 104.749 87.206 109.315ZM102.712 85.2803L115.634 87.3478V162.811H103.746L102.712 85.2803ZM134.758 116.809C135.792 116.809 135.189 123.529 134.758 126.888H141.477L140.444 146.271C140.185 147.822 138.996 150.923 136.309 150.923C133.621 150.923 132.949 146.271 132.949 143.945V97.4268C132.691 96.2207 133.001 93.8087 136.309 93.8087C139.617 93.8087 140.444 104.146 140.444 109.315H150.264C151.126 102.165 151.35 87.3478 145.354 85.2803C137.859 82.696 124.679 82.4375 123.387 87.3478C122.095 92.2581 118.994 152.215 120.544 155.833C122.095 159.451 129.073 164.62 134.758 162.811C139.307 161.364 142.339 157.556 143.286 155.833L145.354 161.002L152.59 162.811V115L134.758 116.809ZM155.691 85.2803H168.613L177.142 123.787V85.2803L186.704 87.3478L189.03 161.002L179.984 162.811L166.029 118.36L168.613 162.811H158.276L155.691 85.2803ZM202.727 133.608H212.03C211.772 138.776 211.824 149.476 214.098 150.923C216.941 152.732 220.042 152.99 221.851 149.631C223.298 146.943 222.454 140.93 221.851 138.26C216.682 132.229 205.983 117.998 204.536 109.315C202.727 98.4605 204.536 87.8647 209.963 85.2803C215.39 82.696 228.053 83.2128 229.346 85.2803C230.638 87.3478 232.447 85.0219 232.447 95.6177C232.447 104.094 232.447 109.659 232.447 111.382L221.851 109.315V95.6177C220.3 93.5502 216.889 91.0176 215.648 97.4268C214.098 105.438 215.907 111.641 220.042 115C224.177 118.36 232.447 124.562 232.447 133.608C232.447 142.653 236.323 161.519 227.536 162.811C218.75 164.103 201.434 167.721 201.434 155.833C201.434 146.323 202.296 137.054 202.727 133.608ZM258.032 112.674H267.852C269.575 104.405 270.644 87.3478 261.133 85.2803C249.245 82.696 240.975 82.6959 239.683 89.1568C238.391 95.6177 238.391 152.474 241.492 157.642C244.593 162.811 254.414 166.171 261.133 161.002C266.509 156.867 267.852 149.458 267.852 146.271V128.439H258.032V149.631C256.309 151.526 252.243 154.179 249.762 149.631C247.281 145.082 248.728 113.794 249.762 98.7189C249.762 97.6852 250.434 95.6177 253.122 95.6177C255.809 95.6177 257.515 98.5467 258.032 100.011V112.674ZM272.504 85.2803L281.291 87.3478L284.392 116.809H291.628V83.9881L302.224 85.2803L305.067 162.811L294.471 161.002L291.628 126.888H284.392V162.811H275.347L272.504 85.2803ZM320.315 98.7189C320.746 96.4792 322.382 92.3614 325.483 93.8087C328.585 95.2559 329.705 98.5467 329.877 100.011V146.271C330.135 148.597 329.618 153.145 325.483 152.732C321.349 152.318 320.315 150.492 320.315 149.631V98.7189ZM308.168 95.6177L311.011 152.732C310.58 155.489 311.58 161.364 319.023 162.811C328.326 164.62 335.821 162.036 338.922 158.934C341.403 156.453 341.162 114.484 340.731 93.8087C340.3 90.5352 336.958 83.9881 327.034 83.9881C314.629 83.9881 307.706 86.337 308.168 95.6177ZM357.271 100.011C357.53 98.5467 358.822 95.6177 361.923 95.6177C365.024 95.6177 365.972 98.5467 366.058 100.011V149.631C365.713 150.664 364.404 152.732 361.923 152.732C359.442 152.732 357.788 150.664 357.271 149.631V100.011ZM360.631 83.9881C355.979 82.7821 346.675 83.0578 346.675 93.8087C346.675 104.56 346.675 137.57 346.675 152.732C347.192 156.522 350.707 164.103 360.631 164.103C370.555 164.103 375.275 158.59 376.395 155.833V91.7412C376.568 89.1568 373.656 83.9881 360.631 83.9881ZM382.081 83.9881L393.452 85.2803V149.631L408.441 150.923L411.284 161.002H383.631L382.081 83.9881ZM158.591 13.9521L160.343 35.9191C162.543 36.8038 167.276 36.1109 168.613 26.2626C169.95 16.4142 162.489 13.9521 158.591 13.9521Z" stroke="#00B7FF" stroke-width="3"/>
<circle cx="425.62" cy="99.6562" r="15.1113" stroke="#00B7FF" stroke-width="3"/>
<path d="M430.068 96.1064C430.229 91.9183 424.546 91.6755 422.398 91.6084L422.401 106.752H425.956M430.068 96.1064C429.907 100.294 423.542 100.946 421.998 99.6042C423.34 100.275 431.408 102.242 431.005 106.752H425.956M430.068 96.1064H423.243M425.956 106.752V101.692" stroke="#00B7FF" stroke-width="3"/>
</svg>
