<svg width="379" height="275" viewBox="0 0 379 275" fill="none" xmlns="http://www.w3.org/2000/svg">
<path d="M54.1625 38.832L59.0677 64.9931H19.8267L64.519 107.505L3.47559 156.013L47.6229 180.539L44.3523 226.867L106.486 214.876L138.642 254.663L220.397 218.691L253.643 247.033L293.975 218.691L362.649 271.559L353.384 186.535L375.73 156.013L353.384 131.487L375.73 115.136L305.421 69.8984L293.975 25.7511L220.397 56.2727L124.472 2.85986L97.2201 46.4622L54.1625 38.832Z" stroke="#00B7FF" stroke-width="3"/>
<path d="M70.3438 178.647L85.3789 140.142L91.2091 139.68M170.821 178.647L131.583 136.475L121.687 137.261M91.2091 139.68L98.9467 76.3359L121.687 137.261M91.2091 139.68L121.687 137.261M142.218 83.3035C146.325 85.0636 168.132 96.9938 178.522 102.739L153.952 116.307L204.558 136.475L162.02 151.511M227.293 107.506L207.491 170.579L238.295 141.976L241.962 178.647M252.192 94.1512L254.167 127.308M256.371 163.295L254.167 127.308M254.167 127.308L271.219 116.307M271.219 116.307L279.165 151.511M271.219 116.307L265.489 89.5923M302.06 124.995L292.471 150.822M292.471 150.822L282.883 176.649L300.204 166.751L292.471 150.822Z" stroke="#00B7FF" stroke-width="3"/>
<path d="M322.405 153.97L307.026 174.434M307.026 174.434L298.822 185.351H309.853L307.026 174.434ZM329.252 179.835L319.189 188.983M319.189 188.983L312.516 195.05L320.884 197.333L319.189 188.983ZM332.485 201.517L325.175 205.591M325.175 205.591L320.884 207.983L326.78 210.646L325.175 205.591ZM332.485 218.581L329.633 219.681M329.633 219.681L326.78 220.781L329.252 222.038L329.633 219.681Z" stroke="#00B7FF" stroke-width="3"/>
</svg>
