<svg width="376" height="272" viewBox="0 0 376 272" fill="none" xmlns="http://www.w3.org/2000/svg">
<path d="M52.5599 37.6294L57.4652 63.7905H18.2241L62.9165 106.303L1.87305 154.81L46.0204 179.337L42.7498 225.664L104.883 213.673L137.04 253.461L218.794 217.489L252.041 245.83L292.373 217.489L361.047 270.356L351.781 185.332L374.127 154.81L351.781 130.284L374.127 113.933L303.819 68.6958L292.373 24.5485L218.794 55.0701L122.869 1.65723L95.6176 45.2595L52.5599 37.6294Z" fill="#EAE8E4" stroke="#00B7FF"/>
<path d="M68.7412 177.444L83.7764 138.94L89.6066 138.477M169.218 177.444L129.981 135.273L120.084 136.058M89.6066 138.477L97.3441 75.1333L120.084 136.058M89.6066 138.477L120.084 136.058M140.615 82.1008C144.722 83.861 166.529 95.7911 176.919 101.536L152.35 115.104L202.955 135.273L160.417 150.308M225.691 106.303L205.889 169.377L236.692 140.774L240.359 177.444M250.589 92.9486L252.564 126.105M254.768 162.092L252.564 126.105M252.564 126.105L269.616 115.104M269.616 115.104L277.563 150.308M269.616 115.104L263.886 88.3897M300.457 123.792L290.869 149.619M290.869 149.619L281.28 175.446L298.601 165.548L290.869 149.619Z" stroke="#00B7FF" stroke-width="3"/>
<path d="M320.803 152.767L305.424 173.231M305.424 173.231L297.22 184.148H308.251L305.424 173.231ZM327.65 178.633L317.587 187.781M317.587 187.781L310.913 193.848L319.281 196.13L317.587 187.781ZM330.883 200.314L323.573 204.389M323.573 204.389L319.281 206.781L325.177 209.443L323.573 204.389ZM330.883 217.378L328.03 218.478M328.03 218.478L325.177 219.578L327.65 220.836L328.03 218.478Z" stroke="#00B7FF" stroke-width="3"/>
</svg>
