<svg width="566" height="1247" viewBox="0 0 566 1247" fill="none" xmlns="http://www.w3.org/2000/svg">
<mask id="path-1-inside-1_55_19680" fill="white">
<path fill-rule="evenodd" clip-rule="evenodd" d="M284.166 0.225369C261.782 0.267343 243.602 18.4474 243.56 40.8316L242.831 432.176C163.54 450.99 104.383 522.685 104.223 608.145C104.147 649.131 117.652 686.899 140.468 717.152C56.9392 766.672 0.763126 858.067 0.568522 962.523C0.276187 1119.44 126.421 1246.4 282.321 1246.11C438.221 1245.82 564.84 1118.38 565.132 961.464C565.327 857.009 509.491 765.824 426.146 716.617C449.075 686.278 462.721 648.458 462.798 607.473C462.957 521.671 403.593 449.966 323.892 431.802L324.621 40.6797C324.662 18.2954 306.55 0.183395 284.166 0.225369Z"/>
</mask>
<path d="M243.56 40.8316L246.56 40.8372L243.56 40.8316ZM284.166 0.225369L284.171 3.22536L284.166 0.225369ZM242.831 432.176L243.523 435.095L245.826 434.549L245.831 432.182L242.831 432.176ZM104.223 608.145L101.223 608.14L101.223 608.14L104.223 608.145ZM140.468 717.152L141.998 719.733L144.882 718.023L142.863 715.346L140.468 717.152ZM0.568522 962.523L3.56852 962.528L0.568522 962.523ZM282.321 1246.11L282.327 1249.11L282.327 1249.11L282.321 1246.11ZM565.132 961.464L562.132 961.459L562.132 961.459L565.132 961.464ZM426.146 716.617L423.753 714.808L421.726 717.49L424.621 719.2L426.146 716.617ZM462.798 607.473L459.798 607.467L459.798 607.467L462.798 607.473ZM323.892 431.802L320.892 431.797L320.887 434.195L323.225 434.727L323.892 431.802ZM324.621 40.6797L327.621 40.6853L327.621 40.6853L324.621 40.6797ZM246.56 40.8372C246.599 20.1054 263.44 3.26424 284.171 3.22536L284.16 -2.77463C260.123 -2.72955 240.605 16.7893 240.56 40.8261L246.56 40.8372ZM245.831 432.182L246.56 40.8372L240.56 40.8261L239.831 432.171L245.831 432.182ZM242.138 429.257C161.517 448.387 101.385 521.271 101.223 608.14L107.223 608.151C107.38 524.099 165.563 453.593 243.523 435.095L242.138 429.257ZM101.223 608.14C101.146 649.798 114.875 688.199 138.073 718.958L142.863 715.346C120.429 685.599 107.148 648.463 107.223 608.151L101.223 608.14ZM138.938 714.572C54.5335 764.611 -2.23483 856.965 -2.43147 962.517L3.56852 962.528C3.76108 859.169 59.3448 768.733 141.998 719.733L138.938 714.572ZM-2.43147 962.517C-2.72687 1121.07 124.747 1249.4 282.327 1249.11L282.315 1243.11C128.095 1243.4 3.27924 1117.8 3.56852 962.528L-2.43147 962.517ZM282.327 1249.11C439.897 1248.81 567.837 1120.02 568.132 961.47L562.132 961.459C561.843 1116.74 436.545 1242.82 282.315 1243.11L282.327 1249.11ZM568.132 961.47C568.329 855.916 511.902 763.763 427.672 714.033L424.621 719.2C507.081 767.884 562.325 858.101 562.132 961.459L568.132 961.47ZM428.54 718.425C451.848 687.585 465.72 649.137 465.798 607.478L459.798 607.467C459.723 647.78 446.303 684.971 423.753 714.808L428.54 718.425ZM465.798 607.478C465.96 520.258 405.611 447.349 324.559 428.877L323.225 434.727C401.576 452.584 459.955 523.084 459.798 607.467L465.798 607.478ZM321.621 40.6741L320.892 431.797L326.892 431.808L327.621 40.6853L321.621 40.6741ZM284.171 3.22536C304.894 3.1865 321.659 19.9511 321.621 40.6741L327.621 40.6853C327.665 16.6398 308.206 -2.81972 284.16 -2.77463L284.171 3.22536Z" fill="#00B7FF" mask="url(#path-1-inside-1_55_19680)"/>
</svg>
