<svg width="861" height="1321" viewBox="0 0 861 1321" fill="none" xmlns="http://www.w3.org/2000/svg">
<path fill-rule="evenodd" clip-rule="evenodd" d="M307.689 51.7052C307.731 29.3209 325.91 11.1409 348.295 11.0989C370.679 11.0569 388.791 29.1689 388.75 51.5532L388.021 442.676C467.722 460.84 527.086 532.544 526.926 618.346C526.85 659.332 513.204 697.151 490.275 727.49C573.62 776.697 629.456 867.882 629.261 972.338C628.969 1129.25 502.35 1256.69 346.45 1256.98C190.55 1257.27 64.4051 1130.31 64.6974 973.396C64.8921 868.941 121.068 777.546 204.597 728.026C181.781 697.773 168.276 660.004 168.352 619.019C168.512 533.559 227.669 461.863 306.96 443.05L307.689 51.7052ZM346.879 1026.62C389.541 1026.54 424.19 991.665 424.27 948.726C424.35 905.787 389.831 871.043 347.169 871.123C304.507 871.203 269.858 906.077 269.778 949.016C269.698 991.955 304.217 1026.7 346.879 1026.62Z" fill="#232323"/>
<mask id="mask0_55_22959" style="mask-type:alpha" maskUnits="userSpaceOnUse" x="64" y="11" width="566" height="1246">
<path fill-rule="evenodd" clip-rule="evenodd" d="M348.295 11.0989C325.91 11.1409 307.731 29.3209 307.689 51.7052L306.96 443.05C227.669 461.863 168.512 533.559 168.352 619.019C168.276 660.004 181.781 697.773 204.597 728.026C121.068 777.546 64.892 868.941 64.6974 973.396C64.4051 1130.31 190.55 1257.27 346.45 1256.98C502.35 1256.69 628.969 1129.25 629.261 972.338C629.456 867.882 573.62 776.697 490.275 727.49C513.204 697.151 526.85 659.332 526.926 618.346C527.086 532.544 467.722 460.84 388.021 442.676L388.75 51.5532C388.791 29.1689 370.679 11.0569 348.295 11.0989Z" fill="#232323"/>
</mask>
<g mask="url(#mask0_55_22959)">
<circle cx="372.899" cy="644.786" r="2.43474" transform="rotate(-60 372.899 644.786)" fill="white"/>
<circle cx="344.849" cy="444.254" r="2.43474" transform="rotate(120 344.849 444.254)" fill="white"/>
<circle cx="308.538" cy="607.059" r="2.43474" transform="rotate(105 308.538 607.059)" fill="white"/>
<circle cx="409.211" cy="481.982" r="2.43474" transform="rotate(-75 409.211 481.982)" fill="white"/>
<circle cx="429.098" cy="621.707" r="2.43474" transform="rotate(-60 429.098 621.707)" fill="white"/>
<circle cx="288.651" cy="467.333" r="2.43474" transform="rotate(120 288.651 467.333)" fill="white"/>
<circle cx="260.227" cy="643.896" r="2.43474" transform="rotate(105 260.227 643.896)" fill="white"/>
<circle cx="457.522" cy="445.145" r="2.43474" transform="rotate(-75 457.522 445.145)" fill="white"/>
<circle cx="495.052" cy="627.448" r="2.43474" transform="rotate(-60 495.052 627.448)" fill="white"/>
<circle cx="222.698" cy="461.593" r="2.43474" transform="rotate(120 222.698 461.593)" fill="white"/>
<circle cx="195.036" cy="655.422" r="2.43474" transform="rotate(105 195.036 655.422)" fill="white"/>
<circle cx="522.712" cy="433.619" r="2.43474" transform="rotate(-75 522.712 433.619)" fill="white"/>
<circle cx="357.991" cy="613.498" r="2.43474" transform="rotate(-60 357.991 613.498)" fill="white"/>
<circle cx="359.757" cy="475.542" r="2.43474" transform="rotate(120 359.757 475.542)" fill="white"/>
<circle cx="331.036" cy="633.422" r="2.43474" transform="rotate(105 331.036 633.422)" fill="white"/>
<circle cx="386.713" cy="455.619" r="2.43474" transform="rotate(-75 386.713 455.619)" fill="white"/>
<circle cx="429.267" cy="587.045" r="2.43474" transform="rotate(-60 429.267 587.045)" fill="white"/>
<circle cx="288.482" cy="501.996" r="2.43474" transform="rotate(120 288.482 501.996)" fill="white"/>
<circle cx="269.036" cy="677.421" r="2.43474" transform="rotate(105 269.036 677.421)" fill="white"/>
<circle cx="448.713" cy="411.619" r="2.43474" transform="rotate(-75 448.713 411.619)" fill="white"/>
<circle cx="487.809" cy="596.519" r="2.43474" transform="rotate(-60 487.809 596.519)" fill="white"/>
<circle cx="229.94" cy="492.521" r="2.43474" transform="rotate(120 229.94 492.521)" fill="white"/>
<circle cx="256.713" cy="520.104" r="2.43474" transform="rotate(120 256.713 520.104)" fill="white"/>
<circle cx="460.907" cy="523.053" r="2.43474" transform="rotate(120 460.907 523.053)" fill="white"/>
<circle cx="210.036" cy="683.421" r="2.43474" transform="rotate(105 210.036 683.421)" fill="white"/>
<circle cx="507.713" cy="405.619" r="2.43474" transform="rotate(-75 507.713 405.619)" fill="white"/>
<circle cx="466.22" cy="711.862" r="2.43474" transform="rotate(-60 466.22 711.862)" fill="white"/>
<circle cx="251.528" cy="377.178" r="2.43474" transform="rotate(120 251.528 377.178)" fill="white"/>
<circle cx="201.035" cy="566.421" r="2.43474" transform="rotate(105 201.035 566.421)" fill="white"/>
<circle cx="516.713" cy="522.619" r="2.43474" transform="rotate(-75 516.713 522.619)" fill="white"/>
<circle cx="494.353" cy="726.647" r="2.43474" transform="rotate(-60 494.353 726.647)" fill="white"/>
<circle cx="223.396" cy="362.394" r="2.43474" transform="rotate(120 223.396 362.394)" fill="white"/>
<circle cx="170.036" cy="559.421" r="2.43474" transform="rotate(105 170.036 559.421)" fill="white"/>
<circle cx="547.713" cy="529.619" r="2.43474" transform="rotate(-75 547.713 529.619)" fill="white"/>
<circle cx="203.579" cy="511.511" r="2.43474" transform="rotate(-75 203.579 511.511)" fill="white"/>
<circle cx="429.806" cy="727.987" r="2.43474" transform="rotate(-60 429.806 727.987)" fill="white"/>
<circle cx="287.943" cy="361.054" r="2.43474" transform="rotate(120 287.943 361.054)" fill="white"/>
<circle cx="232.036" cy="541.421" r="2.43474" transform="rotate(105 232.036 541.421)" fill="white"/>
<circle cx="485.713" cy="547.619" r="2.43474" transform="rotate(-75 485.713 547.619)" fill="white"/>
<circle cx="510.434" cy="583.38" r="2.43474" transform="rotate(-75 510.434 583.38)" fill="white"/>
<circle cx="355.033" cy="717.269" r="2.43474" transform="rotate(-60 355.033 717.269)" fill="white"/>
<circle cx="362.716" cy="371.772" r="2.43474" transform="rotate(120 362.716 371.772)" fill="white"/>
<circle cx="307.036" cy="532.421" r="2.43474" transform="rotate(105 307.036 532.421)" fill="white"/>
<circle cx="410.713" cy="556.619" r="2.43474" transform="rotate(-75 410.713 556.619)" fill="white"/>
<circle cx="473.865" cy="675.605" r="2.43474" transform="rotate(-60 473.865 675.605)" fill="white"/>
<circle cx="243.883" cy="413.435" r="2.43474" transform="rotate(120 243.883 413.435)" fill="white"/>
<circle cx="203.036" cy="603.421" r="2.43474" transform="rotate(105 203.036 603.421)" fill="white"/>
<circle cx="514.713" cy="485.619" r="2.43474" transform="rotate(-75 514.713 485.619)" fill="white"/>
<circle cx="331.301" cy="686.063" r="2.43474" transform="rotate(-60 331.301 686.063)" fill="white"/>
<circle cx="386.448" cy="402.977" r="2.43474" transform="rotate(120 386.448 402.977)" fill="white"/>
<circle cx="338.036" cy="556.421" r="2.43474" transform="rotate(105 338.036 556.421)" fill="white"/>
<circle cx="379.713" cy="532.619" r="2.43474" transform="rotate(-75 379.713 532.619)" fill="white"/>
<circle cx="470.628" cy="620.382" r="2.43474" transform="rotate(-60 470.628 620.382)" fill="white"/>
<circle cx="247.121" cy="468.658" r="2.43474" transform="rotate(120 247.121 468.658)" fill="white"/>
<circle cx="220.456" cy="655.925" r="2.43474" transform="rotate(105 220.456 655.925)" fill="white"/>
<circle cx="497.293" cy="433.115" r="2.43474" transform="rotate(-75 497.293 433.115)" fill="white"/>
<circle cx="389.395" cy="693.347" r="2.43474" transform="rotate(-60 389.395 693.347)" fill="white"/>
<circle cx="328.354" cy="395.693" r="2.43474" transform="rotate(120 328.354 395.693)" fill="white"/>
<circle cx="280.036" cy="564.421" r="2.43474" transform="rotate(105 280.036 564.421)" fill="white"/>
<circle cx="437.713" cy="524.619" r="2.43474" transform="rotate(-75 437.713 524.619)" fill="white"/>
<circle cx="388.71" cy="604.012" r="2.43474" transform="rotate(-60 388.71 604.012)" fill="white"/>
<circle cx="329.039" cy="485.029" r="2.43474" transform="rotate(120 329.039 485.029)" fill="white"/>
<circle cx="303.82" cy="650.536" r="2.43474" transform="rotate(105 303.82 650.536)" fill="white"/>
<circle cx="413.929" cy="438.505" r="2.43474" transform="rotate(-75 413.929 438.505)" fill="white"/>
<circle cx="391.355" cy="562.393" r="2.43474" transform="rotate(-60 391.355 562.393)" fill="white"/>
<circle cx="326.394" cy="526.648" r="2.43474" transform="rotate(120 326.394 526.648)" fill="white"/>
<circle cx="312.036" cy="691.421" r="2.43474" transform="rotate(105 312.036 691.421)" fill="white"/>
<circle cx="405.713" cy="397.619" r="2.43474" transform="rotate(-75 405.713 397.619)" fill="white"/>
<circle cx="320.045" cy="612.162" r="2.43474" transform="rotate(-60 320.045 612.162)" fill="white"/>
<circle cx="397.704" cy="476.879" r="2.43474" transform="rotate(120 397.704 476.879)" fill="white"/>
<circle cx="368.036" cy="624.892" r="2.43474" transform="rotate(105 368.036 624.892)" fill="white"/>
<circle cx="349.713" cy="464.149" r="2.43474" transform="rotate(-75 349.713 464.149)" fill="white"/>
<circle cx="400.331" cy="630.753" r="1.52171" transform="rotate(-60 400.331 630.753)" fill="white"/>
<circle cx="317.418" cy="458.288" r="1.52171" transform="rotate(120 317.418 458.288)" fill="white"/>
<circle cx="285.673" cy="627.714" r="1.52171" transform="rotate(105 285.673 627.714)" fill="white"/>
<circle cx="432.076" cy="461.326" r="1.52171" transform="rotate(-75 432.076 461.326)" fill="white"/>
<circle cx="451.198" cy="601.081" r="1.52171" transform="rotate(-60 451.198 601.081)" fill="white"/>
<circle cx="266.551" cy="487.96" r="1.52171" transform="rotate(120 266.551 487.96)" fill="white"/>
<circle cx="244.219" cy="669.54" r="1.52171" transform="rotate(105 244.219 669.54)" fill="white"/>
<circle cx="473.53" cy="419.501" r="1.52171" transform="rotate(-75 473.53 419.501)" fill="white"/>
<circle cx="477.479" cy="599.841" r="1.52171" transform="rotate(-60 477.479 599.841)" fill="white"/>
<circle cx="240.269" cy="489.2" r="1.52171" transform="rotate(120 240.269 489.2)" fill="white"/>
<circle cx="219.154" cy="677.54" r="1.52171" transform="rotate(105 219.154 677.54)" fill="white"/>
<circle cx="498.595" cy="411.501" r="1.52171" transform="rotate(-75 498.595 411.501)" fill="white"/>
<circle cx="470.529" cy="594.873" r="1.52171" transform="rotate(-60 470.529 594.873)" fill="white"/>
<circle cx="247.22" cy="494.168" r="1.52171" transform="rotate(120 247.22 494.168)" fill="white"/>
<circle cx="232.878" cy="504.277" r="1.52171" transform="rotate(120 232.878 504.277)" fill="white"/>
<circle cx="227.154" cy="680.54" r="1.52171" transform="rotate(105 227.154 680.54)" fill="white"/>
<circle cx="490.595" cy="408.501" r="1.52171" transform="rotate(-75 490.595 408.501)" fill="white"/>
<circle cx="486.602" cy="619.885" r="1.52171" transform="rotate(-60 486.602 619.885)" fill="white"/>
<circle cx="231.146" cy="469.156" r="1.52171" transform="rotate(120 231.146 469.156)" fill="white"/>
<circle cx="205.154" cy="660.54" r="1.52171" transform="rotate(105 205.154 660.54)" fill="white"/>
<circle cx="512.595" cy="428.501" r="1.52171" transform="rotate(-75 512.595 428.501)" fill="white"/>
<circle cx="446.523" cy="633.525" r="1.52171" transform="rotate(-60 446.523 633.525)" fill="white"/>
<circle cx="271.226" cy="455.515" r="1.52171" transform="rotate(120 271.226 455.515)" fill="white"/>
<circle cx="240.336" cy="636.991" r="1.52171" transform="rotate(105 240.336 636.991)" fill="white"/>
<circle cx="477.412" cy="452.049" r="1.52171" transform="rotate(-75 477.412 452.049)" fill="white"/>
<circle cx="467.81" cy="651.437" r="1.52171" transform="rotate(-60 467.81 651.437)" fill="white"/>
<circle cx="249.939" cy="437.603" r="1.52171" transform="rotate(120 249.939 437.603)" fill="white"/>
<circle cx="215.14" cy="625.199" r="1.52171" transform="rotate(105 215.14 625.199)" fill="white"/>
<circle cx="502.609" cy="463.841" r="1.52171" transform="rotate(-75 502.609 463.841)" fill="white"/>
<circle cx="502.406" cy="647.514" r="1.52171" transform="rotate(-60 502.406 647.514)" fill="white"/>
<circle cx="215.343" cy="441.526" r="1.52171" transform="rotate(120 215.343 441.526)" fill="white"/>
<circle cx="182.738" cy="637.942" r="1.52171" transform="rotate(105 182.738 637.942)" fill="white"/>
<circle cx="535.011" cy="451.098" r="1.52171" transform="rotate(-75 535.011 451.098)" fill="white"/>
<circle cx="407.365" cy="571.736" r="1.52171" transform="rotate(-60 407.365 571.736)" fill="white"/>
<circle cx="310.384" cy="517.305" r="1.52171" transform="rotate(120 310.384 517.305)" fill="white"/>
<circle cx="294.153" cy="686.539" r="1.52171" transform="rotate(105 294.153 686.539)" fill="white"/>
<circle cx="423.595" cy="402.501" r="1.52171" transform="rotate(-75 423.595 402.501)" fill="white"/>
<circle cx="398.085" cy="575.461" r="1.52171" transform="rotate(-60 398.085 575.461)" fill="white"/>
<circle cx="319.664" cy="513.579" r="1.52171" transform="rotate(120 319.664 513.579)" fill="white"/>
<circle cx="302.154" cy="680.539" r="1.52171" transform="rotate(105 302.154 680.539)" fill="white"/>
<circle cx="415.595" cy="408.501" r="1.52171" transform="rotate(-75 415.595 408.501)" fill="white"/>
<circle cx="425.264" cy="632.437" r="1.52171" transform="rotate(-60 425.264 632.437)" fill="white"/>
<circle cx="292.485" cy="456.603" r="1.52171" transform="rotate(120 292.485 456.603)" fill="white"/>
<circle cx="261.154" cy="632.539" r="1.52171" transform="rotate(105 261.154 632.539)" fill="white"/>
<circle cx="456.595" cy="456.501" r="1.52171" transform="rotate(-75 456.595 456.501)" fill="white"/>
<circle cx="380.591" cy="605.973" r="1.52171" transform="rotate(-60 380.591 605.973)" fill="white"/>
<circle cx="337.158" cy="483.067" r="1.52171" transform="rotate(120 337.158 483.067)" fill="white"/>
<circle cx="311.154" cy="646.54" r="1.52171" transform="rotate(105 311.154 646.54)" fill="white"/>
<circle cx="406.595" cy="442.501" r="1.52171" transform="rotate(-75 406.595 442.501)" fill="white"/>
<circle cx="375.509" cy="694.438" r="1.52171" transform="rotate(-60 375.509 694.438)" fill="white"/>
<circle cx="342.239" cy="394.603" r="1.52171" transform="rotate(120 342.239 394.603)" fill="white"/>
<circle cx="293.166" cy="559.774" r="1.52171" transform="rotate(105 293.166 559.774)" fill="white"/>
<circle cx="424.583" cy="529.266" r="1.52171" transform="rotate(-75 424.583 529.266)" fill="white"/>
<circle cx="492.014" cy="673.099" r="1.52171" transform="rotate(-60 492.014 673.099)" fill="white"/>
<circle cx="225.735" cy="415.942" r="1.52171" transform="rotate(120 225.735 415.942)" fill="white"/>
<circle cx="186.153" cy="610.539" r="1.52171" transform="rotate(105 186.153 610.539)" fill="white"/>
<circle cx="531.595" cy="478.501" r="1.52171" transform="rotate(-75 531.595 478.501)" fill="white"/>
<circle cx="412.244" cy="600.379" r="1.52171" transform="rotate(-60 412.244 600.379)" fill="white"/>
<circle cx="305.505" cy="488.662" r="1.52171" transform="rotate(120 305.505 488.662)" fill="white"/>
<circle cx="282.028" cy="660.136" r="1.52171" transform="rotate(105 282.028 660.136)" fill="white"/>
<circle cx="435.721" cy="428.904" r="1.52171" transform="rotate(-75 435.721 428.904)" fill="white"/>
<circle cx="341.257" cy="638.114" r="1.52171" transform="rotate(-60 341.257 638.114)" fill="white"/>
<circle cx="376.492" cy="450.926" r="1.52171" transform="rotate(120 376.492 450.926)" fill="white"/>
<circle cx="340.828" cy="605.313" r="1.52171" transform="rotate(105 340.828 605.313)" fill="white"/>
<circle cx="376.92" cy="483.727" r="1.52171" transform="rotate(-75 376.92 483.727)" fill="white"/>
<circle cx="364.027" cy="667.793" r="1.52171" transform="rotate(-60 364.027 667.793)" fill="white"/>
<circle cx="353.722" cy="421.248" r="1.52171" transform="rotate(120 353.722 421.248)" fill="white"/>
<circle cx="311.154" cy="582.54" r="1.52171" transform="rotate(105 311.154 582.54)" fill="white"/>
<circle cx="406.595" cy="506.501" r="1.52171" transform="rotate(-75 406.595 506.501)" fill="white"/>
<circle cx="451.149" cy="694.243" r="1.52171" transform="rotate(-60 451.149 694.243)" fill="white"/>
<circle cx="266.599" cy="394.798" r="1.52171" transform="rotate(120 266.599 394.798)" fill="white"/>
<circle cx="220.154" cy="579.54" r="1.52171" transform="rotate(105 220.154 579.54)" fill="white"/>
<circle cx="497.595" cy="509.501" r="1.52171" transform="rotate(-75 497.595 509.501)" fill="white"/>
<circle cx="452.337" cy="724.584" r="1.52171" transform="rotate(-60 452.337 724.584)" fill="white"/>
<circle cx="265.412" cy="364.456" r="1.52171" transform="rotate(120 265.412 364.456)" fill="white"/>
<circle cx="211.154" cy="550.539" r="1.52171" transform="rotate(105 211.154 550.539)" fill="white"/>
<circle cx="506.595" cy="538.501" r="1.52171" transform="rotate(-75 506.595 538.501)" fill="white"/>
<circle cx="273.136" cy="518.851" r="1.52171" transform="rotate(-75 273.136 518.851)" fill="white"/>
<circle cx="473.601" cy="570.495" r="1.52171" transform="rotate(-75 473.601 570.495)" fill="white"/>
<circle cx="468.309" cy="726.793" r="1.52171" transform="rotate(-60 468.309 726.793)" fill="white"/>
<circle cx="249.44" cy="362.247" r="1.52171" transform="rotate(120 249.44 362.247)" fill="white"/>
<circle cx="195.154" cy="552.54" r="1.52171" transform="rotate(105 195.154 552.54)" fill="white"/>
<circle cx="522.595" cy="536.501" r="1.52171" transform="rotate(-75 522.595 536.501)" fill="white"/>
<circle cx="205.864" cy="538.095" r="1.52171" transform="rotate(-75 205.864 538.095)" fill="white"/>
<circle cx="395.209" cy="717.559" r="1.52171" transform="rotate(-60 395.209 717.559)" fill="white"/>
<circle cx="322.54" cy="371.482" r="1.52171" transform="rotate(120 322.54 371.482)" fill="white"/>
<circle cx="268.154" cy="542.539" r="1.52171" transform="rotate(105 268.154 542.539)" fill="white"/>
<circle cx="449.595" cy="546.501" r="1.52171" transform="rotate(-75 449.595 546.501)" fill="white"/>
<circle cx="428.189" cy="718.113" r="1.52171" transform="rotate(-60 428.189 718.113)" fill="white"/>
<circle cx="289.56" cy="370.927" r="1.52171" transform="rotate(120 289.56 370.927)" fill="white"/>
<circle cx="236.154" cy="550.54" r="1.52171" transform="rotate(105 236.154 550.54)" fill="white"/>
<circle cx="481.595" cy="538.501" r="1.52171" transform="rotate(-75 481.595 538.501)" fill="white"/>
<circle cx="478.213" cy="685.965" r="1.52171" transform="rotate(-60 478.213 685.965)" fill="white"/>
<circle cx="239.535" cy="403.075" r="1.52171" transform="rotate(120 239.535 403.075)" fill="white"/>
<circle cx="196.154" cy="594.54" r="1.52171" transform="rotate(105 196.154 594.54)" fill="white"/>
<circle cx="521.595" cy="494.501" r="1.52171" transform="rotate(-75 521.595 494.501)" fill="white"/>
<circle cx="391.161" cy="655.393" r="1.52171" transform="rotate(-60 391.161 655.393)" fill="white"/>
<circle cx="326.588" cy="433.648" r="1.52171" transform="rotate(120 326.588 433.648)" fill="white"/>
<circle cx="288.154" cy="601.539" r="1.52171" transform="rotate(105 288.154 601.539)" fill="white"/>
<circle cx="429.595" cy="487.501" r="1.52171" transform="rotate(-75 429.595 487.501)" fill="white"/>
<circle cx="360.722" cy="575.803" r="1.52171" transform="rotate(-60 360.722 575.803)" fill="white"/>
<circle cx="357.026" cy="513.238" r="1.52171" transform="rotate(120 357.026 513.238)" fill="white"/>
<circle cx="338.154" cy="670.54" r="1.52171" transform="rotate(105 338.154 670.54)" fill="white"/>
<circle cx="379.595" cy="418.501" r="1.52171" transform="rotate(-75 379.595 418.501)" fill="white"/>
<circle cx="433.637" cy="661.93" r="1.52171" transform="rotate(-60 433.637 661.93)" fill="white"/>
<circle cx="284.112" cy="427.11" r="1.52171" transform="rotate(120 284.112 427.11)" fill="white"/>
<circle cx="245.432" cy="606.219" r="1.52171" transform="rotate(105 245.432 606.219)" fill="white"/>
<circle cx="472.317" cy="482.822" r="1.52171" transform="rotate(-75 472.317 482.822)" fill="white"/>
<circle cx="386.381" cy="665.5" r="1.52171" transform="rotate(-60 386.381 665.5)" fill="white"/>
<circle cx="331.368" cy="423.54" r="1.52171" transform="rotate(120 331.368 423.54)" fill="white"/>
<circle cx="290.154" cy="590.54" r="1.52171" transform="rotate(105 290.154 590.54)" fill="white"/>
<circle cx="427.595" cy="498.501" r="1.52171" transform="rotate(-75 427.595 498.501)" fill="white"/>
<circle cx="268.199" cy="976.859" r="2.43474" transform="rotate(-60 268.199 976.859)" fill="white"/>
<circle cx="240.149" cy="776.328" r="2.43474" transform="rotate(120 240.149 776.328)" fill="white"/>
<circle cx="203.837" cy="939.132" r="2.43474" transform="rotate(105 203.837 939.132)" fill="white"/>
<circle cx="304.511" cy="814.055" r="2.43474" transform="rotate(-75 304.511 814.055)" fill="white"/>
<circle cx="183.95" cy="799.406" r="2.43474" transform="rotate(120 183.95 799.406)" fill="white"/>
<circle cx="155.527" cy="975.969" r="2.43474" transform="rotate(105 155.527 975.969)" fill="white"/>
<circle cx="352.822" cy="777.218" r="2.43474" transform="rotate(-75 352.822 777.218)" fill="white"/>
<circle cx="117.997" cy="793.666" r="2.43474" transform="rotate(120 117.997 793.666)" fill="white"/>
<circle cx="90.3354" cy="987.495" r="2.43474" transform="rotate(105 90.3354 987.495)" fill="white"/>
<circle cx="418.012" cy="765.692" r="2.43474" transform="rotate(-75 418.012 765.692)" fill="white"/>
<circle cx="253.291" cy="945.572" r="2.43474" transform="rotate(-60 253.291 945.572)" fill="white"/>
<circle cx="255.057" cy="807.615" r="2.43474" transform="rotate(120 255.057 807.615)" fill="white"/>
<circle cx="226.335" cy="965.495" r="2.43474" transform="rotate(105 226.335 965.495)" fill="white"/>
<circle cx="282.013" cy="787.692" r="2.43474" transform="rotate(-75 282.013 787.692)" fill="white"/>
<circle cx="183.782" cy="834.069" r="2.43474" transform="rotate(120 183.782 834.069)" fill="white"/>
<circle cx="164.335" cy="1009.49" r="2.43474" transform="rotate(105 164.335 1009.49)" fill="white"/>
<circle cx="344.013" cy="743.692" r="2.43474" transform="rotate(-75 344.013 743.692)" fill="white"/>
<circle cx="125.24" cy="824.594" r="2.43474" transform="rotate(120 125.24 824.594)" fill="white"/>
<circle cx="152.013" cy="852.177" r="2.43474" transform="rotate(120 152.013 852.177)" fill="white"/>
<circle cx="356.207" cy="855.127" r="2.43474" transform="rotate(120 356.207 855.127)" fill="white"/>
<circle cx="105.335" cy="1015.49" r="2.43474" transform="rotate(105 105.335 1015.49)" fill="white"/>
<circle cx="403.013" cy="737.692" r="2.43474" transform="rotate(-75 403.013 737.692)" fill="white"/>
<circle cx="361.52" cy="1043.94" r="2.43474" transform="rotate(-60 361.52 1043.94)" fill="white"/>
<circle cx="146.827" cy="709.252" r="2.43474" transform="rotate(120 146.827 709.252)" fill="white"/>
<circle cx="96.3345" cy="898.495" r="2.43474" transform="rotate(105 96.3345 898.495)" fill="white"/>
<circle cx="412.013" cy="854.692" r="2.43474" transform="rotate(-75 412.013 854.692)" fill="white"/>
<circle cx="389.653" cy="1058.72" r="2.43474" transform="rotate(-60 389.653 1058.72)" fill="white"/>
<circle cx="118.696" cy="694.467" r="2.43474" transform="rotate(120 118.696 694.467)" fill="white"/>
<circle cx="65.3354" cy="891.495" r="2.43474" transform="rotate(105 65.3354 891.495)" fill="white"/>
<circle cx="443.013" cy="861.692" r="2.43474" transform="rotate(-75 443.013 861.692)" fill="white"/>
<circle cx="98.8784" cy="843.585" r="2.43474" transform="rotate(-75 98.8784 843.585)" fill="white"/>
<circle cx="325.106" cy="1060.06" r="2.43474" transform="rotate(-60 325.106 1060.06)" fill="white"/>
<circle cx="183.242" cy="693.127" r="2.43474" transform="rotate(120 183.242 693.127)" fill="white"/>
<circle cx="127.335" cy="873.495" r="2.43474" transform="rotate(105 127.335 873.495)" fill="white"/>
<circle cx="250.333" cy="1049.34" r="2.43474" transform="rotate(-60 250.333 1049.34)" fill="white"/>
<circle cx="258.016" cy="703.845" r="2.43474" transform="rotate(120 258.016 703.845)" fill="white"/>
<circle cx="202.335" cy="864.495" r="2.43474" transform="rotate(105 202.335 864.495)" fill="white"/>
<circle cx="139.183" cy="745.508" r="2.43474" transform="rotate(120 139.183 745.508)" fill="white"/>
<circle cx="98.3354" cy="935.495" r="2.43474" transform="rotate(105 98.3354 935.495)" fill="white"/>
<circle cx="410.013" cy="817.692" r="2.43474" transform="rotate(-75 410.013 817.692)" fill="white"/>
<circle cx="226.6" cy="1018.14" r="2.43474" transform="rotate(-60 226.6 1018.14)" fill="white"/>
<circle cx="281.747" cy="735.05" r="2.43474" transform="rotate(120 281.747 735.05)" fill="white"/>
<circle cx="233.335" cy="888.495" r="2.43474" transform="rotate(105 233.335 888.495)" fill="white"/>
<circle cx="275.013" cy="864.692" r="2.43474" transform="rotate(-75 275.013 864.692)" fill="white"/>
<circle cx="142.421" cy="800.732" r="2.43474" transform="rotate(120 142.421 800.732)" fill="white"/>
<circle cx="115.755" cy="987.998" r="2.43474" transform="rotate(105 115.755 987.998)" fill="white"/>
<circle cx="392.593" cy="765.189" r="2.43474" transform="rotate(-75 392.593 765.189)" fill="white"/>
<circle cx="284.695" cy="1025.42" r="2.43474" transform="rotate(-60 284.695 1025.42)" fill="white"/>
<circle cx="223.654" cy="727.767" r="2.43474" transform="rotate(120 223.654 727.767)" fill="white"/>
<circle cx="175.335" cy="896.495" r="2.43474" transform="rotate(105 175.335 896.495)" fill="white"/>
<circle cx="333.013" cy="856.692" r="2.43474" transform="rotate(-75 333.013 856.692)" fill="white"/>
<circle cx="224.339" cy="817.102" r="2.43474" transform="rotate(120 224.339 817.102)" fill="white"/>
<circle cx="199.12" cy="982.609" r="2.43474" transform="rotate(105 199.12 982.609)" fill="white"/>
<circle cx="309.229" cy="770.578" r="2.43474" transform="rotate(-75 309.229 770.578)" fill="white"/>
<circle cx="286.655" cy="894.466" r="2.43474" transform="rotate(-60 286.655 894.466)" fill="white"/>
<circle cx="221.694" cy="858.721" r="2.43474" transform="rotate(120 221.694 858.721)" fill="white"/>
<circle cx="207.335" cy="1023.49" r="2.43474" transform="rotate(105 207.335 1023.49)" fill="white"/>
<circle cx="301.013" cy="729.692" r="2.43474" transform="rotate(-75 301.013 729.692)" fill="white"/>
<circle cx="215.344" cy="944.235" r="2.43474" transform="rotate(-60 215.344 944.235)" fill="white"/>
<circle cx="293.004" cy="808.952" r="2.43474" transform="rotate(120 293.004 808.952)" fill="white"/>
<circle cx="263.335" cy="956.965" r="2.43474" transform="rotate(105 263.335 956.965)" fill="white"/>
<circle cx="245.013" cy="796.222" r="2.43474" transform="rotate(-75 245.013 796.222)" fill="white"/>
<circle cx="212.718" cy="790.361" r="1.52171" transform="rotate(120 212.718 790.361)" fill="white"/>
<circle cx="180.973" cy="959.787" r="1.52171" transform="rotate(105 180.973 959.787)" fill="white"/>
<circle cx="327.375" cy="793.4" r="1.52171" transform="rotate(-75 327.375 793.4)" fill="white"/>
<circle cx="161.851" cy="820.033" r="1.52171" transform="rotate(120 161.851 820.033)" fill="white"/>
<circle cx="139.519" cy="1001.61" r="1.52171" transform="rotate(105 139.519 1001.61)" fill="white"/>
<circle cx="368.83" cy="751.574" r="1.52171" transform="rotate(-75 368.83 751.574)" fill="white"/>
<circle cx="135.569" cy="821.273" r="1.52171" transform="rotate(120 135.569 821.273)" fill="white"/>
<circle cx="114.454" cy="1009.61" r="1.52171" transform="rotate(105 114.454 1009.61)" fill="white"/>
<circle cx="393.895" cy="743.574" r="1.52171" transform="rotate(-75 393.895 743.574)" fill="white"/>
<circle cx="142.52" cy="826.241" r="1.52171" transform="rotate(120 142.52 826.241)" fill="white"/>
<circle cx="128.178" cy="836.35" r="1.52171" transform="rotate(120 128.178 836.35)" fill="white"/>
<circle cx="122.454" cy="1012.61" r="1.52171" transform="rotate(105 122.454 1012.61)" fill="white"/>
<circle cx="385.895" cy="740.574" r="1.52171" transform="rotate(-75 385.895 740.574)" fill="white"/>
<circle cx="126.446" cy="801.229" r="1.52171" transform="rotate(120 126.446 801.229)" fill="white"/>
<circle cx="100.454" cy="992.613" r="1.52171" transform="rotate(105 100.454 992.613)" fill="white"/>
<circle cx="407.895" cy="760.574" r="1.52171" transform="rotate(-75 407.895 760.574)" fill="white"/>
<circle cx="166.526" cy="787.589" r="1.52171" transform="rotate(120 166.526 787.589)" fill="white"/>
<circle cx="135.636" cy="969.064" r="1.52171" transform="rotate(105 135.636 969.064)" fill="white"/>
<circle cx="372.711" cy="784.123" r="1.52171" transform="rotate(-75 372.711 784.123)" fill="white"/>
<circle cx="145.239" cy="769.677" r="1.52171" transform="rotate(120 145.239 769.677)" fill="white"/>
<circle cx="110.44" cy="957.272" r="1.52171" transform="rotate(105 110.44 957.272)" fill="white"/>
<circle cx="397.909" cy="795.915" r="1.52171" transform="rotate(-75 397.909 795.915)" fill="white"/>
<circle cx="110.643" cy="773.599" r="1.52171" transform="rotate(120 110.643 773.599)" fill="white"/>
<circle cx="78.0377" cy="970.015" r="1.52171" transform="rotate(105 78.0377 970.015)" fill="white"/>
<circle cx="430.311" cy="783.172" r="1.52171" transform="rotate(-75 430.311 783.172)" fill="white"/>
<circle cx="205.684" cy="849.378" r="1.52171" transform="rotate(120 205.684 849.378)" fill="white"/>
<circle cx="189.453" cy="1018.61" r="1.52171" transform="rotate(105 189.453 1018.61)" fill="white"/>
<circle cx="318.895" cy="734.574" r="1.52171" transform="rotate(-75 318.895 734.574)" fill="white"/>
<circle cx="214.964" cy="845.653" r="1.52171" transform="rotate(120 214.964 845.653)" fill="white"/>
<circle cx="197.454" cy="1012.61" r="1.52171" transform="rotate(105 197.454 1012.61)" fill="white"/>
<circle cx="310.895" cy="740.574" r="1.52171" transform="rotate(-75 310.895 740.574)" fill="white"/>
<circle cx="187.785" cy="788.677" r="1.52171" transform="rotate(120 187.785 788.677)" fill="white"/>
<circle cx="156.454" cy="964.613" r="1.52171" transform="rotate(105 156.454 964.613)" fill="white"/>
<circle cx="351.895" cy="788.574" r="1.52171" transform="rotate(-75 351.895 788.574)" fill="white"/>
<circle cx="232.457" cy="815.141" r="1.52171" transform="rotate(120 232.457 815.141)" fill="white"/>
<circle cx="206.454" cy="978.613" r="1.52171" transform="rotate(105 206.454 978.613)" fill="white"/>
<circle cx="301.895" cy="774.574" r="1.52171" transform="rotate(-75 301.895 774.574)" fill="white"/>
<circle cx="270.809" cy="1026.51" r="1.52171" transform="rotate(-60 270.809 1026.51)" fill="white"/>
<circle cx="237.538" cy="726.676" r="1.52171" transform="rotate(120 237.538 726.676)" fill="white"/>
<circle cx="188.465" cy="891.847" r="1.52171" transform="rotate(105 188.465 891.847)" fill="white"/>
<circle cx="319.883" cy="861.34" r="1.52171" transform="rotate(-75 319.883 861.34)" fill="white"/>
<circle cx="121.035" cy="748.015" r="1.52171" transform="rotate(120 121.035 748.015)" fill="white"/>
<circle cx="81.4527" cy="942.613" r="1.52171" transform="rotate(105 81.4527 942.613)" fill="white"/>
<circle cx="426.895" cy="810.574" r="1.52171" transform="rotate(-75 426.895 810.574)" fill="white"/>
<circle cx="200.805" cy="820.735" r="1.52171" transform="rotate(120 200.805 820.735)" fill="white"/>
<circle cx="177.328" cy="992.209" r="1.52171" transform="rotate(105 177.328 992.209)" fill="white"/>
<circle cx="331.021" cy="760.978" r="1.52171" transform="rotate(-75 331.021 760.978)" fill="white"/>
<circle cx="236.557" cy="970.188" r="1.52171" transform="rotate(-60 236.557 970.188)" fill="white"/>
<circle cx="271.791" cy="782.999" r="1.52171" transform="rotate(120 271.791 782.999)" fill="white"/>
<circle cx="236.128" cy="937.387" r="1.52171" transform="rotate(105 236.128 937.387)" fill="white"/>
<circle cx="272.22" cy="815.8" r="1.52171" transform="rotate(-75 272.22 815.8)" fill="white"/>
<circle cx="259.327" cy="999.866" r="1.52171" transform="rotate(-60 259.327 999.866)" fill="white"/>
<circle cx="249.022" cy="753.321" r="1.52171" transform="rotate(120 249.022 753.321)" fill="white"/>
<circle cx="206.454" cy="914.613" r="1.52171" transform="rotate(105 206.454 914.613)" fill="white"/>
<circle cx="301.895" cy="838.574" r="1.52171" transform="rotate(-75 301.895 838.574)" fill="white"/>
<circle cx="161.899" cy="726.871" r="1.52171" transform="rotate(120 161.899 726.871)" fill="white"/>
<circle cx="115.454" cy="911.613" r="1.52171" transform="rotate(105 115.454 911.613)" fill="white"/>
<circle cx="392.895" cy="841.574" r="1.52171" transform="rotate(-75 392.895 841.574)" fill="white"/>
<circle cx="347.636" cy="1056.66" r="1.52171" transform="rotate(-60 347.636 1056.66)" fill="white"/>
<circle cx="160.711" cy="696.53" r="1.52171" transform="rotate(120 160.711 696.53)" fill="white"/>
<circle cx="106.454" cy="882.613" r="1.52171" transform="rotate(105 106.454 882.613)" fill="white"/>
<circle cx="401.895" cy="870.574" r="1.52171" transform="rotate(-75 401.895 870.574)" fill="white"/>
<circle cx="168.436" cy="850.924" r="1.52171" transform="rotate(-75 168.436 850.924)" fill="white"/>
<circle cx="363.609" cy="1058.87" r="1.52171" transform="rotate(-60 363.609 1058.87)" fill="white"/>
<circle cx="144.74" cy="694.321" r="1.52171" transform="rotate(120 144.74 694.321)" fill="white"/>
<circle cx="90.4537" cy="884.613" r="1.52171" transform="rotate(105 90.4537 884.613)" fill="white"/>
<circle cx="417.895" cy="868.574" r="1.52171" transform="rotate(-75 417.895 868.574)" fill="white"/>
<circle cx="101.164" cy="870.169" r="1.52171" transform="rotate(-75 101.164 870.169)" fill="white"/>
<circle cx="290.508" cy="1049.63" r="1.52171" transform="rotate(-60 290.508 1049.63)" fill="white"/>
<circle cx="217.84" cy="703.555" r="1.52171" transform="rotate(120 217.84 703.555)" fill="white"/>
<circle cx="163.454" cy="874.613" r="1.52171" transform="rotate(105 163.454 874.613)" fill="white"/>
<circle cx="323.489" cy="1050.19" r="1.52171" transform="rotate(-60 323.489 1050.19)" fill="white"/>
<circle cx="184.86" cy="703" r="1.52171" transform="rotate(120 184.86 703)" fill="white"/>
<circle cx="131.454" cy="882.613" r="1.52171" transform="rotate(105 131.454 882.613)" fill="white"/>
<circle cx="376.895" cy="870.574" r="1.52171" transform="rotate(-75 376.895 870.574)" fill="white"/>
<circle cx="134.834" cy="735.148" r="1.52171" transform="rotate(120 134.834 735.148)" fill="white"/>
<circle cx="91.4537" cy="926.613" r="1.52171" transform="rotate(105 91.4537 926.613)" fill="white"/>
<circle cx="416.895" cy="826.574" r="1.52171" transform="rotate(-75 416.895 826.574)" fill="white"/>
<circle cx="221.888" cy="765.721" r="1.52171" transform="rotate(120 221.888 765.721)" fill="white"/>
<circle cx="183.454" cy="933.613" r="1.52171" transform="rotate(105 183.454 933.613)" fill="white"/>
<circle cx="324.895" cy="819.574" r="1.52171" transform="rotate(-75 324.895 819.574)" fill="white"/>
<circle cx="256.022" cy="907.876" r="1.52171" transform="rotate(-60 256.022 907.876)" fill="white"/>
<circle cx="252.326" cy="845.311" r="1.52171" transform="rotate(120 252.326 845.311)" fill="white"/>
<circle cx="233.454" cy="1002.61" r="1.52171" transform="rotate(105 233.454 1002.61)" fill="white"/>
<circle cx="274.895" cy="750.574" r="1.52171" transform="rotate(-75 274.895 750.574)" fill="white"/>
<circle cx="179.412" cy="759.183" r="1.52171" transform="rotate(120 179.412 759.183)" fill="white"/>
<circle cx="140.732" cy="938.292" r="1.52171" transform="rotate(105 140.732 938.292)" fill="white"/>
<circle cx="367.617" cy="814.895" r="1.52171" transform="rotate(-75 367.617 814.895)" fill="white"/>
<circle cx="281.681" cy="997.573" r="1.52171" transform="rotate(-60 281.681 997.573)" fill="white"/>
<circle cx="226.667" cy="755.614" r="1.52171" transform="rotate(120 226.667 755.614)" fill="white"/>
<circle cx="185.454" cy="922.613" r="1.52171" transform="rotate(105 185.454 922.613)" fill="white"/>
<circle cx="322.895" cy="830.574" r="1.52171" transform="rotate(-75 322.895 830.574)" fill="white"/>
<circle cx="609.497" cy="1050.86" r="2.43474" transform="rotate(-60 609.497 1050.86)" fill="white"/>
<circle cx="581.447" cy="850.326" r="2.43474" transform="rotate(120 581.447 850.326)" fill="white"/>
<circle cx="545.135" cy="1013.13" r="2.43474" transform="rotate(105 545.135 1013.13)" fill="white"/>
<circle cx="525.248" cy="873.405" r="2.43474" transform="rotate(120 525.248 873.405)" fill="white"/>
<circle cx="496.824" cy="1049.97" r="2.43474" transform="rotate(105 496.824 1049.97)" fill="white"/>
<circle cx="459.295" cy="867.665" r="2.43474" transform="rotate(120 459.295 867.665)" fill="white"/>
<circle cx="431.633" cy="1061.49" r="2.43474" transform="rotate(105 431.633 1061.49)" fill="white"/>
<circle cx="594.589" cy="1019.57" r="2.43474" transform="rotate(-60 594.589 1019.57)" fill="white"/>
<circle cx="596.355" cy="881.614" r="2.43474" transform="rotate(120 596.355 881.614)" fill="white"/>
<circle cx="567.633" cy="1039.49" r="2.43474" transform="rotate(105 567.633 1039.49)" fill="white"/>
<circle cx="623.31" cy="861.691" r="2.43474" transform="rotate(-75 623.31 861.691)" fill="white"/>
<circle cx="525.079" cy="908.068" r="2.43474" transform="rotate(120 525.079 908.068)" fill="white"/>
<circle cx="505.632" cy="1083.49" r="2.43474" transform="rotate(105 505.632 1083.49)" fill="white"/>
<circle cx="466.536" cy="898.593" r="2.43474" transform="rotate(120 466.536 898.593)" fill="white"/>
<circle cx="493.31" cy="926.176" r="2.43474" transform="rotate(120 493.31 926.176)" fill="white"/>
<circle cx="446.633" cy="1089.49" r="2.43474" transform="rotate(105 446.633 1089.49)" fill="white"/>
<circle cx="488.125" cy="783.251" r="2.43474" transform="rotate(120 488.125 783.251)" fill="white"/>
<circle cx="437.632" cy="972.494" r="2.43474" transform="rotate(105 437.632 972.494)" fill="white"/>
<circle cx="459.993" cy="768.465" r="2.43474" transform="rotate(120 459.993 768.465)" fill="white"/>
<circle cx="440.176" cy="917.584" r="2.43474" transform="rotate(-75 440.176 917.584)" fill="white"/>
<circle cx="524.539" cy="767.126" r="2.43474" transform="rotate(120 524.539 767.126)" fill="white"/>
<circle cx="468.633" cy="947.494" r="2.43474" transform="rotate(105 468.633 947.494)" fill="white"/>
<circle cx="591.631" cy="1123.34" r="2.43474" transform="rotate(-60 591.631 1123.34)" fill="white"/>
<circle cx="599.314" cy="777.844" r="2.43474" transform="rotate(120 599.314 777.844)" fill="white"/>
<circle cx="543.633" cy="938.494" r="2.43474" transform="rotate(105 543.633 938.494)" fill="white"/>
<circle cx="480.481" cy="819.507" r="2.43474" transform="rotate(120 480.481 819.507)" fill="white"/>
<circle cx="439.633" cy="1009.49" r="2.43474" transform="rotate(105 439.633 1009.49)" fill="white"/>
<circle cx="567.898" cy="1092.14" r="2.43474" transform="rotate(-60 567.898 1092.14)" fill="white"/>
<circle cx="623.045" cy="809.049" r="2.43474" transform="rotate(120 623.045 809.049)" fill="white"/>
<circle cx="574.633" cy="962.494" r="2.43474" transform="rotate(105 574.633 962.494)" fill="white"/>
<circle cx="616.311" cy="938.691" r="2.43474" transform="rotate(-75 616.311 938.691)" fill="white"/>
<circle cx="483.718" cy="874.731" r="2.43474" transform="rotate(120 483.718 874.731)" fill="white"/>
<circle cx="457.052" cy="1062" r="2.43474" transform="rotate(105 457.052 1062)" fill="white"/>
<circle cx="625.993" cy="1099.42" r="2.43474" transform="rotate(-60 625.993 1099.42)" fill="white"/>
<circle cx="564.951" cy="801.765" r="2.43474" transform="rotate(120 564.951 801.765)" fill="white"/>
<circle cx="516.633" cy="970.494" r="2.43474" transform="rotate(105 516.633 970.494)" fill="white"/>
<circle cx="625.306" cy="1010.08" r="2.43474" transform="rotate(-60 625.306 1010.08)" fill="white"/>
<circle cx="565.637" cy="891.101" r="2.43474" transform="rotate(120 565.637 891.101)" fill="white"/>
<circle cx="540.417" cy="1056.61" r="2.43474" transform="rotate(105 540.417 1056.61)" fill="white"/>
<circle cx="627.953" cy="968.465" r="2.43474" transform="rotate(-60 627.953 968.465)" fill="white"/>
<circle cx="562.99" cy="932.72" r="2.43474" transform="rotate(120 562.99 932.72)" fill="white"/>
<circle cx="548.632" cy="1097.49" r="2.43474" transform="rotate(105 548.632 1097.49)" fill="white"/>
<circle cx="556.641" cy="1018.23" r="2.43474" transform="rotate(-60 556.641 1018.23)" fill="white"/>
<circle cx="604.633" cy="1030.96" r="2.43474" transform="rotate(105 604.633 1030.96)" fill="white"/>
<circle cx="586.31" cy="870.221" r="2.43474" transform="rotate(-75 586.31 870.221)" fill="white"/>
<circle cx="554.015" cy="864.36" r="1.52171" transform="rotate(120 554.015 864.36)" fill="white"/>
<circle cx="522.271" cy="1033.79" r="1.52171" transform="rotate(105 522.271 1033.79)" fill="white"/>
<circle cx="503.149" cy="894.032" r="1.52171" transform="rotate(120 503.149 894.032)" fill="white"/>
<circle cx="480.816" cy="1075.61" r="1.52171" transform="rotate(105 480.816 1075.61)" fill="white"/>
<circle cx="476.867" cy="895.272" r="1.52171" transform="rotate(120 476.867 895.272)" fill="white"/>
<circle cx="455.751" cy="1083.61" r="1.52171" transform="rotate(105 455.751 1083.61)" fill="white"/>
<circle cx="483.818" cy="900.24" r="1.52171" transform="rotate(120 483.818 900.24)" fill="white"/>
<circle cx="469.476" cy="910.349" r="1.52171" transform="rotate(120 469.476 910.349)" fill="white"/>
<circle cx="463.751" cy="1086.61" r="1.52171" transform="rotate(105 463.751 1086.61)" fill="white"/>
<circle cx="467.744" cy="875.227" r="1.52171" transform="rotate(120 467.744 875.227)" fill="white"/>
<circle cx="441.751" cy="1066.61" r="1.52171" transform="rotate(105 441.751 1066.61)" fill="white"/>
<circle cx="507.823" cy="861.588" r="1.52171" transform="rotate(120 507.823 861.588)" fill="white"/>
<circle cx="476.934" cy="1043.06" r="1.52171" transform="rotate(105 476.934 1043.06)" fill="white"/>
<circle cx="486.537" cy="843.676" r="1.52171" transform="rotate(120 486.537 843.676)" fill="white"/>
<circle cx="451.737" cy="1031.27" r="1.52171" transform="rotate(105 451.737 1031.27)" fill="white"/>
<circle cx="451.94" cy="847.599" r="1.52171" transform="rotate(120 451.94 847.599)" fill="white"/>
<circle cx="419.335" cy="1044.01" r="1.52171" transform="rotate(105 419.335 1044.01)" fill="white"/>
<circle cx="546.982" cy="923.377" r="1.52171" transform="rotate(120 546.982 923.377)" fill="white"/>
<circle cx="530.751" cy="1092.61" r="1.52171" transform="rotate(105 530.751 1092.61)" fill="white"/>
<circle cx="556.262" cy="919.652" r="1.52171" transform="rotate(120 556.262 919.652)" fill="white"/>
<circle cx="538.751" cy="1086.61" r="1.52171" transform="rotate(105 538.751 1086.61)" fill="white"/>
<circle cx="529.082" cy="862.676" r="1.52171" transform="rotate(120 529.082 862.676)" fill="white"/>
<circle cx="497.751" cy="1038.61" r="1.52171" transform="rotate(105 497.751 1038.61)" fill="white"/>
<circle cx="617.188" cy="1012.05" r="1.52171" transform="rotate(-60 617.188 1012.05)" fill="white"/>
<circle cx="573.755" cy="889.14" r="1.52171" transform="rotate(120 573.755 889.14)" fill="white"/>
<circle cx="547.751" cy="1052.61" r="1.52171" transform="rotate(105 547.751 1052.61)" fill="white"/>
<circle cx="612.107" cy="1100.51" r="1.52171" transform="rotate(-60 612.107 1100.51)" fill="white"/>
<circle cx="578.836" cy="800.675" r="1.52171" transform="rotate(120 578.836 800.675)" fill="white"/>
<circle cx="529.762" cy="965.846" r="1.52171" transform="rotate(105 529.762 965.846)" fill="white"/>
<circle cx="462.332" cy="822.014" r="1.52171" transform="rotate(120 462.332 822.014)" fill="white"/>
<circle cx="422.751" cy="1016.61" r="1.52171" transform="rotate(105 422.751 1016.61)" fill="white"/>
<circle cx="542.103" cy="894.734" r="1.52171" transform="rotate(120 542.103 894.734)" fill="white"/>
<circle cx="518.626" cy="1066.21" r="1.52171" transform="rotate(105 518.626 1066.21)" fill="white"/>
<circle cx="577.854" cy="1044.19" r="1.52171" transform="rotate(-60 577.854 1044.19)" fill="white"/>
<circle cx="613.089" cy="856.998" r="1.52171" transform="rotate(120 613.089 856.998)" fill="white"/>
<circle cx="577.425" cy="1011.39" r="1.52171" transform="rotate(105 577.425 1011.39)" fill="white"/>
<circle cx="613.518" cy="889.799" r="1.52171" transform="rotate(-75 613.518 889.799)" fill="white"/>
<circle cx="600.624" cy="1073.86" r="1.52171" transform="rotate(-60 600.624 1073.86)" fill="white"/>
<circle cx="590.32" cy="827.32" r="1.52171" transform="rotate(120 590.32 827.32)" fill="white"/>
<circle cx="547.751" cy="988.612" r="1.52171" transform="rotate(105 547.751 988.612)" fill="white"/>
<circle cx="503.197" cy="800.87" r="1.52171" transform="rotate(120 503.197 800.87)" fill="white"/>
<circle cx="456.751" cy="985.612" r="1.52171" transform="rotate(105 456.751 985.612)" fill="white"/>
<circle cx="502.009" cy="770.529" r="1.52171" transform="rotate(120 502.009 770.529)" fill="white"/>
<circle cx="447.751" cy="956.612" r="1.52171" transform="rotate(105 447.751 956.612)" fill="white"/>
<circle cx="509.734" cy="924.924" r="1.52171" transform="rotate(-75 509.734 924.924)" fill="white"/>
<circle cx="486.037" cy="768.319" r="1.52171" transform="rotate(120 486.037 768.319)" fill="white"/>
<circle cx="431.752" cy="958.612" r="1.52171" transform="rotate(105 431.752 958.612)" fill="white"/>
<circle cx="442.46" cy="944.168" r="1.52171" transform="rotate(-75 442.46 944.168)" fill="white"/>
<circle cx="559.137" cy="777.554" r="1.52171" transform="rotate(120 559.137 777.554)" fill="white"/>
<circle cx="504.751" cy="948.612" r="1.52171" transform="rotate(105 504.751 948.612)" fill="white"/>
<circle cx="526.158" cy="776.999" r="1.52171" transform="rotate(120 526.158 776.999)" fill="white"/>
<circle cx="472.752" cy="956.612" r="1.52171" transform="rotate(105 472.752 956.612)" fill="white"/>
<circle cx="476.132" cy="809.147" r="1.52171" transform="rotate(120 476.132 809.147)" fill="white"/>
<circle cx="432.751" cy="1000.61" r="1.52171" transform="rotate(105 432.751 1000.61)" fill="white"/>
<circle cx="627.757" cy="1061.46" r="1.52171" transform="rotate(-60 627.757 1061.46)" fill="white"/>
<circle cx="563.186" cy="839.72" r="1.52171" transform="rotate(120 563.186 839.72)" fill="white"/>
<circle cx="524.751" cy="1007.61" r="1.52171" transform="rotate(105 524.751 1007.61)" fill="white"/>
<circle cx="597.32" cy="981.875" r="1.52171" transform="rotate(-60 597.32 981.875)" fill="white"/>
<circle cx="593.623" cy="919.31" r="1.52171" transform="rotate(120 593.623 919.31)" fill="white"/>
<circle cx="574.752" cy="1076.61" r="1.52171" transform="rotate(105 574.752 1076.61)" fill="white"/>
<circle cx="616.192" cy="824.573" r="1.52171" transform="rotate(-75 616.192 824.573)" fill="white"/>
<circle cx="520.708" cy="833.182" r="1.52171" transform="rotate(120 520.708 833.182)" fill="white"/>
<circle cx="482.03" cy="1012.29" r="1.52171" transform="rotate(105 482.03 1012.29)" fill="white"/>
<circle cx="622.979" cy="1071.57" r="1.52171" transform="rotate(-60 622.979 1071.57)" fill="white"/>
<circle cx="567.964" cy="829.613" r="1.52171" transform="rotate(120 567.964 829.613)" fill="white"/>
<circle cx="526.751" cy="996.612" r="1.52171" transform="rotate(105 526.751 996.612)" fill="white"/>
<circle cx="389.372" cy="1161.47" r="2.43474" transform="rotate(120 389.372 1161.47)" fill="white"/>
<circle cx="453.735" cy="1199.19" r="2.43474" transform="rotate(-75 453.735 1199.19)" fill="white"/>
<circle cx="333.174" cy="1184.55" r="2.43474" transform="rotate(120 333.174 1184.55)" fill="white"/>
<circle cx="502.045" cy="1162.36" r="2.43474" transform="rotate(-75 502.045 1162.36)" fill="white"/>
<circle cx="267.221" cy="1178.81" r="2.43474" transform="rotate(120 267.221 1178.81)" fill="white"/>
<circle cx="567.236" cy="1150.83" r="2.43474" transform="rotate(-75 567.236 1150.83)" fill="white"/>
<circle cx="404.281" cy="1192.76" r="2.43474" transform="rotate(120 404.281 1192.76)" fill="white"/>
<circle cx="431.237" cy="1172.83" r="2.43474" transform="rotate(-75 431.237 1172.83)" fill="white"/>
<circle cx="333.005" cy="1219.21" r="2.43474" transform="rotate(120 333.005 1219.21)" fill="white"/>
<circle cx="493.237" cy="1128.83" r="2.43474" transform="rotate(-75 493.237 1128.83)" fill="white"/>
<circle cx="274.463" cy="1209.73" r="2.43474" transform="rotate(120 274.463 1209.73)" fill="white"/>
<circle cx="301.237" cy="1237.32" r="2.43474" transform="rotate(120 301.237 1237.32)" fill="white"/>
<circle cx="505.431" cy="1240.27" r="2.43474" transform="rotate(120 505.431 1240.27)" fill="white"/>
<circle cx="552.237" cy="1122.83" r="2.43474" transform="rotate(-75 552.237 1122.83)" fill="white"/>
<circle cx="296.051" cy="1094.39" r="2.43474" transform="rotate(120 296.051 1094.39)" fill="white"/>
<circle cx="561.237" cy="1239.83" r="2.43474" transform="rotate(-75 561.237 1239.83)" fill="white"/>
<circle cx="267.919" cy="1079.61" r="2.43474" transform="rotate(120 267.919 1079.61)" fill="white"/>
<circle cx="592.237" cy="1246.83" r="2.43474" transform="rotate(-75 592.237 1246.83)" fill="white"/>
<circle cx="248.102" cy="1228.72" r="2.43474" transform="rotate(-75 248.102 1228.72)" fill="white"/>
<circle cx="332.466" cy="1078.27" r="2.43474" transform="rotate(120 332.466 1078.27)" fill="white"/>
<circle cx="276.559" cy="1258.63" r="2.43474" transform="rotate(105 276.559 1258.63)" fill="white"/>
<circle cx="407.24" cy="1088.98" r="2.43474" transform="rotate(120 407.24 1088.98)" fill="white"/>
<circle cx="351.559" cy="1249.63" r="2.43474" transform="rotate(105 351.559 1249.63)" fill="white"/>
<circle cx="288.406" cy="1130.65" r="2.43474" transform="rotate(120 288.406 1130.65)" fill="white"/>
<circle cx="559.237" cy="1202.83" r="2.43474" transform="rotate(-75 559.237 1202.83)" fill="white"/>
<circle cx="430.971" cy="1120.19" r="2.43474" transform="rotate(120 430.971 1120.19)" fill="white"/>
<circle cx="424.237" cy="1249.83" r="2.43474" transform="rotate(-75 424.237 1249.83)" fill="white"/>
<circle cx="291.645" cy="1185.87" r="2.43474" transform="rotate(120 291.645 1185.87)" fill="white"/>
<circle cx="541.817" cy="1150.33" r="2.43474" transform="rotate(-75 541.817 1150.33)" fill="white"/>
<circle cx="372.877" cy="1112.91" r="2.43474" transform="rotate(120 372.877 1112.91)" fill="white"/>
<circle cx="482.237" cy="1241.83" r="2.43474" transform="rotate(-75 482.237 1241.83)" fill="white"/>
<circle cx="373.563" cy="1202.24" r="2.43474" transform="rotate(120 373.563 1202.24)" fill="white"/>
<circle cx="458.453" cy="1155.72" r="2.43474" transform="rotate(-75 458.453 1155.72)" fill="white"/>
<circle cx="370.917" cy="1243.86" r="2.43474" transform="rotate(120 370.917 1243.86)" fill="white"/>
<circle cx="450.237" cy="1114.83" r="2.43474" transform="rotate(-75 450.237 1114.83)" fill="white"/>
<circle cx="442.228" cy="1194.09" r="2.43474" transform="rotate(120 442.228 1194.09)" fill="white"/>
<circle cx="394.237" cy="1181.36" r="2.43474" transform="rotate(-75 394.237 1181.36)" fill="white"/>
<circle cx="361.942" cy="1175.5" r="1.52171" transform="rotate(120 361.942 1175.5)" fill="white"/>
<circle cx="476.599" cy="1178.54" r="1.52171" transform="rotate(-75 476.599 1178.54)" fill="white"/>
<circle cx="311.075" cy="1205.17" r="1.52171" transform="rotate(120 311.075 1205.17)" fill="white"/>
<circle cx="518.053" cy="1136.71" r="1.52171" transform="rotate(-75 518.053 1136.71)" fill="white"/>
<circle cx="284.792" cy="1206.41" r="1.52171" transform="rotate(120 284.792 1206.41)" fill="white"/>
<circle cx="543.119" cy="1128.71" r="1.52171" transform="rotate(-75 543.119 1128.71)" fill="white"/>
<circle cx="291.744" cy="1211.38" r="1.52171" transform="rotate(120 291.744 1211.38)" fill="white"/>
<circle cx="277.402" cy="1221.49" r="1.52171" transform="rotate(120 277.402 1221.49)" fill="white"/>
<circle cx="535.119" cy="1125.71" r="1.52171" transform="rotate(-75 535.119 1125.71)" fill="white"/>
<circle cx="275.669" cy="1186.37" r="1.52171" transform="rotate(120 275.669 1186.37)" fill="white"/>
<circle cx="557.119" cy="1145.71" r="1.52171" transform="rotate(-75 557.119 1145.71)" fill="white"/>
<circle cx="315.749" cy="1172.73" r="1.52171" transform="rotate(120 315.749 1172.73)" fill="white"/>
<circle cx="521.935" cy="1169.26" r="1.52171" transform="rotate(-75 521.935 1169.26)" fill="white"/>
<circle cx="294.462" cy="1154.82" r="1.52171" transform="rotate(120 294.462 1154.82)" fill="white"/>
<circle cx="547.132" cy="1181.05" r="1.52171" transform="rotate(-75 547.132 1181.05)" fill="white"/>
<circle cx="259.867" cy="1158.74" r="1.52171" transform="rotate(120 259.867 1158.74)" fill="white"/>
<circle cx="579.535" cy="1168.31" r="1.52171" transform="rotate(-75 579.535 1168.31)" fill="white"/>
<circle cx="354.908" cy="1234.52" r="1.52171" transform="rotate(120 354.908 1234.52)" fill="white"/>
<circle cx="468.119" cy="1119.71" r="1.52171" transform="rotate(-75 468.119 1119.71)" fill="white"/>
<circle cx="364.188" cy="1230.79" r="1.52171" transform="rotate(120 364.188 1230.79)" fill="white"/>
<circle cx="460.119" cy="1125.71" r="1.52171" transform="rotate(-75 460.119 1125.71)" fill="white"/>
<circle cx="337.008" cy="1173.82" r="1.52171" transform="rotate(120 337.008 1173.82)" fill="white"/>
<circle cx="501.119" cy="1173.71" r="1.52171" transform="rotate(-75 501.119 1173.71)" fill="white"/>
<circle cx="381.681" cy="1200.28" r="1.52171" transform="rotate(120 381.681 1200.28)" fill="white"/>
<circle cx="451.119" cy="1159.71" r="1.52171" transform="rotate(-75 451.119 1159.71)" fill="white"/>
<circle cx="386.762" cy="1111.82" r="1.52171" transform="rotate(120 386.762 1111.82)" fill="white"/>
<circle cx="469.107" cy="1246.48" r="1.52171" transform="rotate(-75 469.107 1246.48)" fill="white"/>
<circle cx="270.258" cy="1133.15" r="1.52171" transform="rotate(120 270.258 1133.15)" fill="white"/>
<circle cx="576.119" cy="1195.71" r="1.52171" transform="rotate(-75 576.119 1195.71)" fill="white"/>
<circle cx="350.029" cy="1205.87" r="1.52171" transform="rotate(120 350.029 1205.87)" fill="white"/>
<circle cx="480.245" cy="1146.12" r="1.52171" transform="rotate(-75 480.245 1146.12)" fill="white"/>
<circle cx="421.015" cy="1168.14" r="1.52171" transform="rotate(120 421.015 1168.14)" fill="white"/>
<circle cx="421.444" cy="1200.94" r="1.52171" transform="rotate(-75 421.444 1200.94)" fill="white"/>
<circle cx="398.246" cy="1138.46" r="1.52171" transform="rotate(120 398.246 1138.46)" fill="white"/>
<circle cx="451.119" cy="1223.71" r="1.52171" transform="rotate(-75 451.119 1223.71)" fill="white"/>
<circle cx="311.122" cy="1112.01" r="1.52171" transform="rotate(120 311.122 1112.01)" fill="white"/>
<circle cx="542.119" cy="1226.71" r="1.52171" transform="rotate(-75 542.119 1226.71)" fill="white"/>
<circle cx="309.935" cy="1081.67" r="1.52171" transform="rotate(120 309.935 1081.67)" fill="white"/>
<circle cx="551.119" cy="1255.71" r="1.52171" transform="rotate(-75 551.119 1255.71)" fill="white"/>
<circle cx="317.66" cy="1236.06" r="1.52171" transform="rotate(-75 317.66 1236.06)" fill="white"/>
<circle cx="293.963" cy="1079.46" r="1.52171" transform="rotate(120 293.963 1079.46)" fill="white"/>
<circle cx="567.119" cy="1253.71" r="1.52171" transform="rotate(-75 567.119 1253.71)" fill="white"/>
<circle cx="250.387" cy="1255.31" r="1.52171" transform="rotate(-75 250.387 1255.31)" fill="white"/>
<circle cx="367.064" cy="1088.69" r="1.52171" transform="rotate(120 367.064 1088.69)" fill="white"/>
<circle cx="334.083" cy="1088.14" r="1.52171" transform="rotate(120 334.083 1088.14)" fill="white"/>
<circle cx="526.119" cy="1255.71" r="1.52171" transform="rotate(-75 526.119 1255.71)" fill="white"/>
<circle cx="284.058" cy="1120.29" r="1.52171" transform="rotate(120 284.058 1120.29)" fill="white"/>
<circle cx="566.119" cy="1211.71" r="1.52171" transform="rotate(-75 566.119 1211.71)" fill="white"/>
<circle cx="371.112" cy="1150.86" r="1.52171" transform="rotate(120 371.112 1150.86)" fill="white"/>
<circle cx="474.119" cy="1204.71" r="1.52171" transform="rotate(-75 474.119 1204.71)" fill="white"/>
<circle cx="401.549" cy="1230.45" r="1.52171" transform="rotate(120 401.549 1230.45)" fill="white"/>
<circle cx="424.119" cy="1135.71" r="1.52171" transform="rotate(-75 424.119 1135.71)" fill="white"/>
<circle cx="328.635" cy="1144.32" r="1.52171" transform="rotate(120 328.635 1144.32)" fill="white"/>
<circle cx="516.84" cy="1200.03" r="1.52171" transform="rotate(-75 516.84 1200.03)" fill="white"/>
<circle cx="375.891" cy="1140.75" r="1.52171" transform="rotate(120 375.891 1140.75)" fill="white"/>
<circle cx="472.119" cy="1215.71" r="1.52171" transform="rotate(-75 472.119 1215.71)" fill="white"/>
<circle cx="92.7944" cy="1102.48" r="2.43474" transform="rotate(-75 92.7944 1102.48)" fill="white"/>
<circle cx="112.681" cy="1242.21" r="2.43474" transform="rotate(-60 112.681 1242.21)" fill="white"/>
<circle cx="141.105" cy="1065.64" r="2.43474" transform="rotate(-75 141.105 1065.64)" fill="white"/>
<circle cx="178.635" cy="1247.95" r="2.43474" transform="rotate(-60 178.635 1247.95)" fill="white"/>
<circle cx="206.295" cy="1054.12" r="2.43474" transform="rotate(-75 206.295 1054.12)" fill="white"/>
<circle cx="70.2964" cy="1076.12" r="2.43474" transform="rotate(-75 70.2964 1076.12)" fill="white"/>
<circle cx="112.85" cy="1207.54" r="2.43474" transform="rotate(-60 112.85 1207.54)" fill="white"/>
<circle cx="132.296" cy="1032.12" r="2.43474" transform="rotate(-75 132.296 1032.12)" fill="white"/>
<circle cx="171.392" cy="1217.02" r="2.43474" transform="rotate(-60 171.392 1217.02)" fill="white"/>
<circle cx="144.49" cy="1143.55" r="2.43474" transform="rotate(120 144.49 1143.55)" fill="white"/>
<circle cx="191.296" cy="1026.12" r="2.43474" transform="rotate(-75 191.296 1026.12)" fill="white"/>
<circle cx="200.296" cy="1143.12" r="2.43474" transform="rotate(-75 200.296 1143.12)" fill="white"/>
<circle cx="231.296" cy="1150.12" r="2.43474" transform="rotate(-75 231.296 1150.12)" fill="white"/>
<circle cx="169.296" cy="1168.12" r="2.43474" transform="rotate(-75 169.296 1168.12)" fill="white"/>
<circle cx="194.017" cy="1203.88" r="2.43474" transform="rotate(-75 194.017 1203.88)" fill="white"/>
<circle cx="94.2964" cy="1177.12" r="2.43474" transform="rotate(-75 94.2964 1177.12)" fill="white"/>
<circle cx="198.296" cy="1106.12" r="2.43474" transform="rotate(-75 198.296 1106.12)" fill="white"/>
<circle cx="70.0305" cy="1023.48" r="2.43474" transform="rotate(120 70.0305 1023.48)" fill="white"/>
<circle cx="63.2964" cy="1153.12" r="2.43474" transform="rotate(-75 63.2964 1153.12)" fill="white"/>
<circle cx="154.211" cy="1240.88" r="2.43474" transform="rotate(-60 154.211 1240.88)" fill="white"/>
<circle cx="180.876" cy="1053.61" r="2.43474" transform="rotate(-75 180.876 1053.61)" fill="white"/>
<circle cx="121.296" cy="1145.12" r="2.43474" transform="rotate(-75 121.296 1145.12)" fill="white"/>
<circle cx="72.2927" cy="1224.51" r="2.43474" transform="rotate(-60 72.2927 1224.51)" fill="white"/>
<circle cx="97.5122" cy="1059" r="2.43474" transform="rotate(-75 97.5122 1059)" fill="white"/>
<circle cx="74.9382" cy="1182.89" r="2.43474" transform="rotate(-60 74.9382 1182.89)" fill="white"/>
<circle cx="89.2964" cy="1018.12" r="2.43474" transform="rotate(-75 89.2964 1018.12)" fill="white"/>
<circle cx="81.2874" cy="1097.38" r="2.43474" transform="rotate(120 81.2874 1097.38)" fill="white"/>
<circle cx="83.9137" cy="1251.25" r="1.52171" transform="rotate(-60 83.9137 1251.25)" fill="white"/>
<circle cx="115.659" cy="1081.83" r="1.52171" transform="rotate(-75 115.659 1081.83)" fill="white"/>
<circle cx="134.781" cy="1221.58" r="1.52171" transform="rotate(-60 134.781 1221.58)" fill="white"/>
<circle cx="157.113" cy="1040" r="1.52171" transform="rotate(-75 157.113 1040)" fill="white"/>
<circle cx="161.062" cy="1220.34" r="1.52171" transform="rotate(-60 161.062 1220.34)" fill="white"/>
<circle cx="182.178" cy="1032" r="1.52171" transform="rotate(-75 182.178 1032)" fill="white"/>
<circle cx="154.112" cy="1215.37" r="1.52171" transform="rotate(-60 154.112 1215.37)" fill="white"/>
<circle cx="174.178" cy="1029" r="1.52171" transform="rotate(-75 174.178 1029)" fill="white"/>
<circle cx="170.185" cy="1240.38" r="1.52171" transform="rotate(-60 170.185 1240.38)" fill="white"/>
<circle cx="196.178" cy="1049" r="1.52171" transform="rotate(-75 196.178 1049)" fill="white"/>
<circle cx="130.106" cy="1254.02" r="1.52171" transform="rotate(-60 130.106 1254.02)" fill="white"/>
<circle cx="160.995" cy="1072.55" r="1.52171" transform="rotate(-75 160.995 1072.55)" fill="white"/>
<circle cx="186.192" cy="1084.34" r="1.52171" transform="rotate(-75 186.192 1084.34)" fill="white"/>
<circle cx="218.594" cy="1071.6" r="1.52171" transform="rotate(-75 218.594 1071.6)" fill="white"/>
<circle cx="90.9478" cy="1192.23" r="1.52171" transform="rotate(-60 90.9478 1192.23)" fill="white"/>
<circle cx="107.178" cy="1023" r="1.52171" transform="rotate(-75 107.178 1023)" fill="white"/>
<circle cx="81.6676" cy="1195.96" r="1.52171" transform="rotate(-60 81.6676 1195.96)" fill="white"/>
<circle cx="99.1782" cy="1029" r="1.52171" transform="rotate(-75 99.1782 1029)" fill="white"/>
<circle cx="108.847" cy="1252.94" r="1.52171" transform="rotate(-60 108.847 1252.94)" fill="white"/>
<circle cx="140.178" cy="1077" r="1.52171" transform="rotate(-75 140.178 1077)" fill="white"/>
<circle cx="64.1744" cy="1226.47" r="1.52171" transform="rotate(-60 64.1744 1226.47)" fill="white"/>
<circle cx="90.1782" cy="1063" r="1.52171" transform="rotate(-75 90.1782 1063)" fill="white"/>
<circle cx="108.166" cy="1149.77" r="1.52171" transform="rotate(-75 108.166 1149.77)" fill="white"/>
<circle cx="215.178" cy="1099" r="1.52171" transform="rotate(-75 215.178 1099)" fill="white"/>
<circle cx="95.8267" cy="1220.88" r="1.52171" transform="rotate(-60 95.8267 1220.88)" fill="white"/>
<circle cx="119.304" cy="1049.4" r="1.52171" transform="rotate(-75 119.304 1049.4)" fill="white"/>
<circle cx="90.1782" cy="1127" r="1.52171" transform="rotate(-75 90.1782 1127)" fill="white"/>
<circle cx="181.178" cy="1130" r="1.52171" transform="rotate(-75 181.178 1130)" fill="white"/>
<circle cx="190.178" cy="1159" r="1.52171" transform="rotate(-75 190.178 1159)" fill="white"/>
<circle cx="157.184" cy="1190.99" r="1.52171" transform="rotate(-75 157.184 1190.99)" fill="white"/>
<circle cx="206.178" cy="1157" r="1.52171" transform="rotate(-75 206.178 1157)" fill="white"/>
<circle cx="133.178" cy="1167" r="1.52171" transform="rotate(-75 133.178 1167)" fill="white"/>
<circle cx="165.178" cy="1159" r="1.52171" transform="rotate(-75 165.178 1159)" fill="white"/>
<circle cx="205.178" cy="1115" r="1.52171" transform="rotate(-75 205.178 1115)" fill="white"/>
<circle cx="113.178" cy="1108" r="1.52171" transform="rotate(-75 113.178 1108)" fill="white"/>
<circle cx="63.1782" cy="1039" r="1.52171" transform="rotate(-75 63.1782 1039)" fill="white"/>
<circle cx="155.9" cy="1103.32" r="1.52171" transform="rotate(-75 155.9 1103.32)" fill="white"/>
<circle cx="111.178" cy="1119" r="1.52171" transform="rotate(-75 111.178 1119)" fill="white"/>
<circle cx="364.225" cy="277.964" r="2.43474" transform="rotate(-60 364.225 277.964)" fill="white"/>
<circle cx="336.175" cy="77.4327" r="2.43474" transform="rotate(120 336.175 77.4327)" fill="white"/>
<circle cx="299.864" cy="240.237" r="2.43474" transform="rotate(105 299.864 240.237)" fill="white"/>
<circle cx="400.538" cy="115.16" r="2.43474" transform="rotate(-75 400.538 115.16)" fill="white"/>
<circle cx="420.425" cy="254.886" r="2.43474" transform="rotate(-60 420.425 254.886)" fill="white"/>
<circle cx="279.977" cy="100.511" r="2.43474" transform="rotate(120 279.977 100.511)" fill="white"/>
<circle cx="251.553" cy="277.074" r="2.43474" transform="rotate(105 251.553 277.074)" fill="white"/>
<circle cx="448.848" cy="78.3228" r="2.43474" transform="rotate(-75 448.848 78.3228)" fill="white"/>
<circle cx="486.378" cy="260.626" r="2.43474" transform="rotate(-60 486.378 260.626)" fill="white"/>
<circle cx="214.024" cy="94.7711" r="2.43474" transform="rotate(120 214.024 94.7711)" fill="white"/>
<circle cx="186.362" cy="288.6" r="2.43474" transform="rotate(105 186.362 288.6)" fill="white"/>
<circle cx="514.039" cy="66.7969" r="2.43474" transform="rotate(-75 514.039 66.7969)" fill="white"/>
<circle cx="349.317" cy="246.677" r="2.43474" transform="rotate(-60 349.317 246.677)" fill="white"/>
<circle cx="351.083" cy="108.72" r="2.43474" transform="rotate(120 351.083 108.72)" fill="white"/>
<circle cx="322.362" cy="266.6" r="2.43474" transform="rotate(105 322.362 266.6)" fill="white"/>
<circle cx="378.04" cy="88.7974" r="2.43474" transform="rotate(-75 378.04 88.7974)" fill="white"/>
<circle cx="420.594" cy="220.223" r="2.43474" transform="rotate(-60 420.594 220.223)" fill="white"/>
<circle cx="279.808" cy="135.174" r="2.43474" transform="rotate(120 279.808 135.174)" fill="white"/>
<circle cx="260.362" cy="310.6" r="2.43474" transform="rotate(105 260.362 310.6)" fill="white"/>
<circle cx="440.04" cy="44.7974" r="2.43474" transform="rotate(-75 440.04 44.7974)" fill="white"/>
<circle cx="479.135" cy="229.698" r="2.43474" transform="rotate(-60 479.135 229.698)" fill="white"/>
<circle cx="221.266" cy="125.699" r="2.43474" transform="rotate(120 221.266 125.699)" fill="white"/>
<circle cx="248.039" cy="153.282" r="2.43474" transform="rotate(120 248.039 153.282)" fill="white"/>
<circle cx="452.234" cy="156.232" r="2.43474" transform="rotate(120 452.234 156.232)" fill="white"/>
<circle cx="201.362" cy="316.6" r="2.43474" transform="rotate(105 201.362 316.6)" fill="white"/>
<circle cx="499.04" cy="38.7974" r="2.43474" transform="rotate(-75 499.04 38.7974)" fill="white"/>
<circle cx="457.547" cy="345.04" r="2.43474" transform="rotate(-60 457.547 345.04)" fill="white"/>
<circle cx="242.854" cy="10.3565" r="2.43474" transform="rotate(120 242.854 10.3565)" fill="white"/>
<circle cx="192.361" cy="199.6" r="2.43474" transform="rotate(105 192.361 199.6)" fill="white"/>
<circle cx="508.04" cy="155.797" r="2.43474" transform="rotate(-75 508.04 155.797)" fill="white"/>
<circle cx="485.679" cy="359.825" r="2.43474" transform="rotate(-60 485.679 359.825)" fill="white"/>
<circle cx="161.362" cy="192.6" r="2.43474" transform="rotate(105 161.362 192.6)" fill="white"/>
<circle cx="539.04" cy="162.797" r="2.43474" transform="rotate(-75 539.04 162.797)" fill="white"/>
<circle cx="194.905" cy="144.69" r="2.43474" transform="rotate(-75 194.905 144.69)" fill="white"/>
<circle cx="421.133" cy="361.165" r="2.43474" transform="rotate(-60 421.133 361.165)" fill="white"/>
<circle cx="223.362" cy="174.6" r="2.43474" transform="rotate(105 223.362 174.6)" fill="white"/>
<circle cx="477.04" cy="180.797" r="2.43474" transform="rotate(-75 477.04 180.797)" fill="white"/>
<circle cx="501.76" cy="216.559" r="2.43474" transform="rotate(-75 501.76 216.559)" fill="white"/>
<circle cx="346.359" cy="350.447" r="2.43474" transform="rotate(-60 346.359 350.447)" fill="white"/>
<circle cx="298.362" cy="165.6" r="2.43474" transform="rotate(105 298.362 165.6)" fill="white"/>
<circle cx="402.04" cy="189.797" r="2.43474" transform="rotate(-75 402.04 189.797)" fill="white"/>
<circle cx="465.191" cy="308.784" r="2.43474" transform="rotate(-60 465.191 308.784)" fill="white"/>
<circle cx="235.209" cy="46.6133" r="2.43474" transform="rotate(120 235.209 46.6133)" fill="white"/>
<circle cx="194.362" cy="236.6" r="2.43474" transform="rotate(105 194.362 236.6)" fill="white"/>
<circle cx="506.04" cy="118.797" r="2.43474" transform="rotate(-75 506.04 118.797)" fill="white"/>
<circle cx="322.627" cy="319.242" r="2.43474" transform="rotate(-60 322.627 319.242)" fill="white"/>
<circle cx="377.774" cy="36.1553" r="2.43474" transform="rotate(120 377.774 36.1553)" fill="white"/>
<circle cx="329.362" cy="189.6" r="2.43474" transform="rotate(105 329.362 189.6)" fill="white"/>
<circle cx="371.04" cy="165.797" r="2.43474" transform="rotate(-75 371.04 165.797)" fill="white"/>
<circle cx="461.954" cy="253.56" r="2.43474" transform="rotate(-60 461.954 253.56)" fill="white"/>
<circle cx="238.448" cy="101.836" r="2.43474" transform="rotate(120 238.448 101.836)" fill="white"/>
<circle cx="211.782" cy="289.103" r="2.43474" transform="rotate(105 211.782 289.103)" fill="white"/>
<circle cx="488.62" cy="66.2935" r="2.43474" transform="rotate(-75 488.62 66.2935)" fill="white"/>
<circle cx="380.721" cy="326.525" r="2.43474" transform="rotate(-60 380.721 326.525)" fill="white"/>
<circle cx="319.68" cy="28.8716" r="2.43474" transform="rotate(120 319.68 28.8716)" fill="white"/>
<circle cx="271.362" cy="197.6" r="2.43474" transform="rotate(105 271.362 197.6)" fill="white"/>
<circle cx="429.04" cy="157.797" r="2.43474" transform="rotate(-75 429.04 157.797)" fill="white"/>
<circle cx="380.036" cy="237.19" r="2.43474" transform="rotate(-60 380.036 237.19)" fill="white"/>
<circle cx="320.365" cy="118.207" r="2.43474" transform="rotate(120 320.365 118.207)" fill="white"/>
<circle cx="295.146" cy="283.714" r="2.43474" transform="rotate(105 295.146 283.714)" fill="white"/>
<circle cx="405.255" cy="71.6832" r="2.43474" transform="rotate(-75 405.255 71.6832)" fill="white"/>
<circle cx="382.681" cy="195.571" r="2.43474" transform="rotate(-60 382.681 195.571)" fill="white"/>
<circle cx="317.72" cy="159.826" r="2.43474" transform="rotate(120 317.72 159.826)" fill="white"/>
<circle cx="303.362" cy="324.6" r="2.43474" transform="rotate(105 303.362 324.6)" fill="white"/>
<circle cx="397.04" cy="30.7974" r="2.43474" transform="rotate(-75 397.04 30.7974)" fill="white"/>
<circle cx="311.371" cy="245.34" r="2.43474" transform="rotate(-60 311.371 245.34)" fill="white"/>
<circle cx="389.031" cy="110.057" r="2.43474" transform="rotate(120 389.031 110.057)" fill="white"/>
<circle cx="359.362" cy="258.07" r="2.43474" transform="rotate(105 359.362 258.07)" fill="white"/>
<circle cx="341.04" cy="97.3272" r="2.43474" transform="rotate(-75 341.04 97.3272)" fill="white"/>
<circle cx="391.657" cy="263.931" r="1.52171" transform="rotate(-60 391.657 263.931)" fill="white"/>
<circle cx="308.745" cy="91.4662" r="1.52171" transform="rotate(120 308.745 91.4662)" fill="white"/>
<circle cx="277" cy="260.892" r="1.52171" transform="rotate(105 277 260.892)" fill="white"/>
<circle cx="423.402" cy="94.5046" r="1.52171" transform="rotate(-75 423.402 94.5046)" fill="white"/>
<circle cx="442.524" cy="234.259" r="1.52171" transform="rotate(-60 442.524 234.259)" fill="white"/>
<circle cx="257.877" cy="121.138" r="1.52171" transform="rotate(120 257.877 121.138)" fill="white"/>
<circle cx="235.545" cy="302.718" r="1.52171" transform="rotate(105 235.545 302.718)" fill="white"/>
<circle cx="464.856" cy="52.6794" r="1.52171" transform="rotate(-75 464.856 52.6794)" fill="white"/>
<circle cx="468.805" cy="233.019" r="1.52171" transform="rotate(-60 468.805 233.019)" fill="white"/>
<circle cx="231.595" cy="122.378" r="1.52171" transform="rotate(120 231.595 122.378)" fill="white"/>
<circle cx="210.48" cy="310.718" r="1.52171" transform="rotate(105 210.48 310.718)" fill="white"/>
<circle cx="489.921" cy="44.6789" r="1.52171" transform="rotate(-75 489.921 44.6789)" fill="white"/>
<circle cx="461.855" cy="228.051" r="1.52171" transform="rotate(-60 461.855 228.051)" fill="white"/>
<circle cx="238.546" cy="127.346" r="1.52171" transform="rotate(120 238.546 127.346)" fill="white"/>
<circle cx="224.204" cy="137.455" r="1.52171" transform="rotate(120 224.204 137.455)" fill="white"/>
<circle cx="218.48" cy="313.718" r="1.52171" transform="rotate(105 218.48 313.718)" fill="white"/>
<circle cx="481.921" cy="41.6789" r="1.52171" transform="rotate(-75 481.921 41.6789)" fill="white"/>
<circle cx="477.928" cy="253.063" r="1.52171" transform="rotate(-60 477.928 253.063)" fill="white"/>
<circle cx="222.472" cy="102.334" r="1.52171" transform="rotate(120 222.472 102.334)" fill="white"/>
<circle cx="196.48" cy="293.718" r="1.52171" transform="rotate(105 196.48 293.718)" fill="white"/>
<circle cx="503.921" cy="61.6789" r="1.52171" transform="rotate(-75 503.921 61.6789)" fill="white"/>
<circle cx="437.849" cy="266.703" r="1.52171" transform="rotate(-60 437.849 266.703)" fill="white"/>
<circle cx="262.552" cy="88.6937" r="1.52171" transform="rotate(120 262.552 88.6937)" fill="white"/>
<circle cx="231.663" cy="270.169" r="1.52171" transform="rotate(105 231.663 270.169)" fill="white"/>
<circle cx="468.738" cy="85.2277" r="1.52171" transform="rotate(-75 468.738 85.2277)" fill="white"/>
<circle cx="459.136" cy="284.615" r="1.52171" transform="rotate(-60 459.136 284.615)" fill="white"/>
<circle cx="241.265" cy="70.7816" r="1.52171" transform="rotate(120 241.265 70.7816)" fill="white"/>
<circle cx="206.466" cy="258.377" r="1.52171" transform="rotate(105 206.466 258.377)" fill="white"/>
<circle cx="493.935" cy="97.0197" r="1.52171" transform="rotate(-75 493.935 97.0197)" fill="white"/>
<circle cx="493.732" cy="280.693" r="1.52171" transform="rotate(-60 493.732 280.693)" fill="white"/>
<circle cx="206.669" cy="74.7044" r="1.52171" transform="rotate(120 206.669 74.7044)" fill="white"/>
<circle cx="174.064" cy="271.12" r="1.52171" transform="rotate(105 174.064 271.12)" fill="white"/>
<circle cx="526.337" cy="84.2765" r="1.52171" transform="rotate(-75 526.337 84.2765)" fill="white"/>
<circle cx="398.691" cy="204.914" r="1.52171" transform="rotate(-60 398.691 204.914)" fill="white"/>
<circle cx="301.71" cy="150.483" r="1.52171" transform="rotate(120 301.71 150.483)" fill="white"/>
<circle cx="285.479" cy="319.718" r="1.52171" transform="rotate(105 285.479 319.718)" fill="white"/>
<circle cx="414.921" cy="35.6794" r="1.52171" transform="rotate(-75 414.921 35.6794)" fill="white"/>
<circle cx="389.411" cy="208.639" r="1.52171" transform="rotate(-60 389.411 208.639)" fill="white"/>
<circle cx="310.991" cy="146.758" r="1.52171" transform="rotate(120 310.991 146.758)" fill="white"/>
<circle cx="293.48" cy="313.718" r="1.52171" transform="rotate(105 293.48 313.718)" fill="white"/>
<circle cx="406.921" cy="41.6794" r="1.52171" transform="rotate(-75 406.921 41.6794)" fill="white"/>
<circle cx="416.59" cy="265.615" r="1.52171" transform="rotate(-60 416.59 265.615)" fill="white"/>
<circle cx="283.811" cy="89.7816" r="1.52171" transform="rotate(120 283.811 89.7816)" fill="white"/>
<circle cx="252.48" cy="265.718" r="1.52171" transform="rotate(105 252.48 265.718)" fill="white"/>
<circle cx="447.921" cy="89.6794" r="1.52171" transform="rotate(-75 447.921 89.6794)" fill="white"/>
<circle cx="371.918" cy="239.152" r="1.52171" transform="rotate(-60 371.918 239.152)" fill="white"/>
<circle cx="328.484" cy="116.245" r="1.52171" transform="rotate(120 328.484 116.245)" fill="white"/>
<circle cx="302.48" cy="279.718" r="1.52171" transform="rotate(105 302.48 279.718)" fill="white"/>
<circle cx="397.921" cy="75.6794" r="1.52171" transform="rotate(-75 397.921 75.6794)" fill="white"/>
<circle cx="366.836" cy="327.616" r="1.52171" transform="rotate(-60 366.836 327.616)" fill="white"/>
<circle cx="333.565" cy="27.7811" r="1.52171" transform="rotate(120 333.565 27.7811)" fill="white"/>
<circle cx="284.492" cy="192.952" r="1.52171" transform="rotate(105 284.492 192.952)" fill="white"/>
<circle cx="415.91" cy="162.444" r="1.52171" transform="rotate(-75 415.91 162.444)" fill="white"/>
<circle cx="483.34" cy="306.277" r="1.52171" transform="rotate(-60 483.34 306.277)" fill="white"/>
<circle cx="217.061" cy="49.12" r="1.52171" transform="rotate(120 217.061 49.12)" fill="white"/>
<circle cx="177.479" cy="243.718" r="1.52171" transform="rotate(105 177.479 243.718)" fill="white"/>
<circle cx="522.921" cy="111.679" r="1.52171" transform="rotate(-75 522.921 111.679)" fill="white"/>
<circle cx="403.57" cy="233.557" r="1.52171" transform="rotate(-60 403.57 233.557)" fill="white"/>
<circle cx="296.831" cy="121.84" r="1.52171" transform="rotate(120 296.831 121.84)" fill="white"/>
<circle cx="273.354" cy="293.314" r="1.52171" transform="rotate(105 273.354 293.314)" fill="white"/>
<circle cx="427.047" cy="62.0827" r="1.52171" transform="rotate(-75 427.047 62.0827)" fill="white"/>
<circle cx="332.584" cy="271.293" r="1.52171" transform="rotate(-60 332.584 271.293)" fill="white"/>
<circle cx="367.818" cy="84.1043" r="1.52171" transform="rotate(120 367.818 84.1043)" fill="white"/>
<circle cx="332.154" cy="238.492" r="1.52171" transform="rotate(105 332.154 238.492)" fill="white"/>
<circle cx="368.247" cy="116.905" r="1.52171" transform="rotate(-75 368.247 116.905)" fill="white"/>
<circle cx="355.353" cy="300.971" r="1.52171" transform="rotate(-60 355.353 300.971)" fill="white"/>
<circle cx="345.048" cy="54.4261" r="1.52171" transform="rotate(120 345.048 54.4261)" fill="white"/>
<circle cx="302.48" cy="215.718" r="1.52171" transform="rotate(105 302.48 215.718)" fill="white"/>
<circle cx="397.921" cy="139.679" r="1.52171" transform="rotate(-75 397.921 139.679)" fill="white"/>
<circle cx="442.475" cy="327.421" r="1.52171" transform="rotate(-60 442.475 327.421)" fill="white"/>
<circle cx="257.925" cy="27.9759" r="1.52171" transform="rotate(120 257.925 27.9759)" fill="white"/>
<circle cx="211.48" cy="212.718" r="1.52171" transform="rotate(105 211.48 212.718)" fill="white"/>
<circle cx="488.921" cy="142.679" r="1.52171" transform="rotate(-75 488.921 142.679)" fill="white"/>
<circle cx="443.663" cy="357.762" r="1.52171" transform="rotate(-60 443.663 357.762)" fill="white"/>
<circle cx="202.48" cy="183.718" r="1.52171" transform="rotate(105 202.48 183.718)" fill="white"/>
<circle cx="497.921" cy="171.679" r="1.52171" transform="rotate(-75 497.921 171.679)" fill="white"/>
<circle cx="264.462" cy="152.029" r="1.52171" transform="rotate(-75 264.462 152.029)" fill="white"/>
<circle cx="464.927" cy="203.673" r="1.52171" transform="rotate(-75 464.927 203.673)" fill="white"/>
<circle cx="459.635" cy="359.971" r="1.52171" transform="rotate(-60 459.635 359.971)" fill="white"/>
<circle cx="186.48" cy="185.718" r="1.52171" transform="rotate(105 186.48 185.718)" fill="white"/>
<circle cx="513.921" cy="169.679" r="1.52171" transform="rotate(-75 513.921 169.679)" fill="white"/>
<circle cx="197.19" cy="171.274" r="1.52171" transform="rotate(-75 197.19 171.274)" fill="white"/>
<circle cx="386.535" cy="350.737" r="1.52171" transform="rotate(-60 386.535 350.737)" fill="white"/>
<circle cx="259.48" cy="175.718" r="1.52171" transform="rotate(105 259.48 175.718)" fill="white"/>
<circle cx="440.921" cy="179.679" r="1.52171" transform="rotate(-75 440.921 179.679)" fill="white"/>
<circle cx="419.515" cy="351.292" r="1.52171" transform="rotate(-60 419.515 351.292)" fill="white"/>
<circle cx="227.48" cy="183.718" r="1.52171" transform="rotate(105 227.48 183.718)" fill="white"/>
<circle cx="472.921" cy="171.679" r="1.52171" transform="rotate(-75 472.921 171.679)" fill="white"/>
<circle cx="469.54" cy="319.144" r="1.52171" transform="rotate(-60 469.54 319.144)" fill="white"/>
<circle cx="230.861" cy="36.2533" r="1.52171" transform="rotate(120 230.861 36.2533)" fill="white"/>
<circle cx="187.48" cy="227.718" r="1.52171" transform="rotate(105 187.48 227.718)" fill="white"/>
<circle cx="512.921" cy="127.679" r="1.52171" transform="rotate(-75 512.921 127.679)" fill="white"/>
<circle cx="382.487" cy="288.571" r="1.52171" transform="rotate(-60 382.487 288.571)" fill="white"/>
<circle cx="317.914" cy="66.826" r="1.52171" transform="rotate(120 317.914 66.826)" fill="white"/>
<circle cx="279.48" cy="234.718" r="1.52171" transform="rotate(105 279.48 234.718)" fill="white"/>
<circle cx="420.921" cy="120.679" r="1.52171" transform="rotate(-75 420.921 120.679)" fill="white"/>
<circle cx="352.048" cy="208.981" r="1.52171" transform="rotate(-60 352.048 208.981)" fill="white"/>
<circle cx="348.352" cy="146.416" r="1.52171" transform="rotate(120 348.352 146.416)" fill="white"/>
<circle cx="329.48" cy="303.718" r="1.52171" transform="rotate(105 329.48 303.718)" fill="white"/>
<circle cx="370.921" cy="51.6789" r="1.52171" transform="rotate(-75 370.921 51.6789)" fill="white"/>
<circle cx="424.963" cy="295.109" r="1.52171" transform="rotate(-60 424.963 295.109)" fill="white"/>
<circle cx="275.438" cy="60.2884" r="1.52171" transform="rotate(120 275.438 60.2884)" fill="white"/>
<circle cx="236.758" cy="239.397" r="1.52171" transform="rotate(105 236.758 239.397)" fill="white"/>
<circle cx="463.643" cy="116" r="1.52171" transform="rotate(-75 463.643 116)" fill="white"/>
<circle cx="377.708" cy="298.678" r="1.52171" transform="rotate(-60 377.708 298.678)" fill="white"/>
<circle cx="322.694" cy="56.7186" r="1.52171" transform="rotate(120 322.694 56.7186)" fill="white"/>
<circle cx="281.48" cy="223.718" r="1.52171" transform="rotate(105 281.48 223.718)" fill="white"/>
<circle cx="418.921" cy="131.679" r="1.52171" transform="rotate(-75 418.921 131.679)" fill="white"/>
</g>
</svg>
